<svg width="30" height="30" viewBox="0 0 30 30" fill="none" xmlns="http://www.w3.org/2000/svg">
<path d="M15 0C6.71635 0 0 6.71635 0 15C0 23.2837 6.71635 30 15 30C23.2837 30 30 23.2837 30 15C30 6.71635 23.286 0 15 0ZM24.7415 24.7415C22.1402 27.3428 18.6796 28.7774 15 28.7774C11.3204 28.7774 7.8598 27.3451 5.2585 24.7415C2.6572 22.1402 1.22264 18.6796 1.22264 15C1.22264 11.3204 2.65487 7.8598 5.2585 5.2585C7.8598 2.6572 11.3204 1.22264 15 1.22264C18.6796 1.22264 22.1402 2.65487 24.7415 5.2585C27.3428 7.8598 28.7774 11.3204 28.7774 15C28.7774 18.6796 27.3451 22.1402 24.7415 24.7415Z" fill="#983809"/>
<path d="M11.75 11.9151H18.2105L17.8629 14.3291H11.75V11.9151ZM12.8854 11.0304C12.8854 8.58061 13.7806 7.5 16.2494 7.5H18.2084V10.0172H16.3189C16.1188 10.0172 15.9692 10.093 15.866 10.2447C15.7628 10.3964 15.7122 10.5923 15.7122 10.8324V22.5H12.8854V11.0304Z" fill="#983809"/>
</svg>
