<svg width="93" height="78" viewBox="0 0 93 78" fill="none" xmlns="http://www.w3.org/2000/svg">
<path d="M70.7854 78C63.5061 78 58.2348 75.5 54.9717 70.5C51.7085 65.5 50.0769 59.75 50.0769 53.25C50.0769 49.5 50.5789 45.375 51.583 40.875C52.587 36.375 54.4696 31.875 57.2308 27.375C60.2429 22.625 64.3846 18 69.6559 13.5C74.9271 8.75001 81.9555 4.25 90.7409 0L93 3.375C87.9798 8.125 83.9636 12.25 80.9514 15.75C78.1903 19.25 76.0567 22.5 74.5506 25.5C73.0445 28.5 72.0405 31.25 71.5385 33.75C71.2875 36.25 71.1619 38.875 71.1619 41.625C71.1619 43.625 71.7895 45.125 73.0445 46.125C74.2996 46.875 75.6802 47.875 77.1862 49.125C79.4454 50.625 81.4534 52.125 83.2105 53.625C85.2186 54.875 86.2227 57.625 86.2227 61.875C86.2227 66.375 84.7166 70.25 81.7045 73.5C78.6923 76.5 75.0526 78 70.7854 78ZM21.085 78C13.8057 78 8.40891 75.5 4.89474 70.5C1.63158 65.5 0 59.75 0 53.25C0 49.5 0.502024 45.5 1.50607 41.25C2.51012 36.75 4.51822 32.125 7.53036 27.375C10.5425 22.625 14.6842 18 19.9555 13.5C25.2267 8.75001 32.2551 4.25 41.0405 0L43.2996 3.375C38.2794 8.125 34.2632 12.25 31.251 15.75C28.4899 19.25 26.3563 22.5 24.8502 25.5C23.3441 28.5 22.3401 31.25 21.8381 33.75C21.587 36.25 21.4615 38.875 21.4615 41.625C21.4615 43.625 21.9636 45.125 22.9676 46.125C24.2227 47.125 25.6032 48 27.1093 48.75C29.1174 50 31.1255 51.5 33.1336 53.25C35.3927 54.75 36.5223 57.625 36.5223 61.875C36.5223 66.375 35.0162 70.25 32.004 73.5C29.2429 76.5 25.6032 78 21.085 78Z" fill="#F7A278"/>
</svg>
