<svg width="36" height="23" viewBox="0 0 36 23" fill="none" xmlns="http://www.w3.org/2000/svg">
<path fill-rule="evenodd" clip-rule="evenodd" d="M33.952 16.282L30.788 6.097C31.993 5.539 32.719 4.19 32.689 2.863L32.679 2.418L32.317 2.67C30.188 4.149 27.864 3.271 25.803 2.14C24.818 1.599 23.783 0.847 22.665 0.636C21.523 0.42 20.375 0.826 19.41 1.426C19.396 0.592 18.808 0.12 18.034 0.004L18 0L17.965 0.004C17.191 0.12 16.604 0.592 16.59 1.426C15.851 0.967 15.015 0.62 14.141 0.58C13.191 0.537 12.379 0.939 11.563 1.381C9.894 2.285 8.154 3.49 6.188 3.49C5.296 3.49 4.477 3.222 3.682 2.67L3.321 2.418L3.31 2.863C3.281 4.187 4.005 5.544 5.211 6.097L2.047 16.282H0L0.002 16.524C0.028 19.627 3.27 21.424 6.005 21.424C8.741 21.424 11.982 19.627 12.009 16.524L12.01 16.282H10.109L7.919 6.377C8.789 6.253 9.779 5.965 10.903 5.499C12.351 4.522 14.425 4.935 15.821 5.762C16.279 7.548 17.182 12.186 16.411 18.781C15.954 19.042 15.53 19.496 15.572 20.063C13.757 20.523 12.353 21.479 11.802 22.656L11.64 23H24.359L24.198 22.656C23.646 21.479 22.243 20.523 20.428 20.063C20.47 19.496 20.046 19.042 19.589 18.781C18.818 12.186 19.721 7.547 20.179 5.762C21.7 4.861 23.56 4.639 25.136 5.521C26.22 5.965 27.21 6.253 28.081 6.377L25.891 16.282H23.989L23.991 16.524C24.017 19.627 27.259 21.424 29.994 21.424C32.73 21.424 35.971 19.627 35.998 16.524L36 16.282H33.952ZM30.157 16.282L29.594 6.416C29.876 6.385 30.155 6.33 30.425 6.24L33.545 16.282H30.157ZM17.208 0.896C17.355 0.686 17.621 0.548 18 0.486C18.693 0.599 19.029 1.052 18.917 1.757C18.617 1.976 18.33 2.212 18.061 2.469C18.022 2.465 17.977 2.466 17.938 2.469C17.67 2.213 17.382 1.976 17.083 1.757C17.024 1.39 17.066 1.1 17.208 0.896C17.355 0.686 17.066 1.1 17.208 0.896ZM18.949 4.24C18.866 4.517 18.667 4.75 18.396 4.87C17.038 5.469 16.427 3.143 17.918 2.956L17.927 2.955C17.975 2.948 18.024 2.948 18.072 2.955L18.115 2.96C18.715 3.033 19.124 3.651 18.949 4.24ZM5.575 6.24C5.844 6.329 6.124 6.386 6.405 6.416L5.843 16.282H2.455L5.575 6.24ZM6.005 20.943C3.079 20.943 0.664 19.089 0.488 16.763H11.523C11.346 19.089 8.931 20.943 6.005 20.943ZM6.232 16.282L6.793 6.444C7.039 6.453 7.285 6.442 7.53 6.421L9.71 16.282H6.232ZM10.684 5.074C9.511 5.556 8.248 5.965 6.969 5.965L6.814 5.963C5.233 5.916 4.041 4.926 3.819 3.325C4.569 3.76 5.349 3.972 6.188 3.972C8.387 3.97 10.276 2.581 12.157 1.61C13.113 1.117 14.02 0.905 15.071 1.236C15.93 1.507 16.706 2.019 17.382 2.61C16.377 3.081 16.256 4.532 17.167 5.171C17.069 5.298 16.948 5.407 16.799 5.467C16.745 5.489 16.291 5.518 16.306 5.486C16.274 5.465 16.241 5.447 16.209 5.428L15.644 5.085L15.654 5.12C14.651 4.61 13.525 4.364 12.405 4.507C12.309 4.519 10.616 4.937 10.684 5.074C10.682 5.07 9.629 5.507 10.684 5.074ZM23.574 22.518H12.425C13.016 21.624 14.199 20.897 15.697 20.522C16.452 22.03 19.546 22.026 20.303 20.522C21.8 20.897 22.983 21.624 23.574 22.518ZM19.958 20.002C19.958 20.761 18.885 21.069 18.31 21.125C17.601 21.194 16.307 21.026 16.071 20.174L16.07 20.171C15.816 19.255 17.262 18.893 17.885 18.873C18.537 18.851 19.958 19.096 19.958 20.002ZM19.083 18.554C18.405 18.326 17.595 18.326 16.917 18.553C17.595 12.424 16.841 7.988 16.368 5.99C16.866 6.067 17.329 5.792 17.608 5.382C17.86 5.454 18.139 5.454 18.391 5.382C18.672 5.793 19.132 6.065 19.632 5.99C19.158 7.988 18.404 12.424 19.083 18.554C19.044 18.541 18.404 12.424 19.083 18.554ZM22.941 4.466C22.068 4.466 21.198 4.687 20.346 5.12L20.355 5.085L19.79 5.428C19.756 5.448 19.723 5.466 19.717 5.473C19.381 5.608 19.043 5.443 18.833 5.171C19.744 4.532 19.624 3.083 18.618 2.61C19.404 1.918 20.351 1.318 21.387 1.12C22.722 0.864 23.834 1.589 24.955 2.218C27.171 3.46 29.726 4.744 32.177 3.327C31.945 4.925 30.771 5.916 29.186 5.963L29.03 5.965C27.768 5.965 26.517 5.567 25.356 5.096C25.317 5.07 24.389 4.466 22.941 4.466ZM28.469 6.421C28.714 6.442 28.961 6.454 29.206 6.444L29.767 16.282H26.289L28.469 6.421ZM29.994 20.943C27.068 20.943 24.653 19.089 24.476 16.763H35.512C35.335 19.089 32.921 20.943 29.994 20.943Z" fill="black"/>
</svg>
