<svg width="33" height="35" viewBox="0 0 33 35" fill="none" xmlns="http://www.w3.org/2000/svg">
<path fill-rule="evenodd" clip-rule="evenodd" d="M31.4583 7.69761C31.0074 7.34761 30.4344 7.33761 29.9094 7.18062C29.3304 7.00862 28.8434 6.62963 28.4114 6.21464C27.5424 5.38066 26.7944 4.30068 25.6405 3.84569C24.8605 1.31474 22.4115 -0.056231 19.8946 0.00176779C17.0326 0.0667664 14.7637 1.63073 12.4697 3.1717C11.3228 3.94169 10.0778 4.68867 8.68382 4.84367C8.05883 4.91366 7.35485 4.77967 6.79286 5.13266C6.32087 5.43065 6.02387 6.06064 6.37087 6.57063C6.98985 7.48061 8.57582 6.98662 9.4168 6.74663C10.6418 6.39663 11.8078 5.84965 12.9147 5.21966C14.0777 4.55867 15.1257 3.69669 16.3037 3.0687C17.4036 2.48172 18.6226 2.15972 19.8696 2.21572C17.3006 2.34372 15.3167 4.16168 13.2697 5.51865C11.1188 6.94562 8.62382 7.63461 6.05287 7.46961L5.98887 7.46561C5.33089 7.42161 4.24291 7.58861 4.36491 8.51859C4.46591 9.29957 5.47089 9.46557 6.08287 9.54557C8.01283 9.79856 9.98779 9.36357 11.7518 8.56959C13.4977 7.7836 15.1187 6.75463 16.6167 5.55665C17.8416 4.57567 19.9416 3.3587 21.4286 4.60467C20.6836 4.39668 19.8806 4.45367 19.0476 4.78367L18.8036 4.88167L18.9156 5.12166C18.9376 5.17066 19.4556 6.24264 20.5866 6.88062C18.9876 9.43257 17.1506 12.0505 14.3587 13.3485C11.3678 14.7395 7.92583 14.4625 4.7409 14.1785C2.91894 13.8535 1.09298 14.9895 0.120997 16.5144L0 16.7024L0.172996 16.8434C0.889981 17.4294 1.77496 17.6744 2.65694 17.3384C2.27995 18.7594 2.35295 20.2443 2.86094 21.6203C3.10794 22.2893 3.42493 22.9483 3.54693 23.6573C3.67692 24.4163 3.44793 25.0402 2.99594 25.6392C2.61795 26.1402 2.17695 26.6192 1.98996 27.2342C1.76596 27.9692 1.97496 28.7642 2.19295 29.4742C2.60295 30.8151 3.32893 32.0091 3.95492 33.2511L3.98092 35H6.93585L6.96485 34.784C7.05385 34.1201 6.77486 33.4211 6.24287 32.9971C5.27089 31.2361 4.6349 29.8301 4.28991 27.9392C4.8179 27.2182 5.32489 26.4722 5.81988 25.7202C5.64488 26.3772 5.41989 27.0152 5.13289 27.6242L5.05989 27.7792L5.17689 27.9042C6.68786 29.5112 7.52984 31.0001 7.90583 32.7251L7.93383 34.694H10.8578L10.8978 34.494C11.0388 33.7961 10.7528 33.0291 10.1898 32.5861C9.4338 30.8871 8.58382 29.2332 7.85084 27.5232C9.19681 26.1592 10.1858 24.4343 10.7298 22.5193C12.8577 22.4983 14.9317 22.0073 16.9716 21.4303C17.8846 25.2522 17.7366 29.2002 17.9256 33.0981L17.9536 35H20.5236H21.0196H22.4895L22.5305 34.802C22.6915 34.0321 22.3395 33.1771 21.6695 32.7751C21.1826 29.7001 21.0986 26.5612 21.4326 23.4653C21.7555 20.4763 22.7695 17.4174 22.0635 14.4105C22.4795 13.1135 22.9595 11.7445 23.6055 10.0106C24.6125 10.1356 25.6045 10.0276 26.5944 10.3086C27.5684 10.5845 28.5134 10.9995 29.5414 10.9995C30.3734 10.9995 31.2563 10.7085 31.7063 9.95156C32.1223 9.25457 32.1463 8.2316 31.4583 7.69761ZM19.8536 1.71173C18.0676 1.63873 16.3867 2.30772 14.9397 3.3337C13.4537 4.38668 14.2717 3.80769 14.9327 3.3387C12.8667 4.80267 10.5098 6.20564 7.96783 6.54763C7.61384 6.59463 7.08585 6.63263 6.81386 6.33763C6.28887 5.76665 7.40485 5.39865 7.77484 5.38066C9.19481 5.31266 10.3838 5.01066 11.6288 4.28968C13.9667 2.93471 15.9417 1.12174 18.6786 0.626755C21.2346 0.163764 24.0545 1.06275 25.0705 3.68069C24.6605 3.61369 24.2215 3.65569 23.8255 3.77969C23.0305 2.30772 21.4176 1.77473 19.8536 1.71173ZM19.8016 3.62669C18.6096 3.63469 17.5136 4.18268 16.6017 4.93066C16.8876 4.69567 17.0876 4.53167 16.5997 4.93166C14.6477 6.53363 12.4167 7.9836 9.98379 8.69559C8.78282 9.04658 7.51284 9.20657 6.26587 9.06558C5.87088 9.02158 5.0289 8.98058 4.8659 8.51059C4.6639 7.9276 5.67088 7.9436 5.95688 7.9626L6.02187 7.9666C7.64884 8.0716 9.29981 7.8556 10.8398 7.31261C12.3947 6.76363 13.7177 5.82565 15.0527 4.87367C17.2226 3.3257 20.9726 1.25574 23.0545 4.14068C22.7465 4.33768 22.4745 4.58967 22.2545 4.88267C21.8195 3.94469 20.7536 3.62069 19.8016 3.62669ZM19.4956 5.15066C19.5706 5.12666 19.6306 5.11166 19.6846 5.09966C20.5096 4.87867 21.2796 4.96666 21.9755 5.36866L22.0295 5.39865C22.0715 5.42265 22.1135 5.44665 22.1525 5.47265L22.1545 5.47365C22.7405 5.86265 23.1325 6.39363 23.3295 6.70463C21.8045 7.11562 20.3316 6.49663 19.4956 5.15066ZM2.85894 16.6964C2.16195 17.1084 1.47697 17.0994 0.798983 16.6784C0.758984 16.6574 0.715985 16.6314 0.666986 16.5964C1.06298 16.0714 2.31195 14.6265 4.05792 14.6155C3.54393 15.2244 3.13293 15.9474 2.85894 16.6964ZM6.48986 34.502H4.46491L4.45191 33.6131L6.06587 33.4921C6.32587 33.7521 6.48286 34.1241 6.48986 34.502ZM9.86579 32.9561C10.2448 33.2311 10.4658 33.7191 10.4418 34.1961H8.41782L8.39882 32.8651C8.84681 32.6321 9.4368 32.6611 9.85579 32.9491L9.86579 32.9561ZM10.3098 22.2093V22.2113C9.7848 24.1693 8.77482 25.9242 7.38785 27.2862L7.26585 27.4062L7.33285 27.5632C8.00583 29.1512 8.78382 30.6891 9.5008 32.2561C9.12281 32.1661 8.68282 32.1961 8.32383 32.3461C7.91183 30.6861 7.07485 29.2302 5.64788 27.6842C6.09387 26.7012 6.40387 25.6532 6.56986 24.5643C7.25185 23.4693 7.89683 22.3473 8.49882 21.2063C9.15981 21.3173 9.83679 21.3643 10.5058 21.3573C10.4508 21.6433 10.3858 21.9273 10.3098 22.2093ZM13.0747 21.8323C13.0447 21.8363 12.8937 21.8553 12.5287 21.9013C12.3807 21.9203 12.4187 21.9153 12.5237 21.9023C11.9697 21.9723 11.4138 22.0123 10.8658 22.0233C10.9208 21.7973 10.9718 21.5703 11.0128 21.3413C12.9267 21.2453 14.8327 20.6853 16.4847 19.6954C16.6187 20.1013 16.7367 20.5243 16.8486 20.9503C15.4817 21.3373 14.0207 21.7113 12.5327 21.9003C12.7007 21.8793 13.0227 21.8383 13.0747 21.8323ZM18.4376 34.502L18.4266 33.7461L20.2426 33.5721C20.4026 33.8321 20.5376 34.192 20.5606 34.502H18.4376ZM21.5165 33.2621C21.8895 33.5421 22.1035 34.0281 22.0765 34.502H21.0656C21.0626 34.1871 20.9846 33.8701 20.8406 33.5821C21.0866 33.5131 21.3536 33.3991 21.5165 33.2621ZM21.3676 20.5323C21.3466 20.6513 21.3526 20.6193 21.3666 20.5343C20.6826 24.5043 20.5416 28.4962 21.1316 32.4901L21.1226 32.4851L21.1846 32.8691C21.0686 32.9301 20.8096 33.0041 20.5766 33.0401C20.2806 30.0531 20.0126 27.0352 20.1706 24.0303C20.3246 21.0923 20.8986 18.2374 21.7475 15.4274C21.9565 17.1374 21.6575 18.8514 21.3676 20.5323ZM21.8435 13.5005L21.8415 13.4905L21.5765 14.3195C20.6246 17.2934 19.8426 20.3933 19.7016 23.5303C19.5576 26.7222 19.7706 29.8861 20.0846 33.0621C19.9976 33.0761 19.9106 33.0921 19.8246 33.1111L18.4246 33.2451L18.4166 33.0781C18.2256 29.1412 18.3706 25.1562 17.4446 21.2973L17.4516 21.2953L17.3916 21.0603C17.2346 20.4353 17.0516 19.8224 16.8486 19.2384L16.7456 18.9454L16.4867 19.1104C14.1217 20.6183 11.1598 21.1953 8.41082 20.6853L8.23383 20.6523L8.14983 20.8133C7.52384 22.0073 6.84386 23.1943 6.12787 24.3423C5.40689 25.4982 4.6339 26.6382 3.83292 27.7282L3.76892 27.8152L3.78792 27.9212C4.04292 29.3772 4.47491 30.5791 5.07989 31.8291L5.01989 31.7681L5.57088 32.7891C5.61288 32.8671 5.65088 32.9431 5.69388 33.0211L4.43891 33.1151L3.93792 32.1161L3.93892 32.1541C3.26693 30.8921 2.44695 29.4682 2.38795 27.9972C2.35395 27.1642 2.90094 26.5812 3.36993 25.9642C3.88192 25.2882 4.16791 24.5603 4.04892 23.6973C3.94092 22.9123 3.59492 22.1873 3.32293 21.4523C3.03894 20.6833 2.88894 19.8824 2.90594 19.0594C2.93794 17.4494 3.55993 15.8314 4.6719 14.6715L4.6949 14.6735C7.97583 14.9675 11.5028 15.2314 14.5787 13.7935C17.4706 12.4425 19.3746 9.75056 21.0316 7.10262C21.1456 7.14762 21.2666 7.18862 21.3856 7.22062C21.3106 8.45459 21.8785 9.60057 23.1115 9.92656C22.6015 11.2965 22.1975 12.4365 21.8435 13.5005ZM28.4114 10.3456C28.3944 10.3416 28.3974 10.3416 28.4114 10.3456V10.3456ZM28.7704 10.4355C28.8394 10.4535 28.8614 10.4585 28.7704 10.4355V10.4355ZM31.3293 9.61357C30.8414 9.70256 30.3374 9.67457 29.8544 9.56657C29.6004 9.51057 28.6904 9.01858 28.5134 9.22957C28.2224 9.57657 29.1894 9.86856 29.3934 9.93556C29.8814 10.0926 30.3864 10.1326 30.8954 10.1206C30.3164 10.5295 29.4584 10.6085 28.4504 10.3556C28.5274 10.3746 28.6724 10.4115 28.7604 10.4335C28.7024 10.4185 28.6074 10.3945 28.4504 10.3556C27.7184 10.1706 27.0154 9.87756 26.2765 9.71456C25.5185 9.54757 24.7525 9.60157 23.9845 9.55457C22.6555 9.47157 21.8185 8.70359 21.8735 7.31561C22.5115 7.39561 23.1695 7.29361 23.7765 7.08862L24.0425 6.99862L23.9195 6.74363C23.6305 6.14964 23.1545 5.60465 22.6335 5.20766C23.2575 4.37068 24.3665 3.92369 25.3685 4.27068L25.3725 4.27268C26.8014 4.76767 27.5794 6.32664 28.7834 7.16862C29.4524 7.63661 30.1734 7.64261 30.8964 7.9436C31.5713 8.2246 31.6403 9.01758 31.3293 9.61357Z" fill="black"/>
</svg>
