<svg width="36" height="35" viewBox="0 0 36 35" fill="none" xmlns="http://www.w3.org/2000/svg">
<path fill-rule="evenodd" clip-rule="evenodd" d="M35.9996 0L35.9966 0.631018C35.9926 1.89205 35.9726 3.25409 35.2485 4.34212C34.6785 5.19814 33.7655 5.74116 32.7255 5.63116C32.2575 5.86016 31.7724 5.91517 31.2604 5.84216C33.6895 6.88619 32.1954 10.2963 33.6245 11.9903C34.2245 12.3443 34.5565 12.5854 34.5705 12.5954L34.6255 12.6364L34.6545 12.6984C34.9865 13.4144 34.5685 14.2574 33.9255 14.6294C33.2355 15.0254 32.4195 14.9634 31.6724 14.8074L31.6234 14.8094C31.1234 14.8094 30.6044 14.6304 30.1054 14.5774C29.5184 14.5134 28.9294 14.4624 28.3433 14.3924C29.7784 20.5996 26.7583 26.9368 28.2553 33.1339C29.1084 33.4279 29.4564 33.8339 29.4014 34.751L29.3874 35H27.6583H27.1273H24.8532L24.7592 32.8499L24.8762 32.8459C24.4572 30.1668 24.3082 27.4168 24.4692 25.2227C23.6042 24.7137 22.8602 24.0107 22.3012 23.1756C21.1471 23.7067 19.7981 23.9097 18.4881 23.7537C17.9171 24.6457 17.189 25.4417 16.335 26.0697C15.457 26.7157 14.423 27.1318 13.5899 27.8418C12.0109 29.1878 11.9379 31.4149 11.9929 33.3379C12.0179 33.3459 12.0409 33.3549 12.0669 33.3629L12.1209 33.3849C12.5879 33.6499 12.5309 34.706 12.5289 34.751L12.5129 35H10.7879H10.2578H8.07278L7.97977 32.8669C7.73977 31.7259 7.55676 30.5499 7.67977 29.3818C7.80977 28.1498 8.38179 27.1718 8.9428 26.0997C9.52682 24.9867 9.63582 23.9187 9.23281 22.7196C8.8488 21.5756 8.20678 20.5416 7.77377 19.4175C6.91575 20.9286 5.89272 23.0856 4.01066 23.4487C1.93461 23.8497 1.07758 21.6816 0.995579 19.9976C0.253559 19.5795 -0.195454 18.6245 0.083554 17.7945C0.28956 17.1825 1.46059 16.1795 0.948578 15.4844L0.409563 14.7554L1.25559 15.0764C1.8016 15.2864 2.28362 15.7384 2.59662 16.2235C3.34364 17.3825 3.29264 18.8075 2.27962 19.7726C2.55462 20.6226 3.40065 21.4586 4.36567 21.1306C5.1827 20.8526 5.51471 19.8846 5.80571 19.1575L5.90172 18.9195C6.36373 17.7895 7.01375 16.7415 7.83677 15.8034C8.7628 14.2604 10.7519 13.6884 12.4339 13.5824C14.482 13.4514 16.775 13.8404 18.6041 12.6734C20.2251 11.6393 21.0911 9.78227 22.1902 8.27123C23.1132 7.0042 24.3092 5.85716 25.8053 5.31915C25.8113 4.52413 26.0683 3.7211 26.8173 3.33809C27.5873 2.94408 28.4743 3.08709 29.2844 3.25009C30.3054 3.4601 31.1784 3.4861 32.0604 2.85608C32.8985 2.25906 33.4765 1.37804 34.2065 0.666019L34.6575 0.227006L34.6555 0.858024C34.6555 1.03703 34.6535 1.22303 34.6505 1.41004C34.9415 1.07903 35.2315 0.746021 35.5475 0.439012L35.9996 0ZM2.52162 17.4385C2.39662 16.8295 2.07161 16.2755 1.5846 15.8884C1.5576 16.7365 0.838575 17.2155 0.585568 17.9645C0.602569 17.9135 0.610569 17.8895 0.585568 17.9645C0.443564 18.3875 0.543567 18.0885 0.585568 17.9645C0.346561 18.6745 0.875576 19.5095 1.5836 19.6735C2.33962 19.0905 2.72163 18.4045 2.52162 17.4385ZM7.36976 17.2805C6.98175 17.8625 6.65474 18.4785 6.39273 19.1215L6.29773 19.3565C5.92872 20.2786 5.4717 21.4136 4.39967 21.6736C3.27964 21.9446 2.24061 21.1506 1.8446 20.1426C1.8316 20.1526 1.8186 20.1606 1.8066 20.1706L1.7236 20.2306L1.6226 20.2186C1.5946 20.2166 1.5666 20.2116 1.53759 20.2076C1.6246 21.4066 2.16761 23.0376 3.64365 22.9566C4.97669 22.8836 5.78071 21.6606 6.42073 20.6386C6.30973 20.8166 6.17172 21.0366 6.42773 20.6276C6.57474 20.3926 6.51473 20.4876 6.43273 20.6186C6.78074 20.0626 7.18175 19.4085 7.54376 18.7385C7.41376 18.2675 7.33776 17.7695 7.36976 17.2805ZM31.7764 14.2864C32.0014 14.3334 32.2205 14.3694 32.4495 14.3854C32.0174 14.0934 31.6964 13.6534 31.5714 13.1434C31.5364 13.0004 31.4494 12.0133 31.8544 12.3763C31.9944 12.5033 31.9264 12.8644 31.9654 13.0384C32.0144 13.2564 32.1024 13.4654 32.2314 13.6464C32.4765 13.9914 32.8825 14.1934 33.2755 14.3154C33.4535 14.2664 33.6195 14.2024 33.7565 14.1074C33.6905 14.1534 33.7225 14.1314 33.7565 14.1074C33.8285 14.0574 33.7935 14.0824 33.7575 14.1064C34.0975 13.8704 34.3445 13.3964 34.1995 12.9834C34.0775 12.8984 33.7705 12.6904 33.3185 12.4263C32.7475 12.1403 31.9464 11.9363 31.3564 12.2823C31.1244 12.9664 31.1804 13.8084 31.7764 14.2864ZM30.9724 14.1634C30.6244 13.5604 30.6004 12.6844 30.8794 12.0493C31.1384 11.4603 32.2825 11.5343 32.7895 11.6613C32.3585 10.7403 32.4025 9.70227 32.3045 8.71224C32.3065 8.73724 32.3075 8.74824 32.3035 8.70924C32.2245 7.91322 32.2895 8.57124 32.3035 8.70724C32.2035 7.71222 31.8614 6.46018 30.7344 6.22517C29.3264 5.93317 29.4074 7.71521 28.3923 8.19323C27.4293 8.64624 26.0233 7.77422 25.2143 8.54824C24.4522 9.27626 25.1763 10.6283 26.2093 10.2933L26.3773 10.7973C25.5933 11.0753 25.5633 12.1973 25.9813 12.7834C26.3923 13.3604 27.0963 13.6444 27.7683 13.7754L27.9253 13.8054C27.9293 13.8064 27.9353 13.8084 27.9403 13.8084L28.0453 13.8194C29.0174 13.9554 30.0074 13.9824 30.9724 14.1634ZM27.6753 34.469H28.8784C28.8594 33.6939 27.9893 33.5339 27.3413 33.4679C27.5823 33.7259 27.6613 34.126 27.6753 34.469ZM27.6683 32.9709C27.0213 29.9958 27.3973 26.8007 27.7633 23.7057C27.6723 24.4747 27.5833 25.2207 27.7653 23.6867C28.1343 20.5686 28.5143 17.3495 27.8203 14.4324C27.5343 15.0194 27.2393 15.6194 27.1383 16.2715C27.0123 17.0845 27.2973 17.8495 27.5093 18.6225C27.9823 20.3436 27.5703 22.0516 27.3333 23.7747C26.9213 26.7777 26.6733 29.9108 27.1883 32.9169C27.3443 32.9229 27.5143 32.9419 27.6683 32.9709ZM25.3603 34.469H27.1413C27.1313 34.276 27.1043 33.9189 26.9163 33.7999C26.4073 33.5699 25.8743 33.4069 25.3133 33.3859L25.3603 34.469ZM10.8139 34.469H12.0019C11.9879 34.17 11.9229 33.9279 11.8659 33.8569L11.7929 33.8309C11.7679 33.8219 11.7409 33.8139 11.7159 33.8049L11.4829 33.7249C11.1829 33.6209 10.8769 33.5149 10.5608 33.4729C10.7969 33.7359 10.8179 34.1319 10.8139 34.469ZM10.4788 32.9289C10.8129 32.9569 11.1399 33.0459 11.4569 33.1539C11.4229 31.6859 11.4769 30.1208 12.1679 28.7898C12.9419 27.3008 14.431 26.7117 15.753 25.8297C15.698 25.8667 15.68 25.8787 15.757 25.8267C16.372 25.4157 15.92 25.7177 15.758 25.8257C16.593 25.2667 17.334 24.5257 17.9181 23.6687C17.475 23.5807 17.026 23.4507 16.609 23.2776C15.702 25.2487 13.4269 25.9577 11.9689 27.4068C10.5218 28.8448 10.3438 30.9939 10.4788 32.9289ZM8.57979 34.469H10.2808C10.2828 34.288 10.3138 33.9329 10.1428 33.8059C9.61182 33.6409 9.0928 33.4239 8.53179 33.3869L8.57979 34.469ZM22.6282 8.57224C21.8562 9.63027 21.2181 10.7863 20.3701 11.7883C19.3991 12.9364 18.1841 13.6754 16.697 13.9234C14.1069 14.3574 10.7799 13.4354 8.71079 15.5344C6.31873 17.9605 9.83383 21.2736 10.0228 23.8867C10.1458 25.5827 8.9688 26.7587 8.45779 28.2688C7.95677 29.7498 8.19678 31.3549 8.51579 32.8469C9.0148 32.8709 9.49482 33.0299 9.96483 33.1879C9.96383 33.1829 9.96383 33.1769 9.96383 33.1709L9.94383 32.9219H9.94783C9.81083 30.8859 10.0268 28.6518 11.5109 27.1148C12.9469 25.6277 15.453 24.8977 16.22 22.8326L16.32 22.5626L16.58 22.6846C18.3481 23.5097 20.5371 23.4757 22.2782 22.5976L22.4942 22.4876L22.6222 22.6946C23.1762 23.5897 23.9552 24.3327 24.8752 24.8427L25.0243 24.9257L25.0102 25.0967C24.8302 27.3018 24.9763 30.1158 25.4113 32.8529C25.8393 32.8759 26.2783 32.9799 26.6803 33.1279L26.6423 32.9239H26.6523C26.1273 29.7678 26.4073 26.4797 26.8613 23.3317C26.9963 22.3976 27.1883 21.4646 27.2133 20.5176C27.2373 19.6395 27.0163 18.8555 26.7863 18.0195C26.3983 16.6155 26.7183 15.4844 27.3333 14.2204C25.9153 13.8414 24.4372 12.3203 25.5203 10.8133C23.8252 10.3573 24.1132 7.95522 25.7853 7.74122C26.5503 7.64321 27.5553 8.09123 28.2533 7.66521C28.9094 7.2662 28.9114 6.29918 29.5954 5.88316C29.1824 5.74016 28.7564 5.63216 28.3233 5.57616C27.6163 5.91717 27.9093 7.0002 27.1003 7.1852C26.2893 7.3452 25.8893 6.55418 25.8273 5.87516C24.5062 6.39818 23.4542 7.43921 22.6282 8.57224ZM31.2134 3.85511C29.9634 4.18912 28.7574 3.4211 27.5123 3.6591C26.3563 3.87911 26.1323 5.20615 26.4193 6.19917C26.4893 6.44118 26.6863 6.72619 26.9783 6.67419C27.1803 6.63919 27.2203 6.35518 27.2583 6.19617C27.3863 5.66616 27.6613 5.27515 28.1723 5.05714L28.2373 5.03014L28.2503 5.03114C28.9814 4.75513 29.7194 4.90914 30.4434 5.11214C30.3924 5.09814 30.3684 5.09114 30.4454 5.11314C31.5894 5.43515 32.6145 5.43315 33.3815 4.39712C33.9885 3.5771 34.0945 2.51807 34.1185 1.52904C33.2885 2.45407 32.4705 3.5191 31.2134 3.85511ZM34.6125 2.24706C34.5285 3.26809 34.2465 4.30312 33.5165 5.05614C34.1995 4.86314 34.8145 4.24712 35.1275 3.4211C35.3815 2.75208 35.4435 2.02506 35.4605 1.29904C35.1755 1.61305 34.9025 1.93805 34.6125 2.24706ZM15.757 25.8267C15.756 25.8277 15.754 25.8287 15.753 25.8297C15.754 25.8287 15.757 25.8267 15.758 25.8257C15.758 25.8267 15.758 25.8267 15.757 25.8267ZM31.3044 8.30123C32.1835 8.30123 32.1835 9.67027 31.3044 9.67027C30.4254 9.67027 30.4254 8.30123 31.3044 8.30123ZM32.3035 8.70924C32.3045 8.71024 32.3045 8.71124 32.3045 8.71224C32.3045 8.71124 32.3035 8.70924 32.3035 8.70724C32.3035 8.70824 32.3035 8.70924 32.3035 8.70924ZM33.7895 13.0514C34.3945 13.0754 33.9325 13.8924 33.6095 13.8744C33.2425 13.8534 33.2765 13.0294 33.7895 13.0514ZM33.7895 13.0514C33.2175 13.0274 34.3375 13.0734 33.7895 13.0514V13.0514ZM33.7565 14.1074C33.7565 14.1074 33.7575 14.1074 33.7575 14.1064C33.7575 14.1064 33.7575 14.1074 33.7565 14.1074ZM6.42773 20.6276C6.42573 20.6316 6.42273 20.6346 6.42073 20.6386C6.42473 20.6316 6.42873 20.6256 6.43273 20.6186C6.43073 20.6216 6.42873 20.6256 6.42773 20.6276Z" fill="black"/>
</svg>
