<svg width="56" height="52" viewBox="0 0 56 52" fill="none" xmlns="http://www.w3.org/2000/svg">
<path d="M48.5202 28.5748C48.5202 36.6021 43.8956 43.5184 37.2064 46.7277C34.4077 45.9495 32.5123 44.7176 31.8164 43.1293C31.0198 41.3045 32.1306 39.6394 32.8648 38.8161L34.7471 36.6851H31.9292C27.5553 36.6851 24.6942 38.6635 21.6567 40.7556C20.0947 41.8339 18.3877 43.0146 16.2607 44.0673C11.8677 40.3859 9.06895 34.8152 9.06895 28.5748C9.06895 20.0948 14.2465 12.8468 21.5631 9.91192C19.2729 12.4515 17.8791 15.8267 17.8791 19.547C17.8791 27.433 24.1735 33.827 31.9292 33.827C39.6849 33.827 45.9793 27.434 45.9793 19.547C45.9793 19.2531 45.9732 18.9664 45.9481 18.6796C47.5856 21.5961 48.5212 24.9774 48.5212 28.5758L48.5202 28.5748Z" fill="white"/>
<path d="M55.9989 48.0817C31.9282 51.6894 27.2039 43.2965 31.9282 37.9592C22.113 37.9592 20.9991 48.6357 0 48.6357C0 48.6357 7.10612 49.6997 20.3102 48.0828C21.4513 47.9425 25.4696 47.2789 24.9772 48.0828C24.3407 49.1211 19.3807 50.4954 19.144 50.9009C17.8811 53.0575 46.6138 51.9997 56 48.0828L55.9989 48.0817Z" fill="#983809"/>
<path d="M34.2999 11.5678L35.9284 12.0142L34.2999 12.4597L33.8618 14.1156L33.4227 12.4597L31.7943 12.0142L33.4227 11.5678L33.8618 9.91192L34.2999 11.5678Z" fill="#CC925D"/>
<path d="M25.2632 20.9797L26.083 21.2039L25.2632 21.4282L25.0426 22.2617L24.8221 21.4282L24.0023 21.2039L24.8221 20.9797L25.0426 20.1461L25.2632 20.9797Z" fill="#CC925D"/>
<path d="M44.8755 4.72802L45.6943 4.95228L44.8755 5.17654L44.6539 6.0101L44.4334 5.17654L43.6146 4.95228L44.4334 4.72802L44.6539 3.89446L44.8755 4.72802Z" fill="#CC925D"/>
<path d="M7.71339 13.8377L8.27334 13.9902L7.71339 14.1438L7.56333 14.7122L7.41227 14.1438L6.85333 13.9902L7.41227 13.8377L7.56333 13.2683L7.71339 13.8377Z" fill="#CC925D"/>
<path d="M30.3491 0.568335L30.908 0.721938L30.3491 0.874518L30.198 1.44285L30.048 0.874518L29.489 0.721938L30.048 0.568335L30.198 0L30.3491 0.568335Z" fill="#CC925D"/>
<path d="M38.5922 21.8639L39.1522 22.0165L38.5922 22.1701L38.4421 22.7384L38.2911 22.1701L37.7321 22.0165L38.2911 21.8639L38.4421 21.2945L38.5922 21.8639Z" fill="#CC925D"/>
<path d="M54.7995 9.75762L55.3584 9.91122L54.7995 10.0638L54.6494 10.6332L54.4984 10.0638L53.9394 9.91122L54.4984 9.75762L54.6494 9.18928L54.7995 9.75762Z" fill="#CC925D"/>
<path d="M53.5849 21.0038L54.6494 21.2947L53.5849 21.5865L53.2989 22.6679L53.0129 21.5865L51.9484 21.2947L53.0129 21.0038L53.2989 19.9225L53.5849 21.0038Z" fill="#CC925D"/>
<path d="M18.574 3.28836L19.6385 3.57918L18.574 3.87103L18.288 4.9524L18.0009 3.87103L16.9374 3.57918L18.0009 3.28836L18.288 2.20699L18.574 3.28836Z" fill="#CC925D"/>
</svg>
