<svg width="37" height="26" viewBox="0 0 37 26" fill="none" xmlns="http://www.w3.org/2000/svg">
<path fill-rule="evenodd" clip-rule="evenodd" d="M36.987 17.117C36.497 19.571 32.943 21.388 30.835 22.263C28.031 25.321 23.48 25.933 20.707 25.994C20.534 25.998 20.37 26 20.216 26C20.214 26 20.211 26 20.211 26H20.21C19.501 26 19.031 25.964 18.911 25.954C18.893 25.952 18.883 25.952 18.881 25.951L18.738 25.938L18.685 25.806C16.733 20.969 21.19 18.324 21.594 18.097C22.339 17.403 23.017 16.706 23.618 16.02C22.504 13.517 24.686 11.54 24.709 11.52L25.027 11.239L25.098 11.654C25.162 12.03 25.379 12.53 25.714 13.106C27.857 9.214 26.12 7.249 25.816 6.949C25.397 7.19 24.646 7.516 23.629 7.516C22.226 7.516 20.792 6.902 19.368 5.691L19.228 5.573L19.311 5.41C19.348 5.34 20.216 3.696 22.103 3.696C22.449 3.696 22.808 3.753 23.176 3.866C22.823 3.054 22.409 1.501 23.517 0.094L23.588 0.005L23.72 0C24.036 0 25.746 0.904 26.576 2.406C27.176 3.492 27.194 4.676 26.657 5.871C32.153 7.333 33.037 13.07 33.173 15.136C36.252 15.221 36.948 16.916 36.976 16.989L37 17.052L36.987 17.117ZM18.97 21.698C19.045 21.647 19.131 21.595 19.228 21.549C19.564 21.386 19.94 21.295 20.317 21.295C20.513 21.295 20.714 21.3 20.896 21.364C21.122 21.444 21.003 21.813 20.794 21.774C20.334 21.687 19.839 21.715 19.422 21.924C19.154 22.059 18.925 22.266 18.745 22.506C18.583 23.367 18.637 24.364 19.069 25.5C19.27 25.514 19.672 25.535 20.21 25.535C20.346 25.535 20.492 25.534 20.643 25.53C21.717 25.507 23.311 25.386 24.988 24.965C25.166 24.447 25.79 22.309 24.692 20.573L24.571 20.397C24.497 20.29 24.422 20.189 24.346 20.094C24.329 20.072 24.311 20.053 24.294 20.032C24.233 19.958 24.172 19.886 24.109 19.819C24.095 19.803 24.08 19.788 24.066 19.773C23.998 19.702 23.93 19.633 23.863 19.57C23.856 19.563 23.849 19.557 23.841 19.55C22.931 18.711 22.022 18.551 21.786 18.523C21.424 18.727 19.686 19.789 18.97 21.698ZM24.743 12.156C24.255 12.716 23.365 14.026 23.955 15.623C24.013 15.554 24.071 15.485 24.126 15.417C24.183 15.348 24.24 15.278 24.295 15.209C24.404 15.071 24.508 14.935 24.61 14.798C24.651 14.743 24.695 14.687 24.736 14.631C24.874 14.441 25.006 14.253 25.131 14.066C25.152 14.035 25.17 14.004 25.191 13.972C25.279 13.838 25.362 13.705 25.442 13.573C25.112 13.038 24.877 12.563 24.743 12.156ZM26.759 11.974C26.685 12.171 25.938 13.479 25.993 13.566C25.995 13.568 25.922 13.69 25.922 13.69C25.44 14.504 24.817 15.354 24.07 16.217L23.836 16.486C23.343 17.027 22.815 17.581 22.235 18.135C22.354 18.022 23.249 18.538 23.362 18.605C23.916 18.934 24.308 19.378 24.749 19.83C24.749 19.83 25.363 18.922 25.563 18.577C25.815 18.142 26.055 17.701 26.277 17.25C26.729 16.333 27.11 15.379 27.369 14.39C27.892 12.396 27.88 10.282 27.093 8.358C27.279 9.072 27.278 9.822 27.156 10.546C27.073 11.033 26.935 11.511 26.759 11.974ZM26.315 2.938C25.708 1.54 24.243 0.676 23.801 0.496C22.574 2.207 23.809 4.093 23.863 4.174L24.321 4.858L23.568 4.514C23.055 4.279 22.563 4.161 22.103 4.161C20.82 4.161 20.075 5.089 19.826 5.465C21.112 6.518 22.39 7.051 23.629 7.051C24.895 7.051 25.716 6.473 25.865 6.36C26.633 5.169 26.784 4.018 26.315 2.938ZM32.715 15.371C32.629 13.6 31.928 7.751 26.535 6.315L26.474 6.399C28.044 8.437 28.488 11.072 28.036 13.56C27.811 14.803 27.385 16.002 26.846 17.145C26.571 17.729 26.265 18.3 25.94 18.859C25.858 19.001 25.009 20.204 25.051 20.268C25.064 20.288 25.077 20.304 25.089 20.324C26.158 22.009 25.779 23.96 25.53 24.816C27.327 24.296 29.166 23.414 30.524 21.913C31.949 20.338 32.69 18.265 32.725 15.751C32.725 15.748 32.727 15.609 32.715 15.371ZM33.194 15.597C33.195 15.606 33.195 15.609 33.195 15.618C33.196 15.657 33.196 15.688 33.196 15.71C33.196 15.741 33.196 15.756 33.196 15.756C33.179 16.963 33.004 18.168 32.593 19.308C32.44 19.732 32.258 20.145 32.049 20.543C31.939 20.751 31.709 21.366 31.481 21.471C33.294 20.631 36.061 19.053 36.509 17.098C36.37 16.824 35.641 15.672 33.194 15.597ZM22.484 24.665C22.101 24.665 21.79 24.358 21.79 23.98C21.79 23.601 22.101 23.294 22.484 23.294C22.868 23.294 23.179 23.601 23.179 23.98C23.179 24.358 22.868 24.665 22.484 24.665ZM15.405 7.903C14.661 8.596 13.983 9.293 13.382 9.979C14.495 12.482 12.314 14.459 12.291 14.479L11.973 14.76L11.901 14.345C11.837 13.969 11.62 13.469 11.285 12.893C9.142 16.785 10.879 18.751 11.183 19.051C11.603 18.81 12.353 18.484 13.371 18.484C14.773 18.484 16.207 19.097 17.632 20.308L17.772 20.427L17.688 20.589C17.652 20.659 16.783 22.304 14.896 22.304C14.551 22.304 14.192 22.247 13.824 22.134C14.177 22.946 14.591 24.499 13.482 25.905L13.412 25.994L13.279 26C12.963 26 11.254 25.096 10.423 23.593C9.824 22.507 9.805 21.323 10.342 20.129C4.846 18.666 3.963 12.93 3.826 10.863C0.748 10.779 0.052 9.084 0.023 9.01L0 8.948L0.013 8.882C0.502 6.428 4.056 4.611 6.165 3.736C9.142 0.488 14.094 0 16.789 0C17.6 0 18.098 0.046 18.119 0.048L18.262 0.062L18.315 0.193C20.267 5.033 15.806 7.678 15.405 7.903ZM12.257 13.843C12.744 13.283 13.634 11.974 13.044 10.377C12.987 10.445 12.929 10.514 12.873 10.582C12.817 10.651 12.76 10.721 12.706 10.789C12.595 10.929 12.489 11.068 12.386 11.206C12.346 11.26 12.304 11.313 12.265 11.366C12.126 11.557 11.992 11.747 11.867 11.935C11.85 11.961 11.835 11.987 11.818 12.013C11.726 12.152 11.64 12.29 11.557 12.427C11.888 12.962 12.122 13.436 12.257 13.843ZM11.006 12.433C11.005 12.431 11.077 12.309 11.077 12.309C11.56 11.495 12.183 10.645 12.93 9.783L13.163 9.513C13.657 8.972 14.185 8.418 14.764 7.864C14.169 7.717 13.137 7.3 12.237 6.138C12.269 6.179 11.531 7.259 11.465 7.373C11.199 7.83 10.947 8.295 10.714 8.769C10.261 9.695 9.88 10.658 9.623 11.655C9.121 13.601 9.086 15.775 9.907 17.645C9.607 16.488 9.66 14.76 11.006 12.433ZM10.685 23.062C11.292 24.459 12.756 25.323 13.198 25.503C14.429 23.784 13.15 21.845 13.137 21.825L12.674 21.14L13.432 21.486C13.944 21.72 14.437 21.839 14.896 21.839C16.191 21.839 16.928 20.914 17.175 20.535C15.888 19.482 14.609 18.949 13.371 18.949C12.104 18.949 11.284 19.526 11.135 19.639C10.367 20.83 10.215 21.982 10.685 23.062ZM0.49 8.901C0.629 9.175 1.358 10.327 3.805 10.403C3.805 10.394 3.805 10.39 3.805 10.383C3.804 10.343 3.803 10.312 3.803 10.289C3.803 10.259 3.803 10.244 3.803 10.244C3.819 9.14 3.97 8.047 4.31 6.994C4.464 6.516 4.653 6.05 4.875 5.599C4.992 5.362 5.274 4.641 5.519 4.528C3.705 5.369 0.938 6.946 0.49 8.901ZM6.475 4.086C5.05 5.662 4.31 7.735 4.274 10.249C4.274 10.251 4.273 10.39 4.285 10.627C4.37 12.4 5.072 18.249 10.464 19.684L10.526 19.601C10.481 19.542 10.442 19.483 10.399 19.424C10.34 19.344 10.281 19.264 10.226 19.184C8.883 17.218 8.543 14.766 8.959 12.462C9.367 10.201 10.414 8.024 11.686 6.115C11.704 6.089 11.72 6.065 11.737 6.04C11.781 5.975 11.826 5.908 11.868 5.846C11.896 5.806 11.922 5.77 11.949 5.732C11.936 5.712 11.923 5.696 11.91 5.676C10.842 3.99 11.22 2.04 11.47 1.184C9.672 1.703 7.833 2.585 6.475 4.086ZM18.015 4.339C18.02 4.327 18.025 4.314 18.03 4.302C17.955 4.353 17.869 4.404 17.772 4.451C17.435 4.613 17.06 4.704 16.682 4.704C16.487 4.704 16.286 4.7 16.103 4.635C15.878 4.556 15.997 4.186 16.206 4.226C16.666 4.313 17.161 4.284 17.577 4.075C18.275 3.724 18.346 3.21 18.333 2.492C18.319 1.811 18.173 1.136 17.93 0.499C17.729 0.486 17.328 0.464 16.789 0.464C15.743 0.464 13.932 0.552 12.011 1.035C11.172 3.481 11.987 6.325 14.579 7.323C15.239 7.577 15.464 7.354 15.972 6.969C16.272 6.741 16.553 6.491 16.811 6.218C17.324 5.672 17.747 5.037 18.015 4.339ZM14.515 2.705C14.131 2.705 13.82 2.398 13.82 2.02C13.82 1.641 14.131 1.334 14.515 1.334C14.899 1.334 15.21 1.641 15.21 2.02C15.21 2.398 14.899 2.705 14.515 2.705Z" fill="black"/>
</svg>
