<svg width="30" height="30" viewBox="0 0 30 30" fill="none" xmlns="http://www.w3.org/2000/svg">
<path d="M15 0C6.71635 0 0 6.71635 0 15C0 23.2837 6.71635 30 15 30C23.2836 30 30 23.2837 30 15C30 6.71635 23.2836 0 15 0ZM24.7415 24.7415C22.1402 27.3428 18.6796 28.7774 15 28.7774C11.3204 28.7774 7.8598 27.3451 5.2585 24.7415C2.6572 22.1402 1.22264 18.6796 1.22264 15C1.22264 11.3204 2.65487 7.8598 5.2585 5.2585C7.8598 2.6572 11.3204 1.22264 15 1.22264C18.6796 1.22264 22.1402 2.65487 24.7415 5.2585C27.3428 7.8598 28.7774 11.3204 28.7774 15C28.7774 18.6796 27.3451 22.1402 24.7415 24.7415Z" fill="#983809"/>
<path d="M18.3112 22.5H11.6888C9.38013 22.5 7.5 20.6219 7.5 18.3112V11.6888C7.5 9.38013 9.37807 7.5 11.6888 7.5H18.3112C20.6199 7.5 22.5 9.37808 22.5 11.6888V18.3112C22.5 20.6199 20.6219 22.5 18.3112 22.5ZM11.6888 8.71788C10.0485 8.71788 8.71583 10.0526 8.71583 11.6908V18.3133C8.71583 19.9535 10.0506 21.2862 11.6888 21.2862H18.3112C19.9515 21.2862 21.2842 19.9515 21.2842 18.3133V11.6908C21.2842 10.0506 19.9494 8.71788 18.3112 8.71788H11.6888Z" fill="#983809"/>
<path d="M15 18.9483C12.8246 18.9483 11.0532 17.1789 11.0532 15.0015C11.0532 12.8241 12.8226 11.0547 15 11.0547C17.1774 11.0547 18.9468 12.8241 18.9468 15.0015C18.9468 17.1789 17.1774 18.9483 15 18.9483ZM15 12.2685C13.493 12.2685 12.269 13.4945 12.269 14.9995C12.269 16.5044 13.4951 17.7305 15 17.7305C16.507 17.7305 17.731 16.5044 17.731 14.9995C17.731 13.4945 16.5049 12.2685 15 12.2685Z" fill="#983809"/>
<path d="M19.1109 11.5036C18.7726 11.5036 18.4958 11.2289 18.4958 10.8885C18.4958 10.5482 18.7705 10.2734 19.1109 10.2734C19.4512 10.2734 19.726 10.5482 19.726 10.8885C19.726 11.2289 19.4512 11.5036 19.1109 11.5036Z" fill="#983809"/>
</svg>
