<svg width="53" height="14" viewBox="0 0 53 14" fill="none" xmlns="http://www.w3.org/2000/svg">
<mask id="mask0_1_142" style="mask-type:luminance" maskUnits="userSpaceOnUse" x="0" y="0" width="53" height="14">
<path d="M53 0H0V14H53V0Z" fill="white"/>
</mask>
<g mask="url(#mask0_1_142)">
<path d="M6.84537 3.71603C6.61782 5.13518 5.48762 5.13518 4.39382 5.13518H3.77032L4.20723 2.48799C4.2199 2.41039 4.26111 2.33969 4.32343 2.28865C4.38575 2.23761 4.46506 2.2096 4.54705 2.20968H4.83225C5.57788 2.20968 6.28103 2.20968 6.64437 2.61661C6.75979 2.77462 6.83761 2.95497 6.87234 3.14493C6.90707 3.33489 6.89786 3.52985 6.84537 3.71603ZM6.37206 0.0151883H2.24113C2.10453 0.0151423 1.97239 0.0618172 1.86851 0.14681C1.76463 0.231802 1.69584 0.349528 1.67452 0.478793L0.00424704 10.6192C-0.00355558 10.6663 -0.000582124 10.7145 0.0129616 10.7604C0.0265054 10.8063 0.050296 10.8488 0.082687 10.885C0.115078 10.9212 0.155296 10.9503 0.200558 10.9701C0.245819 10.99 0.295044 11.0002 0.344824 11H2.31699C2.45371 11 2.58593 10.9532 2.68983 10.8681C2.79372 10.783 2.86245 10.6651 2.8836 10.5357L3.33417 7.80055C3.35516 7.67121 3.42373 7.55332 3.5275 7.46817C3.63127 7.38302 3.76339 7.33622 3.90003 7.33621H5.2062C7.92551 7.33621 9.4949 6.07547 9.9045 3.57797C10.0186 3.14196 10.0306 2.68716 9.93961 2.24619C9.8486 1.80521 9.65684 1.38901 9.37809 1.02742C8.98224 0.661872 8.50888 0.382264 7.99017 0.2076C7.47147 0.0329365 6.91959 -0.032688 6.37206 0.0151883Z" fill="white"/>
<path d="M15.8051 8.03122C15.7264 8.56152 15.4491 9.04555 15.0256 9.39161C14.6021 9.73768 14.0619 9.92175 13.5072 9.90895C13.2525 9.93464 12.9951 9.90005 12.7572 9.80818C12.5194 9.71631 12.3083 9.56991 12.1422 9.38164C11.9761 9.19336 11.8599 8.96886 11.8037 8.72754C11.7476 8.48621 11.7531 8.23531 11.8198 7.9965C11.8974 7.46723 12.1718 6.98329 12.5917 6.635C13.0116 6.28671 13.5485 6.09786 14.102 6.10368C14.3554 6.0907 14.6085 6.13201 14.8434 6.22466C15.0782 6.3173 15.2889 6.45898 15.4604 6.63953C15.619 6.83345 15.732 7.05838 15.7915 7.29871C15.851 7.53903 15.8557 7.78899 15.8051 8.03122ZM18.6446 4.20331H16.6078C16.5233 4.20339 16.4417 4.23253 16.3775 4.28551C16.3133 4.33849 16.2708 4.41184 16.2576 4.49237L16.1677 5.04255L16.0255 4.84331C15.7163 4.53763 15.3387 4.30436 14.9217 4.16138C14.5047 4.01839 14.0594 3.96949 13.6198 4.01841C12.4964 4.04136 11.4191 4.45348 10.5842 5.17959C9.74928 5.90571 9.21251 6.89742 9.07178 7.97386C8.96496 8.50012 8.97749 9.04248 9.1085 9.56362C9.23951 10.0848 9.48589 10.5723 9.83069 10.9927C10.153 11.335 10.5511 11.6028 10.9953 11.776C11.4395 11.9493 11.9185 12.0236 12.3966 11.9935C12.9208 11.9985 13.4406 11.9013 13.925 11.7079C14.4094 11.5144 14.8484 11.2285 15.2158 10.8674L15.1251 11.4138C15.117 11.4627 15.1199 11.5127 15.1337 11.5603C15.1475 11.608 15.1719 11.6521 15.2051 11.6898C15.2383 11.7275 15.2796 11.7578 15.3261 11.7785C15.3726 11.7993 15.4232 11.81 15.4745 11.8101H17.3112C17.4521 11.8101 17.5883 11.7615 17.6954 11.6731C17.8024 11.5847 17.8732 11.4622 17.895 11.3278L18.9955 4.59576C19.0036 4.54701 19.0007 4.49714 18.987 4.44958C18.9732 4.40203 18.9489 4.35792 18.9157 4.32032C18.8826 4.28271 18.8414 4.25251 18.795 4.23179C18.7486 4.21106 18.698 4.20032 18.6469 4.20029" fill="white"/>
<path d="M29.6432 4H27.5633C27.4653 4.00012 27.3687 4.0224 27.2821 4.06492C27.1954 4.10743 27.1213 4.16889 27.0662 4.24394L24.1978 8.15283L22.982 4.39603C22.9447 4.28147 22.8684 4.1811 22.7646 4.10977C22.6607 4.03844 22.5348 3.99995 22.4055 4H20.3614C20.304 3.99987 20.2475 4.01241 20.1964 4.03658C20.1453 4.06075 20.1012 4.09585 20.0677 4.13896C20.0342 4.18208 20.0124 4.23196 20.0039 4.28447C19.9955 4.33698 20.0007 4.39059 20.0191 4.44085L22.3102 10.6605L20.1534 13.4739C20.115 13.5237 20.0921 13.5824 20.0874 13.6435C20.0827 13.7045 20.0963 13.7656 20.1267 13.82C20.157 13.8743 20.203 13.9199 20.2596 13.9517C20.3161 13.9834 20.381 14.0002 20.4472 14H22.5246C22.6217 14.0002 22.7174 13.9785 22.8034 13.9369C22.8894 13.8953 22.9633 13.835 23.0186 13.7612L29.9354 4.52314C29.973 4.47322 29.9951 4.41472 29.9993 4.35399C30.0035 4.29327 29.9896 4.23264 29.9591 4.17871C29.9286 4.12478 29.8828 4.07961 29.8265 4.0481C29.7703 4.01659 29.7058 3.99995 29.64 4" fill="white"/>
<path d="M35.8427 3.71855C35.6152 5.13821 34.4861 5.13821 33.3918 5.13821H32.7693L33.2068 2.48717C33.2193 2.4096 33.2604 2.33889 33.3225 2.28782C33.3847 2.23676 33.4639 2.20871 33.5458 2.20876H33.8309C34.5756 2.20876 35.2793 2.20876 35.6425 2.61583C35.7581 2.77435 35.836 2.95531 35.8704 3.14589C35.9049 3.33647 35.8952 3.53198 35.842 3.71855M35.3657 0.0113172H31.2382C31.1018 0.0114442 30.9699 0.0582139 30.8662 0.143221C30.7625 0.228228 30.6938 0.345898 30.6725 0.475085L29.0042 10.6191C28.9965 10.6661 28.9994 10.7141 29.0129 10.76C29.0263 10.8058 29.0499 10.8482 29.0822 10.8844C29.1144 10.9206 29.1544 10.9497 29.1995 10.9697C29.2445 10.9896 29.2936 11 29.3432 11H31.4612C31.5567 10.9999 31.6491 10.9671 31.7216 10.9075C31.7942 10.848 31.8422 10.7655 31.857 10.6751L32.331 7.79942C32.352 7.67004 32.4205 7.55211 32.5242 7.46693C32.628 7.38175 32.7601 7.33493 32.8967 7.33492H34.2025C36.9218 7.33492 38.49 6.07374 38.904 3.57535C39.0186 3.13883 39.0308 2.68338 38.9396 2.24181C38.8485 1.80025 38.6563 1.38355 38.377 1.02172C37.9801 0.656465 37.5058 0.377576 36.9862 0.204081C36.4667 0.0305874 35.9142 -0.0334273 35.3665 0.0164056" fill="#179BD7"/>
<path d="M45.7993 8.03122C45.7206 8.56153 45.4432 9.04556 45.0197 9.39163C44.5961 9.7377 44.0558 9.92177 43.5011 9.90897C43.2463 9.93466 42.9888 9.90007 42.7509 9.8082C42.513 9.71633 42.3019 9.56993 42.1358 9.38165C41.9696 9.19338 41.8534 8.96888 41.7973 8.72755C41.7411 8.48622 41.7466 8.23531 41.8133 7.9965C41.8911 7.46716 42.1657 6.98321 42.5858 6.63492C43.006 6.28664 43.543 6.09781 44.0967 6.10366C44.3501 6.09068 44.6033 6.132 44.8382 6.22464C45.0731 6.31728 45.2839 6.45896 45.4554 6.63951C45.6145 6.83317 45.7278 7.05809 45.7874 7.29851C45.8469 7.53892 45.8505 7.78901 45.7993 8.03122ZM48.6401 4.20327H46.6076C46.5232 4.20306 46.4414 4.23213 46.3773 4.28518C46.3132 4.33822 46.2709 4.41173 46.2582 4.49233L46.1683 5.04252L46.0252 4.84328C45.7161 4.53766 45.3386 4.30442 44.9217 4.16143C44.5047 4.01844 44.0594 3.96951 43.6199 4.01837C42.4964 4.04135 41.4189 4.4535 40.584 5.17963C39.7491 5.90576 39.2124 6.89748 39.0718 7.97386C38.965 8.50008 38.9775 9.04239 39.1084 9.56352C39.2392 10.0846 39.4855 10.5722 39.8301 10.9927C40.1525 11.335 40.5507 11.6027 40.995 11.7759C41.4393 11.9492 41.9183 12.0235 42.3965 11.9935C42.9207 11.9985 43.4407 11.9014 43.9252 11.7079C44.4097 11.5144 44.8487 11.2286 45.2162 10.8675L45.1255 11.4139C45.1174 11.4628 45.1205 11.5129 45.1344 11.5606C45.1484 11.6083 45.1729 11.6525 45.2063 11.6902C45.2396 11.7278 45.2811 11.7581 45.3277 11.7788C45.3744 11.7995 45.4251 11.8102 45.4764 11.8101H47.3112C47.4519 11.8099 47.588 11.7613 47.6949 11.6729C47.8018 11.5845 47.8725 11.4621 47.8943 11.3278L48.9958 4.59573C49.0037 4.54677 49.0005 4.49673 48.9864 4.44907C48.9724 4.40141 48.9478 4.35726 48.9143 4.31966C48.8809 4.28207 48.8394 4.25192 48.7927 4.23131C48.7461 4.21069 48.6953 4.2001 48.644 4.20025" fill="#179BD7"/>
<path d="M50.5849 0.279291L49.004 10.6189C48.9967 10.6659 48.9994 10.714 49.012 10.7598C49.0246 10.8056 49.0466 10.8481 49.0767 10.8844C49.1067 10.9206 49.1441 10.9497 49.1861 10.9696C49.2282 10.9896 49.2739 11 49.3203 11H50.9097C51.0373 11.0002 51.1607 10.9534 51.2577 10.8682C51.3547 10.7829 51.4187 10.6648 51.4383 10.5352L52.9952 0.386207C53.0032 0.33899 53.0011 0.29054 52.9891 0.244238C52.977 0.197937 52.9552 0.154898 52.9253 0.118126C52.8954 0.0813533 52.858 0.0517327 52.8158 0.0313306C52.7736 0.0109285 52.7276 0.000236311 52.681 0L50.904 0C50.8277 0.000244369 50.754 0.0284105 50.696 0.0794531C50.638 0.130496 50.5996 0.20108 50.5877 0.278564" fill="#179BD7"/>
</g>
</svg>
