<svg width="31" height="35" viewBox="0 0 31 35" fill="none" xmlns="http://www.w3.org/2000/svg">
<path fill-rule="evenodd" clip-rule="evenodd" d="M29.6845 12.8764C30.5515 11.4953 31.3136 9.49727 30.1005 8.07823C29.5655 7.45122 28.8715 6.8672 28.4525 6.14918C28.1065 5.55816 28.2645 4.82514 28.3645 4.18713L28.5005 3.3201L27.9285 3.98012C27.9195 3.98912 27.5315 4.44713 27.2475 5.12615L20.6853 10.7493C20.4673 10.0233 20.3623 9.19926 19.7772 8.66225C19.1942 8.12524 18.3812 8.09723 17.6652 7.87023L17.6602 7.86823C17.2732 7.74622 16.8842 7.54922 16.7362 7.13821C17.3682 6.9692 17.9882 6.69919 18.5822 6.31818L18.6992 6.24318L18.7002 6.10418C18.7002 5.98117 18.6852 5.00115 18.1972 4.57614C18.4062 3.93112 18.4222 3.2501 18.2522 2.59508C18.3682 2.54108 18.4782 2.48508 18.5782 2.42308L18.7602 2.31107L18.6822 2.11107C18.4082 1.40905 17.8172 0.77003 17.1782 0.40302C15.6791 -0.460004 13.9191 0.204014 12.583 1.07304L12.45 1.16004L12.469 1.31905C12.473 1.35205 12.8601 4.66314 11.099 5.26016L10.696 5.39616L11.008 5.68817C11.079 5.75417 12.719 7.25721 15.0871 7.33221C15.0151 7.71522 14.8501 8.08423 14.5871 8.37224C14.3701 8.60925 13.8731 8.58625 13.5871 8.65725C12.621 8.74325 11.924 9.49427 11.306 10.1733C10.596 10.9523 9.92597 11.7853 9.33495 12.6624C8.78494 13.4744 8.67893 14.6284 9.76096 15.0334C10.255 15.2174 10.814 15.2174 11.332 15.2554C12.26 15.3264 13.1891 15.3794 14.1181 15.4184C14.0971 15.9725 14.0321 16.5165 13.9121 17.0415C13.3911 17.3705 12.839 17.6805 12.226 17.7825C11.563 17.8925 10.877 17.8255 10.215 17.7405C9.00594 17.5865 7.75191 17.3625 6.58588 17.8645C5.65785 16.8285 3.61579 16.3665 2.35676 16.8885C1.30173 17.3245 0.466705 18.0615 0.133696 19.1985C-0.294316 20.6586 0.335701 22.2196 1.58974 23.0507C2.03775 23.3467 2.54976 23.7297 2.64477 24.3087C2.76177 25.0187 2.06375 25.3577 1.54173 24.8787L1.12472 24.4947L1.12272 25.0657C1.11872 26.1587 1.99675 26.8798 3.03278 26.8828H3.03678C3.7298 26.8828 4.38581 26.4787 4.76082 25.8967C5.24284 25.1477 5.11283 24.2797 4.76482 23.5047C4.41982 22.7376 3.8508 21.9736 3.8848 21.0916C3.9158 20.2946 4.41781 19.5596 5.15884 19.2835C4.71782 20.3046 4.83383 21.5416 4.97983 22.4396L5.01583 22.6626C5.17184 23.6117 5.36184 24.6247 5.10983 25.5737C4.85183 26.5427 3.9468 27.1668 3.8868 28.2098C3.8338 29.1148 4.19981 29.9708 4.10381 30.8839C4.0208 31.6629 3.9118 32.4379 3.8038 33.2129L3.64479 33.2189L3.64579 34.913L6.24687 35L6.15086 34.127C6.11486 33.7939 5.92586 33.5109 5.65085 33.3389C5.74385 31.9929 5.99186 30.6649 6.25187 29.3438C6.49787 28.0948 6.77388 26.9428 7.5479 25.9097C6.92588 27.1468 6.72388 28.2648 6.84488 29.6448L7.16989 33.3379L7.17089 34.913L9.77196 35L9.67596 34.127C9.63896 33.7959 9.45196 33.5139 9.17495 33.3409C8.64193 31.6489 8.40393 29.7298 8.99794 28.0208C9.75096 25.8547 12.085 24.7677 12.707 22.5326C12.8511 22.5136 12.9961 22.4946 13.1361 22.4656C12.9751 23.1727 13.4091 23.9317 13.9311 24.3697C14.6291 24.9577 15.5761 24.8097 16.4161 24.8667C15.9451 25.7737 15.2701 26.5677 14.4651 27.1958L12.9571 27.1978L12.8701 29.8358L13.7061 29.7408C14.1591 29.6898 14.5231 29.3598 14.6361 28.9188C15.9471 28.1998 17.1012 27.1858 17.9902 25.9737C18.4152 25.3957 18.9272 24.6917 19.0542 23.9677C19.2072 23.1007 18.5442 22.6606 17.8622 22.3586C17.9862 22.3406 18.1192 22.3256 18.2432 22.3126L20.1733 22.7626C20.6173 22.8656 21.0503 23.0247 21.0043 23.5707C20.9633 24.0437 20.6963 24.5037 20.4783 24.9147C19.9582 25.8937 19.2912 26.8048 18.4572 27.5318L17.1172 27.5328L17.0302 30.1729L17.8662 30.0778C18.2482 30.0338 18.5702 29.7818 18.7272 29.4328C19.5792 28.9088 20.3313 28.1208 21.0073 27.3828C22.0033 26.2947 22.7963 24.9697 23.3773 23.6107C23.9404 22.2936 23.8244 20.7146 22.2883 20.2046C20.9333 19.7546 18.8152 20.1516 18.5962 18.2105L18.5932 17.9935L18.5902 17.8115L18.5892 17.7705C18.5732 16.8405 18.6002 16.0045 18.6302 15.1974L27.1104 21.6766C27.3835 22.5606 27.9175 23.1947 27.9285 23.2067L28.5005 23.8667L28.3645 22.9987C28.2745 22.4216 28.1225 21.7406 28.3765 21.1836C28.6675 20.5426 29.2885 20.0326 29.7455 19.5166C30.3965 18.7815 30.8186 18.0505 30.7295 17.0275C30.6545 16.1585 30.2895 15.3304 29.8535 14.5874L30.9996 13.7904L29.6845 12.8764ZM14.1671 28.7218C14.1301 28.9938 13.9181 29.2048 13.6501 29.2348L13.3921 29.2638L13.4421 27.7058L14.1421 27.7048L14.1731 28.6198C14.1741 28.6548 14.1711 28.6888 14.1671 28.7218ZM18.3022 29.1688L18.3012 29.1698C18.2282 29.3888 18.0352 29.5458 17.8102 29.5718L17.5512 29.6008L17.6032 28.0428L18.3022 28.0418L18.3332 28.9568C18.3362 29.0268 18.3252 29.0988 18.3022 29.1688ZM27.7495 5.20415C27.7225 6.15618 28.0365 6.54119 28.8735 7.45822C29.2715 7.89323 29.7655 8.33324 30.0225 8.87426C30.2705 9.39827 30.2725 9.99829 30.1535 10.5573C29.9285 11.6123 29.3365 12.5994 28.6755 13.4334L28.5535 13.5884H27.4505V13.3604C27.4955 13.3194 27.5395 13.2764 27.5835 13.2354C28.8425 12.4214 29.2285 10.6193 28.7615 9.24927C28.4895 8.45324 27.7955 7.91923 27.5485 7.13021C27.3485 6.48719 27.4735 5.80217 27.7495 5.20415ZM29.5025 13.5884C29.4915 13.4774 29.4655 13.3684 29.4305 13.2614C29.5055 13.1524 29.5865 13.0324 29.6715 12.8974V13.5884H29.5025ZM29.6715 14.0034V14.2894C29.6075 14.1894 29.5455 14.0944 29.4835 14.0034H29.6715ZM27.0364 14.1344C27.2024 14.2794 27.3565 14.4354 27.5035 14.6004C25.2234 14.9004 22.8443 14.9654 20.6933 14.0034H26.9484V14.0584L27.0364 14.1344ZM27.0274 5.82717C26.9034 6.40819 26.9364 7.0172 27.1754 7.56522C27.4535 8.20324 27.9985 8.65225 28.2485 9.31227C28.6915 10.4793 28.4135 12.0873 27.3205 12.8014C26.7484 12.9184 26.0594 12.8094 25.4704 12.8354C24.7994 12.8644 24.1174 12.8964 23.4483 12.8084C22.4493 12.6764 21.3473 12.2183 20.8763 11.2523L27.0274 5.82717ZM26.9484 13.3224V13.5884H19.9452C19.7932 13.4834 19.6462 13.3724 19.5122 13.2464C19.5422 13.2754 19.6012 13.3304 19.5102 13.2454C19.4912 13.2274 19.4962 13.2314 19.5072 13.2424C19.4442 13.1824 19.3812 13.1204 19.3232 13.0544L19.2692 12.9884L19.2522 12.9684L19.2362 12.9494C19.1932 12.9034 19.1552 12.8534 19.1202 12.8014L20.4903 11.5923C21.7753 13.9204 24.8174 13.2264 26.9484 13.3224ZM18.9152 13.3534L18.9502 13.3964C19.0072 13.4584 19.0682 13.5204 19.1372 13.5884H18.6812C18.6832 13.4524 18.6862 13.3184 18.6882 13.1824L18.7392 13.1374C18.7762 13.1864 18.8152 13.2334 18.8542 13.2804L18.8972 13.3194L18.8912 13.3254C18.8992 13.3344 18.9082 13.3444 18.9152 13.3534ZM11.654 5.56116C13.1571 4.66614 13.0431 2.10107 12.9841 1.41905C13.9651 0.803031 15.1871 0.277016 16.3551 0.601025C17.1242 0.815031 17.7492 1.39205 18.1202 2.09707C17.1232 2.59908 15.8761 2.48008 14.9591 1.84206L14.6301 1.60305L14.5661 2.00806C14.2771 3.80111 14.5611 4.38113 14.5991 4.44913C15.0651 5.22615 15.7601 5.71217 16.6572 5.33516C16.9492 5.21215 17.5692 4.69714 17.8752 4.95915C18.1312 5.17915 18.1752 5.65017 18.1932 5.96317C17.3412 6.48519 16.3721 6.8092 15.3731 6.8292L15.2691 6.8302C13.5751 6.8302 12.231 5.99018 11.654 5.56116ZM17.7392 4.37913C17.6752 4.38413 17.6102 4.38913 17.5462 4.39413C16.9882 4.48713 16.5372 5.00815 15.9531 4.97115C15.5391 4.94415 15.2311 4.52413 15.0361 4.19913C15.0341 4.19512 14.8401 3.76711 15.0071 2.46108C15.8541 2.90809 16.8632 3.06409 17.7852 2.77809C17.9112 3.3031 17.8982 3.86312 17.7392 4.37913ZM14.9551 8.71925C15.2381 8.41024 15.0021 8.66725 14.9561 8.71825C15.2961 8.34524 15.5221 7.85923 15.6021 7.33021C15.8131 7.31721 16.0331 7.29021 16.2411 7.25421C16.4201 7.82523 16.9132 8.15524 17.4512 8.33524C17.7042 8.61925 18.9442 10.0423 18.2892 11.8413L18.2102 12.1523C18.1932 12.3964 18.1952 12.6434 18.1912 12.8874L17.7012 13.3074C17.2612 13.2084 16.7732 13.2394 16.3241 13.2204C15.6961 13.1954 15.0681 13.1714 14.4401 13.1464C14.3481 12.7074 14.2291 12.2664 14.0621 11.8503C14.4601 11.6403 14.8821 11.3223 15.0491 10.8833C15.2721 10.2493 15.2411 9.37027 14.6891 8.91326C14.7881 8.86525 14.8781 8.80225 14.9541 8.72025C14.9461 8.72925 14.9431 8.73325 14.9551 8.71925ZM14.4931 16.6745C14.5621 16.2705 14.6141 15.8605 14.6301 15.4414C15.3761 15.4694 16.1231 15.4894 16.8692 15.4974H16.9962C17.3822 15.4974 17.7862 15.4684 18.1252 15.2614C18.0982 15.9865 18.0752 16.7375 18.0842 17.5615C16.8102 17.7665 15.5251 17.9485 14.4141 17.1195C14.4201 17.0925 14.4231 17.0645 14.4281 17.0385L14.5071 16.6655L14.4931 16.6745ZM18.0922 14.1284L17.9312 14.0034H17.9892C17.9902 14.0034 17.9902 14.0034 17.9902 14.0044C18.0332 14.0444 18.0642 14.0864 18.0922 14.1284ZM9.44196 14.1554C9.44396 14.1644 9.44396 14.1644 9.44196 14.1554V14.1554ZM12.677 14.8374C11.955 14.7944 11.228 14.7574 10.508 14.6764C10.064 14.6254 9.50696 14.5084 9.41095 13.9844C9.32095 13.4924 9.64996 13.0814 9.91397 12.7124C10.284 12.1943 10.677 11.6923 11.083 11.2023C11.768 10.3773 12.636 9.15326 13.8211 9.15326L13.8761 9.15226C14.4981 9.15226 14.7131 9.73228 14.6671 10.2853C14.6161 10.8793 14.2011 11.2533 13.6771 11.4673L13.3791 11.5353L13.3871 11.5523C12.8851 11.7213 12.397 11.9993 12.025 12.3834C11.69 12.7284 11.446 13.5354 12.192 13.5674L14.0241 13.6404L14.2241 13.6484C14.2551 13.6494 14.2861 13.6504 14.3171 13.6514L14.5391 13.6604C15.5021 13.6974 16.4532 13.7344 17.1632 13.7654V13.7684L16.9732 13.9314L17.9982 14.7144C17.7392 14.9774 17.3392 14.9884 16.9962 14.9884H16.8732C15.4741 14.9744 14.0741 14.9204 12.677 14.8374ZM13.9161 13.1264L12.213 13.0584L12.179 12.9944C12.217 12.9354 12.261 12.8774 12.31 12.8214C12.638 12.4404 13.1191 12.1793 13.5851 12.0233C13.7301 12.3804 13.8321 12.7494 13.9161 13.1264ZM4.34881 19.1575C4.42082 19.1015 4.45482 19.0755 4.34781 19.1595C3.8948 19.5146 4.19881 19.2765 4.34781 19.1595C3.8318 19.5646 3.49179 20.1836 3.40379 20.8376C3.29278 21.6666 3.65279 22.4156 4.0198 23.1317C4.34181 23.7577 4.74382 24.4937 4.52382 25.2227C4.33081 25.8607 3.7038 26.3737 3.03678 26.3737V26.6278L3.03378 26.3737C2.48076 26.3717 1.90575 26.1147 1.70374 25.5577C2.35076 25.7717 3.07578 25.3867 3.14778 24.6857C3.19678 24.2067 3.03778 23.7717 2.75377 23.3917C2.33176 22.8276 1.66374 22.5756 1.21573 22.0376C0.807714 21.5486 0.510706 20.9176 0.479705 20.2706C0.420704 19.0395 1.20373 17.9885 2.26075 17.4855C3.41379 16.9375 5.15984 17.2085 6.11386 18.1015C5.88186 18.2545 5.67485 18.4445 5.50985 18.6695C5.07883 18.7325 4.67882 18.8995 4.34881 19.1575ZM5.65185 34.184L5.68385 34.472L4.14681 34.421V33.7109L5.09383 33.6769C5.37484 33.6769 5.62085 33.9 5.65185 34.184ZM9.17695 34.184L9.20895 34.472L7.67191 34.421V33.7109L8.61893 33.6769C8.89794 33.6769 9.14595 33.903 9.17695 34.184ZM11.263 24.1387C11.169 24.2517 11.203 24.2107 11.261 24.1407C10.182 25.4407 8.90994 26.4807 8.42493 28.1748C7.95891 29.8028 8.13592 31.5619 8.59693 33.1689C8.59193 33.1679 8.58693 33.1679 8.58193 33.1689L7.66191 33.2009L7.3449 29.5988C7.25589 28.5958 7.2969 27.7088 7.69691 26.7748C8.05892 25.9287 8.55693 25.1497 8.88394 24.2867C9.32495 23.7287 9.72896 23.1127 9.93397 22.4216C10.673 22.5296 11.424 22.6246 12.172 22.5886C11.998 23.0967 11.688 23.6257 11.264 24.1377C11.364 24.0167 11.527 23.8197 11.263 24.1387ZM18.6772 19.6256C19.5812 20.5846 21.0113 20.3056 22.1483 20.6946C23.3153 21.0936 23.3823 22.2816 22.9663 23.2907C22.0833 25.4327 20.6383 27.3228 18.8292 28.7418L18.8002 27.9078C19.7492 27.0778 20.4923 26.0237 21.0553 24.8937C21.3073 24.3897 21.6013 23.8097 21.4883 23.2267C21.3703 22.6176 20.8203 22.3906 20.2853 22.2656L18.2762 21.7976L18.2362 21.8016C17.9622 21.8276 17.0462 21.8066 16.9492 22.2026C16.7722 22.9256 18.7792 22.8186 18.5532 23.9137C18.3702 24.8027 17.6092 25.7077 17.0272 26.3657C16.3471 27.1368 15.5481 27.8008 14.6661 28.3228L14.6451 27.7098C15.2581 27.2528 15.8021 26.7008 16.2551 26.0807C16.5132 25.7277 17.4532 24.4247 16.4421 24.3577C15.7211 24.3107 14.8181 24.4747 14.2241 23.9557C13.8081 23.5917 13.3111 22.7566 13.8031 22.2556L14.1451 21.8256C14.1451 21.8256 12.9121 22.1676 9.78496 21.8856L9.55696 21.8526L9.50396 22.0796C9.07095 23.9617 7.20389 25.0687 6.43087 26.7818C6.00386 27.7258 5.84886 28.7778 5.65285 29.7898C5.43784 30.9079 5.24284 32.0339 5.15584 33.1719C5.12383 33.1699 5.09183 33.1659 5.05783 33.1689L4.31281 33.1949C4.42182 32.4089 4.53482 31.6229 4.61382 30.8329C4.70782 29.8818 4.23081 28.9248 4.41882 27.9928C4.50582 27.5608 4.78783 27.2138 5.03283 26.8638C5.32284 26.4487 5.53785 26.0077 5.63985 25.5077C5.83885 24.5397 5.66885 23.5397 5.51085 22.5786L5.47484 22.3566C5.32784 21.4516 5.23584 20.4576 5.57285 19.5836C5.94086 18.6275 6.79988 18.1785 7.76591 18.0795C8.85794 17.9675 9.93297 18.2655 11.018 18.3295C12.17 18.3975 13.1231 18.1305 14.1051 17.5215C15.3071 18.4235 16.7002 18.3075 18.0932 18.0765L18.0962 18.2435C18.1602 18.8275 18.3502 19.2795 18.6772 19.6256ZM18.3052 8.55525C18.7082 8.64525 19.1392 8.76325 19.4392 9.03826C19.3652 8.97026 19.3062 8.91526 19.4402 9.03926C19.6392 9.22227 19.5312 9.12226 19.4412 9.04026C19.9892 9.54527 20.0443 10.4283 20.2773 11.0993L18.8372 12.3334C18.7972 12.2564 18.7632 12.1743 18.7302 12.0933C18.7402 12.0693 18.7522 12.0423 18.7642 12.0133C19.4422 10.5613 18.8272 9.28127 18.3052 8.55525ZM26.9754 21.0526L18.6532 14.5664L18.6562 14.5024L18.6522 14.5014C18.6632 14.4304 18.6662 14.3574 18.6592 14.2844H18.6632C18.6662 14.2024 18.6692 14.1034 18.6722 14.0034H19.6522C21.9953 15.6274 25.2074 15.4284 27.8735 15.0634C28.4005 15.8305 28.6425 16.7795 28.3445 17.6885C28.1345 18.3295 27.6675 18.7505 27.3335 19.3125C27.0224 19.8376 26.9044 20.4466 26.9754 21.0526ZM29.7215 18.7755C29.0095 19.6076 27.8395 20.4776 27.7545 21.6606L27.5735 21.5186C27.4295 21.0426 27.3985 20.5306 27.5495 20.0516C27.7395 19.4466 28.2295 19.0355 28.5325 18.4925C29.1565 17.3705 29.0745 16.0735 28.4135 14.9894L28.4465 14.9854L28.1905 14.6384C28.0255 14.4154 27.8335 14.2054 27.6295 14.0034H28.8655C29.7835 15.2554 30.9426 17.3455 29.7215 18.7755Z" fill="black"/>
</svg>
