<svg width="42" height="36" viewBox="0 0 42 36" fill="none" xmlns="http://www.w3.org/2000/svg">
<path d="M36.3901 19.2355C36.3901 24.6392 32.9217 29.2951 27.9048 31.4555C25.8057 30.9316 24.3842 30.1023 23.8623 29.0331C23.2648 27.8047 24.0979 26.6838 24.6486 26.1296L26.0603 24.6951H23.9469C20.6665 24.6951 18.5206 26.0269 16.2425 27.4352C15.071 28.1611 13.7907 28.9559 12.1955 29.6646C8.90075 27.1864 6.80169 23.4363 6.80169 19.2355C6.80169 13.527 10.6848 8.64783 16.1723 6.67217C14.4547 8.38174 13.4093 10.6538 13.4093 13.1582C13.4093 18.4669 18.1301 22.7711 23.9469 22.7711C29.7637 22.7711 34.4845 18.4675 34.4845 13.1582C34.4845 12.9604 34.4799 12.7674 34.461 12.5743C35.6892 14.5376 36.3909 16.8138 36.3909 19.2362L36.3901 19.2355Z" fill="white"/>
<path d="M41.9992 32.3675C23.9462 34.796 20.4029 29.1462 23.9462 25.5533C16.5847 25.5533 15.7493 32.7404 0 32.7404C0 32.7404 5.32959 33.4566 15.2327 32.3682C16.0885 32.2737 19.1022 31.827 18.7329 32.3682C18.2555 33.0672 14.5355 33.9923 14.358 34.2652C13.4108 35.717 34.9603 35.0049 42 32.3682L41.9992 32.3675Z" fill="#D84F0D"/>
<path d="M25.725 7.78684L26.9464 8.08739L25.725 8.38726L25.3964 9.50193L25.0671 8.38726L23.8457 8.08739L25.0671 7.78684L25.3964 6.67217L25.725 7.78684Z" fill="#CC925D"/>
<path d="M18.9474 14.1226L19.5623 14.2736L18.9474 14.4245L18.782 14.9857L18.6166 14.4245L18.0018 14.2736L18.6166 14.1226L18.782 13.5615L18.9474 14.1226Z" fill="#CC925D"/>
<path d="M33.6566 3.1827L34.2707 3.33367L33.6566 3.48463L33.4905 4.04576L33.3251 3.48463L32.711 3.33367L33.3251 3.1827L33.4905 2.62157L33.6566 3.1827Z" fill="#CC925D"/>
<path d="M5.78505 9.31512L6.20501 9.41783L5.78505 9.52123L5.6725 9.90382L5.5592 9.52123L5.14 9.41783L5.5592 9.31512L5.6725 8.93184L5.78505 9.31512Z" fill="#CC925D"/>
<path d="M22.7618 0.382586L23.181 0.485988L22.7618 0.5887L22.6485 0.971287L22.536 0.5887L22.1168 0.485988L22.536 0.382586L22.6485 0L22.7618 0.382586Z" fill="#CC925D"/>
<path d="M28.9442 14.7182L29.3641 14.8209L28.9442 14.9243L28.8316 15.3069L28.7183 14.9243L28.2991 14.8209L28.7183 14.7182L28.8316 14.3349L28.9442 14.7182Z" fill="#CC925D"/>
<path d="M41.0997 6.56876L41.5189 6.67216L41.0997 6.77487L40.9871 7.15815L40.8738 6.77487L40.4546 6.67216L40.8738 6.56876L40.9871 6.18617L41.0997 6.56876Z" fill="#CC925D"/>
<path d="M40.1888 14.1391L40.9872 14.3349L40.1888 14.5314L39.9743 15.2593L39.7598 14.5314L38.9614 14.3349L39.7598 14.1391L39.9743 13.4112L40.1888 14.1391Z" fill="#CC925D"/>
<path d="M13.9305 2.21348L14.7289 2.40925L13.9305 2.60571L13.716 3.33366L13.5007 2.60571L12.7031 2.40925L13.5007 2.21348L13.716 1.48553L13.9305 2.21348Z" fill="#CC925D"/>
</svg>
