<svg width="16" height="14" viewBox="0 0 16 14" fill="none" xmlns="http://www.w3.org/2000/svg">
<path d="M15.2731 6.24308L9.9658 3.96276C8.99685 3.54652 7.41101 2.86525 6.44206 2.44881L1.13478 0.168493C0.165623 -0.247751 -0.267531 0.134177 0.171814 1.01726C0.171814 1.01726 2.37273 5.45325 2.80309 5.9071C2.90174 6.01121 3.58492 6.10388 3.98373 6.15177L9.29121 6.78864C9.77569 6.8468 10.0179 6.92338 10.0179 6.99996C10.0179 7.07654 9.77569 7.15312 9.29121 7.21128L3.98373 7.84815C3.58492 7.89603 2.90194 7.98871 2.80309 8.09281C2.37253 8.54647 0.171814 12.9827 0.171814 12.9827C-0.267731 13.8657 0.165623 14.2479 1.13478 13.8314L6.44226 11.5511C7.41121 11.1349 8.99685 10.4536 9.966 10.0372L15.2733 7.75683C15.7578 7.54862 16 7.27429 16 6.99996C16 6.72563 15.7578 6.45111 15.2733 6.24308H15.2731Z" fill="white"/>
</svg>
