<svg width="36" height="9" viewBox="0 0 36 9" fill="none" xmlns="http://www.w3.org/2000/svg">
<mask id="mask0_1_120" style="mask-type:luminance" maskUnits="userSpaceOnUse" x="0" y="0" width="36" height="9">
<path d="M36 0H0V9H36V0Z" fill="white"/>
</mask>
<g mask="url(#mask0_1_120)">
<path d="M4.0632 0L0 8.9865H4.86383L5.46412 7.554H6.84478L7.44507 8.9865H12.7989V7.893L13.2761 8.9865H16.0457L16.5229 7.86975V8.9865H27.6598L29.0104 7.59075L30.2778 8.9865L36 9L31.924 4.51875L36 0H30.3723L29.0517 1.3695L27.8241 0H15.711L14.671 2.31975L13.607 0H8.75294V1.05675L8.21344 0H4.0632ZM5.00415 1.275H7.37528L10.0698 7.37025V1.275H12.6668L14.7483 5.6445L16.667 1.275H19.2512V7.725H17.6755L17.6627 2.67225L15.3734 7.725H13.9664L11.6613 2.6715V7.725H8.42654L7.81349 6.279H4.50216L3.88761 7.725H2.15503L5.0064 1.275M20.6889 1.275H27.0827L29.0389 3.38775L31.0574 1.275H33.0158L30.0444 4.51575L33.0158 7.7205H30.9688L29.0134 5.58525L26.9874 7.72125H20.6897L20.6889 1.275ZM6.15745 2.367L5.06568 4.9425H7.24772L6.15745 2.367ZM22.2684 2.61075V3.78825H25.7568V5.1H22.2684V6.3855H26.1808L27.9989 4.4925L26.2581 2.61L22.2684 2.61075Z" fill="#2478BC"/>
</g>
</svg>
