<svg width="27" height="35" viewBox="0 0 27 35" fill="none" xmlns="http://www.w3.org/2000/svg">
<path fill-rule="evenodd" clip-rule="evenodd" d="M26.6944 33.3148C25.8584 32.8128 24.8773 32.6498 24.0143 32.2068C23.8753 31.9698 23.6013 31.8668 23.3613 31.7548C23.1513 31.5318 22.9753 31.2827 22.7603 31.0657C23.5183 31.2497 24.2303 30.5437 24.4083 29.8797C24.6493 28.9787 24.1633 28.0646 23.7243 27.3036L23.5043 26.9246C25.3774 26.2576 27.2164 24.3985 26.4784 22.2984L26.3224 21.8544L26.0204 22.2194C25.1953 23.2195 23.8663 22.1204 23.4603 21.3274C22.8993 20.2303 22.6733 18.9323 22.5372 17.7253C22.2342 15.0282 22.5483 12.3151 22.5803 9.61297C22.6093 7.21388 22.5132 4.53478 21.1862 2.42871C19.9572 0.477635 17.4701 -0.702408 15.26 0.460634C13.2789 0.137623 11.1478 1.25466 10.3598 3.06273L10.2518 3.31274L10.5118 3.40674C10.8068 3.51274 11.1218 3.58575 11.4448 3.64075C10.9458 5.22981 10.5348 7.58689 11.6299 9.03794C11.5339 9.61097 11.4198 10.115 11.2838 10.57C10.6398 10.488 9.96079 10.496 9.40577 10.868C8.82075 11.258 8.52974 11.927 8.27973 12.5481L5.99765 18.2083C5.10862 16.8442 4.6056 15.2472 4.5356 13.6321C4.5006 12.8241 4.5746 12.0121 4.76061 11.223C4.95661 10.388 5.30063 9.53596 5.15362 8.66493C6.69968 7.9029 7.61771 6.17984 7.80872 4.55378C7.97372 3.14973 7.57871 1.34867 6.12366 0.708643C4.5936 0.0346188 3.01554 1.12166 2.18851 2.3287C1.16748 3.82076 0.756461 5.99283 1.67049 7.62689C0.861465 8.47692 1.02047 9.52796 1.53049 10.477C1.39748 10.852 0.306445 13.2771 1.52049 13.2771C1.9605 13.2661 2.22351 12.8351 2.39452 12.4941C2.82354 13.9711 2.91754 15.5172 3.01454 17.0412C3.09655 18.3193 3.04054 19.8153 3.73157 20.9554C4.28359 21.8654 5.32663 22.1664 6.31866 21.7474C6.95669 21.4774 7.4347 21.0064 7.86372 20.4874C8.13373 20.1613 8.52374 19.4863 8.95876 19.3583C9.39977 20.1813 9.72779 21.0454 9.9968 21.9354C10.2788 22.8674 10.8348 23.9965 9.95379 24.7685L9.94979 24.7735C9.12076 25.4985 7.90072 25.8426 6.91968 26.3306C5.68964 26.9426 4.4916 27.6156 3.33255 28.3486C2.18051 29.0777 0.343446 29.9917 0.0414355 31.4408C-0.302577 33.0918 1.56949 33.7708 2.91754 33.6778C3.95458 34.8879 6.11066 34.9009 7.59671 34.9709C9.55278 35.0639 11.5089 34.9019 13.4539 34.7139C15.396 34.5259 17.3401 34.3059 19.2941 34.2779C20.2532 34.2639 21.2142 34.2979 22.1672 34.4059C23.1383 34.5179 24.1013 34.7919 25.0823 34.7919H25.1513C25.6704 34.7829 26.1984 34.6779 26.6574 34.4349C27.0934 34.2019 27.1214 33.5698 26.6944 33.3148C26.8944 33.4348 26.1774 33.0048 26.6944 33.3148ZM18.2701 31.4578C17.2521 31.3208 16.286 30.9477 15.291 30.7097C15.301 30.6977 15.311 30.6877 15.321 30.6767C16.295 30.7697 17.3791 30.6567 18.0841 29.9227C18.8241 29.1517 19.6701 30.8007 20.2472 31.1537C19.8822 31.3848 19.4011 31.4968 18.8201 31.5058C18.6441 31.4978 18.4631 31.4838 18.2701 31.4578C18.4631 31.4838 17.6371 31.3728 18.2701 31.4578ZM20.9482 30.8257C20.9302 30.8467 20.9092 30.8647 20.8892 30.8827L20.8682 30.9017L20.8392 30.8877C20.0072 30.4657 19.6461 29.4687 18.7161 29.2167C19.2251 28.7497 19.5711 28.1816 19.7271 27.5156C20.0912 27.5246 20.4542 27.5066 20.8172 27.4736C21.0352 28.0106 21.2522 28.5477 21.4652 29.0867C21.6562 29.5687 21.7862 30.1727 22.0842 30.6007C21.6762 30.4427 21.2452 30.4807 20.9482 30.8257C21.1302 30.6147 20.9302 30.8467 20.9482 30.8257ZM19.4721 25.4595C18.9591 24.5925 17.9661 24.3245 17.1601 23.8015C16.311 23.2495 16.22 22.3584 16.283 21.4334C16.389 19.8463 16.849 18.1683 17.4751 16.7012C17.9621 18.4353 18.2151 20.2263 18.7341 21.9524C19.2471 23.6595 19.9462 25.3215 20.6152 26.9746C20.3322 26.9966 20.0712 27.0076 19.8122 27.0026C19.8512 26.4756 19.7441 25.9196 19.4721 25.4595ZM16.78 0.513636C18.9381 0.286628 20.6212 2.06069 21.3132 3.87176C22.2162 6.23684 22.0992 8.90994 21.9982 11.389C21.8942 13.9221 21.7122 16.4892 22.1922 18.9983C22.3902 20.0343 22.6563 21.1854 23.2903 22.0614C23.8863 22.8844 25.1013 23.4445 26.0724 22.8564C26.3374 24.6105 24.7863 25.9456 23.2443 26.4706C22.4552 25.0975 21.6732 23.6825 21.2212 22.1624C20.9672 21.3064 20.8262 20.3994 20.8632 19.5073C20.9062 18.5093 21.1632 17.5353 21.2822 16.5462C21.4502 15.1682 21.2842 13.5371 20.1342 12.5681C19.5041 12.0371 18.6441 11.9731 17.9791 11.508C17.4021 11.105 16.958 10.493 16.79 9.81797C16.814 9.30295 16.864 8.79094 16.947 8.28092C17.3251 7.97591 17.6801 7.63589 18.0051 7.27788C18.1281 7.35188 18.2581 7.42189 18.3891 7.48289L18.5721 7.56989L18.7051 7.41989C20.3812 5.52682 19.8482 1.64768 17.0071 1.08166L17.0401 1.03265L16.751 0.914651C16.532 0.825647 16.311 0.740644 16.086 0.665642C16.318 0.587639 16.549 0.537637 16.78 0.513636C18.1041 0.373631 16.549 0.537637 16.78 0.513636ZM16.038 2.51271C16.049 2.4047 16.071 2.2907 16.102 2.1797V2.1787C16.165 1.95469 16.291 1.67968 16.554 1.58767L16.586 1.58067C17.1151 1.46167 17.7741 1.93769 18.1241 2.2697C18.5491 2.67371 18.8521 3.18773 19.0121 3.74375C19.3211 4.81279 19.1261 6.03184 18.4341 6.92387C16.858 6.06684 15.855 4.27277 16.038 2.51271C16.049 2.4047 15.872 4.11377 16.038 2.51271ZM14.574 0.919651C15.11 0.919651 15.617 1.04666 16.116 1.22766C15.868 1.40067 15.703 1.68668 15.614 1.96569C14.374 3.08273 12.5909 3.48474 10.9728 3.01173C11.6429 1.76768 13.0819 0.919651 14.574 0.919651ZM11.9679 3.71175C12.1039 3.72175 12.2389 3.71575 12.3749 3.72675C13.4879 3.72675 14.59 3.37674 15.49 2.73572C15.424 4.35378 16.244 5.99483 17.5561 6.97787C16.872 7.7229 16.077 8.35092 15.174 8.82894C14.438 9.21795 13.4329 9.59596 12.6139 9.21295C11.7769 8.82094 11.5629 7.7619 11.5259 6.94487C11.4758 5.85183 11.6309 4.75479 11.9679 3.71175C12.0499 3.71775 11.6249 4.77179 11.9679 3.71175ZM14.0959 9.99798C13.7899 10.802 12.7519 10.788 12.0279 10.678L11.8169 10.645C11.9189 10.295 12.0079 9.91798 12.0859 9.50596C12.6779 9.92898 13.4689 9.95298 14.1579 9.78497C14.1439 9.85697 14.1229 9.92898 14.0959 9.99798ZM1.97451 3.94876C2.35952 2.79272 3.19055 1.58567 4.40959 1.15666C5.58464 0.741644 6.64667 1.40467 7.06769 2.48371C7.54671 3.71075 7.3157 5.1648 6.72268 6.31485C6.15666 7.41189 4.97761 8.66593 3.57956 8.45392H3.57656C3.28855 8.40992 3.02154 8.29892 2.78453 8.13191C2.56953 7.97791 2.37952 7.7779 2.22151 7.53489L2.21951 7.53189C1.63249 6.62886 1.53849 5.25681 1.97451 3.94876C2.53853 2.2537 1.53849 5.25681 1.97451 3.94876ZM1.96851 8.07891C2.06651 8.19691 2.19251 8.32692 2.31052 8.42492C2.12851 8.87894 1.9515 9.33496 1.7805 9.79197C1.53349 9.21095 1.55649 8.58693 1.96851 8.07891C1.98951 8.10491 1.7015 8.40792 1.96851 8.07891ZM1.7775 12.5161C1.63149 12.7301 1.53849 12.7561 1.52349 12.7591C1.28248 12.5891 1.7315 11.537 1.7855 11.372C2.07351 10.479 2.41152 9.59896 2.75953 8.72693C2.89754 8.79893 3.04454 8.85794 3.19455 8.90194C2.98354 9.52596 2.76553 10.15 2.53553 10.769C2.31952 11.346 2.13351 12.0031 1.7775 12.5161C1.8425 12.4231 1.63149 12.7301 1.7775 12.5161ZM7.56771 20.0213C6.97969 20.7324 6.05965 21.7234 4.99361 21.3694C4.18359 21.1014 3.89057 20.1763 3.76057 19.4383C3.31055 16.8802 3.61356 14.2591 2.71553 11.768C3.08755 10.854 3.40856 9.92098 3.72357 8.98894C3.76957 8.98494 3.81557 8.98594 3.86157 8.99294C4.12558 8.96094 4.39259 8.94994 4.6486 8.87294C4.73961 9.78797 4.30359 10.697 4.14358 11.586C3.99558 12.4121 3.96058 13.2561 4.03458 14.0911C4.18859 15.8152 4.80961 17.5023 5.84465 18.9113L6.12866 19.2983L8.77375 12.7371C8.97976 12.2261 9.20877 11.645 9.68178 11.311C10.1768 10.962 10.8278 11.022 11.3968 11.105L11.9459 11.189C12.1909 11.226 12.4419 11.25 12.6889 11.25C13.7589 11.229 14.621 10.71 14.725 9.60596C15.298 9.38596 15.843 9.07295 16.346 8.72793C16.301 9.09595 16.274 9.46696 16.257 9.83697L16.256 9.87097L16.264 9.90598C16.363 10.327 16.559 10.73 16.819 11.089V11.09C17.1721 11.583 17.6661 12.0021 18.2321 12.2471C18.9361 12.5531 19.6421 12.6861 20.1312 13.3191C21.0012 14.4451 20.8612 15.9512 20.6402 17.2552C20.3592 18.9183 20.1972 20.4664 20.6552 22.1184C21.1262 23.8185 22.0072 25.3855 22.8873 26.9116L23.2613 27.5576C23.5713 28.0946 23.9053 28.6777 23.9343 29.3077C23.9563 29.7967 23.6713 30.4767 23.1033 30.5697C22.4762 30.6717 22.3302 29.8447 22.1712 29.4367C21.9082 28.7587 21.6352 28.0836 21.3622 27.4096L21.2352 27.0946C20.2242 24.6015 19.2571 22.1334 18.6741 19.5083C18.5341 18.8763 18.3981 18.2413 18.2511 17.6093C18.1421 17.1422 18.0841 16.3632 17.7821 15.9712C17.3001 15.3432 16.635 17.4382 16.542 17.7363C16.58 17.4162 16.632 16.2322 16.249 16.1302C15.756 15.9972 16.107 17.3782 16.086 17.6183C15.965 18.9843 14.552 19.9243 13.2129 19.4943C11.8699 19.0623 11.2878 17.5363 12.0069 16.3442C12.1149 16.1662 12.3999 15.9112 12.1369 15.7212C11.8689 15.5282 11.6069 16.1112 11.5229 16.2772C11.1938 16.9362 11.1388 17.7323 11.4048 18.4213C10.4238 19.0133 8.47074 19.2773 8.19773 17.7553C7.95172 16.3852 9.38577 15.3592 9.76479 14.1461C9.78679 13.9711 9.56478 13.9221 9.43678 13.9791C9.26077 14.0571 9.21077 14.3221 9.12976 14.4761C8.82175 15.0642 8.38374 15.5752 8.07473 16.1612C7.56671 17.1262 7.53271 18.3433 8.54474 19.0043C8.23673 19.2133 7.91872 19.5953 7.56771 20.0213C7.91872 19.5953 7.4527 20.1603 7.56771 20.0213ZM26.4024 33.9808C26.0554 34.1649 25.6194 34.2669 25.1433 34.2739H25.0823C24.3633 34.2739 23.6603 34.0989 22.9533 33.9898C22.2102 33.8748 21.4612 33.8068 20.7102 33.7768C19.0771 33.7108 17.4441 33.8178 15.819 33.9648C12.5939 34.2559 9.33477 34.7299 6.09665 34.3259C4.98461 34.1859 3.45656 34.0448 3.00154 32.8488C2.59253 31.7748 3.60356 30.8047 4.37859 30.1947C6.84568 28.2576 9.62278 26.6306 12.4669 25.2795C12.4989 25.2645 12.5289 25.2475 12.5599 25.2325L12.5699 25.2255H11.3848C9.26277 26.2866 7.2247 27.5076 5.29463 28.8747C4.00758 29.7857 1.67149 31.3027 2.56653 33.1778C1.65449 33.2128 0.373448 32.6868 0.555454 31.6018C0.73246 30.5517 1.97851 29.8667 2.79153 29.3227C3.88657 28.5917 5.01962 27.9136 6.18466 27.2946C7.3017 26.6996 8.49874 26.2456 9.60378 25.6345C9.96179 25.4385 10.3208 25.2035 10.5688 24.8795L10.5728 24.8755C10.6178 24.8155 10.6638 24.7535 10.7258 24.6755C11.2618 23.8335 10.8128 22.8194 10.5568 21.9574C10.2918 21.0664 9.97979 20.1933 9.55378 19.3603C10.2838 19.4423 10.9958 19.1923 11.6129 18.8273C12.7419 20.6044 15.483 20.3654 16.33 18.4743C16.076 19.4293 15.863 20.4014 15.763 21.3824C15.662 22.4734 15.838 23.5445 16.82 24.2015C17.6771 24.7755 18.8591 25.0405 19.1931 26.1236C19.9012 28.4186 17.3241 29.8547 15.375 30.1037L15.251 30.1197C15.211 30.1257 15.169 30.1287 15.128 30.1347L15.084 30.1297L15.075 30.1407C14.533 30.2147 13.9799 30.2637 13.4389 30.3067L13.0269 30.3407C11.2828 30.4817 9.35577 30.7937 8.12773 32.1348L8.48574 32.5138C9.71779 31.6088 11.2408 31.0917 12.7769 31.0007C13.2209 30.9747 13.6629 30.9857 14.0899 31.0267L14.0709 31.0407L14.631 31.1617C16.008 31.4598 17.3261 32.0328 18.7591 32.0328C18.7991 32.0328 18.8381 32.0298 18.8771 32.0238C19.8932 32.0568 20.6722 31.8178 21.2082 31.3007L21.2482 31.2647C21.5542 30.9857 21.7052 30.9467 22.0732 31.1767L22.9983 32.1368C23.2003 32.3468 23.4473 32.4988 23.7053 32.6358L24.3053 32.9588L24.2843 32.8998C24.7283 33.0748 25.1883 33.2068 25.6334 33.3788C25.7424 33.4218 26.7574 33.7898 26.4024 33.9808C26.4674 33.9458 26.0554 34.1649 26.4024 33.9808Z" fill="black"/>
</svg>
