<svg width="131" height="23" viewBox="0 0 131 23" fill="none" xmlns="http://www.w3.org/2000/svg">
<path d="M122.669 15.6902L119.027 20.2881C118.896 20.46 118.759 20.6371 118.618 20.8192C118.486 21.0013 118.365 21.1783 118.254 21.3503C118.152 21.5222 118.066 21.6841 117.996 21.8358C117.935 21.9876 117.905 22.114 117.905 22.2152H115.355V22.1545C115.517 22.0129 115.74 21.8004 116.023 21.5172C116.316 21.2339 116.625 20.8849 116.949 20.4702L121.728 14.4156L117.04 8.07273C116.777 7.72878 116.519 7.43541 116.266 7.19262C116.013 6.94983 115.826 6.79809 115.704 6.73739V6.67669H119.862C119.862 6.84867 119.923 7.1218 120.044 7.4961C120.176 7.86029 120.429 8.30034 120.803 8.81627L123.382 12.3367L126.326 8.60383C126.448 8.44197 126.569 8.27 126.69 8.0879C126.822 7.90581 126.933 7.72878 127.024 7.5568C127.125 7.37471 127.206 7.20779 127.267 7.05605C127.328 6.90431 127.358 6.77785 127.358 6.67669H129.907V6.73739C129.766 6.84867 129.589 7.01053 129.376 7.22297C129.164 7.43541 128.886 7.75913 128.542 8.19412L124.308 13.581L129.407 20.4702C129.751 20.9254 130.069 21.2997 130.363 21.5931C130.656 21.8864 130.868 22.0736 131 22.1545V22.2152H126.857C126.857 22.0432 126.792 21.7701 126.66 21.3958C126.529 21.0114 126.286 20.5713 125.932 20.0756L122.669 15.6902Z" fill="white"/>
<path d="M107.343 22.4884C106.22 22.4884 105.168 22.3113 104.187 21.9572C103.206 21.6032 102.351 21.0873 101.622 20.4095C100.894 19.7216 100.317 18.8769 99.8926 17.8754C99.4779 16.8637 99.2705 15.7105 99.2705 14.4156C99.2705 13.2725 99.4627 12.2153 99.8471 11.2442C100.232 10.2629 100.763 9.41314 101.44 8.69488C102.118 7.97663 102.907 7.41518 103.808 7.01053C104.718 6.60589 105.699 6.40356 106.751 6.40356C107.793 6.40356 108.759 6.58565 109.65 6.94984C110.54 7.3039 111.309 7.82489 111.956 8.51279C112.614 9.19058 113.13 10.0353 113.504 11.0469C113.888 12.0484 114.096 13.1915 114.126 14.4763C112.983 14.4561 111.84 14.4409 110.697 14.4308C109.554 14.4207 108.365 14.4156 107.131 14.4156C106.251 14.4156 105.391 14.4207 104.551 14.4308C103.722 14.4409 102.973 14.4561 102.305 14.4763C102.366 15.5284 102.528 16.4793 102.791 17.3291C103.064 18.1788 103.433 18.9072 103.899 19.5142C104.374 20.111 104.946 20.5713 105.613 20.895C106.291 21.2188 107.055 21.3806 107.905 21.3806C108.491 21.3806 109.043 21.3149 109.559 21.1834C110.085 21.0417 110.56 20.8495 110.985 20.6067C111.41 20.3639 111.789 20.0807 112.123 19.757C112.457 19.4231 112.74 19.064 112.973 18.6796L113.155 18.7706L112.032 21.4717C111.486 21.7549 110.833 21.9977 110.075 22.2C109.316 22.3922 108.405 22.4884 107.343 22.4884ZM105.325 13.232C106.337 13.232 107.348 13.232 108.36 13.232C109.382 13.2219 110.307 13.2017 111.137 13.1713C111.046 12.2912 110.874 11.5021 110.621 10.8041C110.368 10.1061 110.044 9.5143 109.65 9.02872C109.255 8.54314 108.79 8.16884 108.254 7.90582C107.718 7.6428 107.126 7.51129 106.478 7.51129C105.892 7.51129 105.35 7.6428 104.855 7.90582C104.369 8.15873 103.944 8.52797 103.58 9.01355C103.216 9.49912 102.922 10.096 102.7 10.8041C102.477 11.5021 102.346 12.3013 102.305 13.2017C102.761 13.2219 103.241 13.232 103.747 13.232C104.253 13.232 104.779 13.232 105.325 13.232Z" fill="white"/>
<path d="M78.254 0.455225L93.8836 17.0863V6.40356C93.8836 5.54368 93.8734 4.79508 93.8532 4.15776C93.833 3.51032 93.8026 2.95393 93.7622 2.48859C93.7217 2.01312 93.6711 1.61859 93.6104 1.30499C93.5598 0.991384 93.5042 0.728363 93.4435 0.515922V0.455225H96.1445V0.515922C96.0838 0.728363 96.0282 0.991384 95.9776 1.30499C95.927 1.61859 95.8815 2.01312 95.841 2.48859C95.8006 2.95393 95.7702 3.51032 95.75 4.15776C95.7298 4.79508 95.7197 5.54368 95.7197 6.40356V22.5187H95.1885L79.559 5.90281V16.2821C79.559 17.1419 79.5691 17.8956 79.5893 18.543C79.6096 19.1803 79.6399 19.7317 79.6804 20.197C79.7209 20.6624 79.7664 21.0518 79.817 21.3655C79.8675 21.6791 79.9232 21.9421 79.9839 22.1545V22.2152H77.2828V22.1545C77.3435 21.9421 77.3992 21.6791 77.4498 21.3655C77.5105 21.0518 77.561 20.6624 77.6015 20.197C77.642 19.7317 77.6723 19.1803 77.6925 18.543C77.7128 17.8956 77.7229 17.1419 77.7229 16.2821V6.40356C77.7229 5.54368 77.7128 4.79508 77.6925 4.15776C77.6723 3.51032 77.642 2.95393 77.6015 2.48859C77.561 2.01312 77.5105 1.61859 77.4498 1.30499C77.3992 0.991384 77.3435 0.728363 77.2828 0.515922V0.455225H78.254Z" fill="white"/>
<path d="M57.6017 14.4156C57.6017 13.2725 57.8141 12.2153 58.239 11.2442C58.6639 10.2629 59.2456 9.41314 59.9841 8.69488C60.7327 7.97663 61.6128 7.41518 62.6244 7.01053C63.636 6.60589 64.7235 6.40356 65.8869 6.40356C67.03 6.40356 68.1023 6.59577 69.1038 6.98019C70.1155 7.35449 70.9956 7.89065 71.7442 8.58866C72.4928 9.28668 73.0795 10.1364 73.5044 11.138C73.9394 12.1395 74.1569 13.2624 74.1569 14.5067C74.1569 15.5486 73.9748 16.5501 73.6106 17.5112C73.2464 18.4722 72.7103 19.322 72.0021 20.0605C71.294 20.7989 70.424 21.3907 69.3922 21.8359C68.3704 22.2709 67.1919 22.4884 65.8565 22.4884C64.7235 22.4884 63.6563 22.3012 62.6548 21.9269C61.6532 21.5526 60.7782 21.0164 60.0296 20.3184C59.281 19.6204 58.6892 18.7757 58.2542 17.7843C57.8192 16.7828 57.6017 15.6599 57.6017 14.4156ZM66.2055 21.3806C66.9238 21.3806 67.5814 21.239 68.1782 20.9557C68.7852 20.6725 69.3062 20.2628 69.7412 19.7266C70.1762 19.1905 70.5151 18.538 70.7578 17.7691C71.0006 17.0003 71.122 16.1303 71.122 15.1591C71.122 14.0666 71.0057 13.055 70.773 12.1243C70.5403 11.1835 70.1913 10.3742 69.726 9.69639C69.2708 9.00849 68.6941 8.47233 67.9961 8.08791C67.2981 7.7035 66.4837 7.51129 65.553 7.51129C64.8348 7.51129 64.1772 7.65291 63.5804 7.93617C62.9835 8.20931 62.4625 8.6089 62.0174 9.13494C61.5824 9.66098 61.2435 10.3084 61.0008 11.0773C60.758 11.836 60.6366 12.7009 60.6366 13.6721C60.6366 14.7646 60.7529 15.7813 60.9856 16.7221C61.2284 17.6629 61.5824 18.4823 62.0478 19.1803C62.5131 19.8682 63.0897 20.4095 63.7777 20.804C64.4757 21.1884 65.285 21.3806 66.2055 21.3806Z" fill="white"/>
<path d="M46.6762 12.6099C46.6762 11.75 46.661 11.0014 46.6307 10.3641C46.6104 9.71662 46.5801 9.16023 46.5396 8.69488C46.5093 8.22953 46.4638 7.84006 46.4031 7.52646C46.3525 7.21285 46.2968 6.94983 46.2361 6.73739V6.67669H49.7414V6.73739C49.6605 6.97006 49.5897 7.25332 49.529 7.58715C49.4784 7.92099 49.4379 8.35093 49.4076 8.87697C49.7819 8.56337 50.1713 8.25482 50.576 7.95134C50.9806 7.64785 51.3954 7.37977 51.8203 7.1471C52.2452 6.91443 52.6751 6.72728 53.1101 6.58565C53.5552 6.44402 54.0003 6.37321 54.4455 6.37321C54.7186 6.37321 54.9563 6.38838 55.1586 6.41873C55.361 6.43896 55.5431 6.47437 55.7049 6.52495C55.8668 6.56542 56.0135 6.616 56.145 6.67669C56.2765 6.72728 56.4029 6.77786 56.5243 6.82844L55.7808 9.72673L55.5228 9.66604C55.4014 9.22092 55.1738 8.86686 54.84 8.60383C54.5062 8.3307 54.0509 8.19413 53.4743 8.19413C53.1607 8.19413 52.8319 8.24977 52.488 8.36105C52.144 8.47232 51.795 8.62912 51.4409 8.83145C51.0869 9.02366 50.7328 9.25127 50.3787 9.51429C50.0247 9.7672 49.6807 10.0353 49.3469 10.3185C49.3266 10.6119 49.3165 10.9306 49.3165 11.2745C49.3165 11.6185 49.3165 11.9827 49.3165 12.3671V16.282C49.3165 17.1419 49.3266 17.8956 49.3469 18.543C49.3671 19.1803 49.3975 19.7317 49.4379 20.197C49.4784 20.6624 49.5239 21.0518 49.5745 21.3654C49.6251 21.679 49.6807 21.9421 49.7414 22.1545V22.2152H46.2361V22.1545C46.2968 21.9421 46.3525 21.679 46.4031 21.3654C46.4638 21.0518 46.5093 20.6624 46.5396 20.197C46.5801 19.7317 46.6104 19.1803 46.6307 18.543C46.661 17.8956 46.6762 17.1419 46.6762 16.282V12.6099Z" fill="white"/>
<path d="M40.2423 21.3199C40.5458 21.3199 40.8443 21.2643 41.1376 21.153C41.4411 21.0417 41.7294 20.89 42.0026 20.6978C42.2858 20.5056 42.5539 20.2881 42.8068 20.0453C43.0698 19.7924 43.3126 19.5294 43.5352 19.2562L43.6869 19.3321L42.7006 21.7752C42.5792 21.8359 42.4274 21.9117 42.2453 22.0028C42.0734 22.0837 41.8609 22.1596 41.608 22.2304C41.3652 22.3113 41.0769 22.3771 40.7431 22.4277C40.4093 22.4884 40.0147 22.5187 39.5595 22.5187C38.2039 22.5187 37.1468 22.1545 36.3881 21.4262C35.6395 20.6877 35.2652 19.5395 35.2652 17.9816V7.8603L32.7159 7.95135V6.61601C33.0295 6.63624 33.4038 6.65141 33.8388 6.66153C34.2738 6.67165 34.7492 6.6767 35.2652 6.6767C35.255 5.95845 35.2348 5.32619 35.2045 4.77991C35.1842 4.22352 35.1539 3.743 35.1134 3.33835C35.0831 2.92359 35.0426 2.57458 34.992 2.29132C34.9414 2.00807 34.8909 1.77034 34.8403 1.57813V1.51743H38.3455V1.57813C38.2848 1.77034 38.2292 2.00807 38.1786 2.29132C38.128 2.57458 38.0825 2.91853 38.0421 3.32318C38.0117 3.72783 37.9814 4.20835 37.951 4.76474C37.9308 5.31101 37.9156 5.94834 37.9055 6.6767C38.5428 6.66659 39.165 6.65647 39.7719 6.64635C40.389 6.62612 40.9454 6.60589 41.4411 6.58566C41.9469 6.55531 42.3718 6.53002 42.7158 6.50979C43.0698 6.47944 43.3025 6.45415 43.4138 6.43391L43.1406 7.9817C42.6247 7.97158 42.0835 7.95641 41.517 7.93617C41.0314 7.91594 40.475 7.90077 39.8478 7.89065C39.2206 7.88053 38.5732 7.87042 37.9055 7.8603V18.3002C37.9055 18.9274 37.9712 19.4383 38.1028 19.8328C38.2444 20.2173 38.4214 20.5208 38.6339 20.7433C38.8564 20.9659 39.1043 21.1176 39.3774 21.1985C39.6607 21.2795 39.949 21.3199 40.2423 21.3199Z" fill="white"/>
<path d="M30.5914 9.72674L30.379 9.75709C30.3082 9.52442 30.1918 9.27657 30.03 9.01355C29.8782 8.75053 29.6759 8.50774 29.423 8.28518C29.1802 8.06262 28.8818 7.88053 28.5277 7.73891C28.1838 7.58716 27.7842 7.51129 27.3289 7.51129C27.0153 7.51129 26.7169 7.55681 26.4337 7.64786C26.1605 7.73891 25.9177 7.87547 25.7053 8.05757C25.503 8.22954 25.3411 8.44704 25.2197 8.71006C25.0983 8.97308 25.0376 9.28163 25.0376 9.6357C25.0376 10.1314 25.1894 10.6069 25.4928 11.0621C25.8064 11.5072 26.1959 11.9523 26.6613 12.3974C27.1266 12.8324 27.6274 13.2725 28.1635 13.7176C28.7098 14.1627 29.2156 14.6281 29.681 15.1136C30.1463 15.5992 30.5307 16.1202 30.8342 16.6766C31.1478 17.2229 31.3046 17.8147 31.3046 18.452C31.3046 18.9679 31.2136 19.4737 31.0315 19.9694C30.8494 20.455 30.5661 20.89 30.1817 21.2744C29.8074 21.6588 29.3218 21.9724 28.725 22.2152C28.1382 22.4479 27.4352 22.5642 26.6157 22.5642C26.1302 22.5642 25.6749 22.5187 25.2501 22.4277C24.8353 22.3366 24.4509 22.2253 24.0968 22.0938C23.7529 21.9522 23.4393 21.8005 23.156 21.6386C22.8829 21.4666 22.6401 21.3048 22.4276 21.153L22.5794 18.2699H22.8222C22.9233 18.7454 23.0751 19.1803 23.2774 19.5749C23.4797 19.9694 23.7276 20.3083 24.0209 20.5916C24.3244 20.8647 24.6684 21.0822 25.0528 21.2441C25.4372 21.3958 25.857 21.4717 26.3123 21.4717C27.0609 21.4717 27.6527 21.2643 28.0877 20.8495C28.5328 20.4348 28.7553 19.8935 28.7553 19.2259C28.7553 18.6897 28.6036 18.1991 28.3001 17.754C28.0067 17.2987 27.6324 16.8637 27.1772 16.449C26.722 16.0342 26.2313 15.6194 25.7053 15.2047C25.1894 14.7899 24.7038 14.3499 24.2486 13.8845C23.7933 13.409 23.414 12.8931 23.1105 12.3367C22.8171 11.7702 22.6704 11.1278 22.6704 10.4096C22.6704 9.82285 22.7766 9.28669 22.9891 8.80111C23.2116 8.30541 23.5151 7.88559 23.8995 7.54164C24.2941 7.18757 24.7594 6.91443 25.2956 6.72223C25.8317 6.53002 26.4185 6.43391 27.0558 6.43391C27.8954 6.43391 28.5935 6.52496 29.1499 6.70705C29.7164 6.87903 30.1463 7.04594 30.4397 7.2078L30.5914 9.72674Z" fill="white"/>
<path d="M17.5264 22.2152V22.1545C17.5466 22.1039 17.5618 22.0281 17.5719 21.9269C17.582 21.8257 17.587 21.7347 17.587 21.6538C17.587 21.3402 17.5415 20.9962 17.4505 20.6219C17.3695 20.2375 17.2077 19.762 16.9649 19.1955L15.1288 15.0681C14.5623 15.0479 13.8086 15.0378 12.8678 15.0378C11.927 15.0378 10.9103 15.0378 9.81779 15.0378C9.01861 15.0378 8.24472 15.0378 7.49612 15.0378C6.75764 15.0378 6.08996 15.0479 5.49311 15.0681L3.74806 19.0741C3.59632 19.4484 3.43446 19.8581 3.26248 20.3033C3.09051 20.7484 3.00452 21.1985 3.00452 21.6538C3.00452 21.7853 3.01463 21.8966 3.03487 21.9876C3.0551 22.0685 3.07533 22.1242 3.09556 22.1545V22.2152H0V22.1545C0.182092 21.9623 0.409707 21.6234 0.682845 21.1378C0.955983 20.6421 1.25441 20.0251 1.57813 19.2866L10.273 0H11.487L19.7266 18.543C19.9188 18.978 20.1161 19.4029 20.3184 19.8177C20.5309 20.2223 20.7281 20.5865 20.9102 20.9102C21.0923 21.2339 21.2542 21.5071 21.3958 21.7296C21.5374 21.9522 21.6335 22.0938 21.6841 22.1545V22.2152H17.5264ZM7.69339 13.7328C8.28013 13.7328 8.88204 13.7328 9.49913 13.7328C10.1162 13.7227 10.7181 13.7176 11.3049 13.7176C11.9017 13.7075 12.4733 13.7024 13.0196 13.7024C13.5659 13.6923 14.0615 13.6822 14.5067 13.6721L10.2427 4.03637L6.05456 13.7328H7.69339Z" fill="white"/>
</svg>
