<svg width="31" height="35" viewBox="0 0 31 35" fill="none" xmlns="http://www.w3.org/2000/svg">
<path fill-rule="evenodd" clip-rule="evenodd" d="M30.9843 10.8124C31.0763 11.5954 30.6873 12.4224 30.0663 12.9004C28.5023 14.1093 26.4314 13.3964 24.7004 13.0594C25.0144 15.8223 24.2484 18.6653 22.5574 20.9263C22.1604 24.1212 21.8944 26.8522 22.0874 32.4211C22.9424 32.6681 23.1804 34.3691 23.2204 34.7201L23.2524 35.0001H21.4234H20.9114H18.0585V32.9021L18.1965 32.8311C18.1965 32.8311 18.3065 32.7751 18.4785 32.7031C18.5535 31.2491 18.5685 29.7681 18.2505 28.3382C17.9755 27.1022 17.4725 25.8962 16.9085 24.7642C14.5695 25.4302 12.0386 25.3572 9.7696 24.4662C8.16862 26.5832 7.25963 28.6941 7.63363 32.3971C8.56561 32.5431 8.81761 34.3561 8.85961 34.7201L8.89061 35.0001H6.77764H6.26565H3.41169V32.9021L3.54968 32.8301C3.54968 32.8301 3.57868 32.8151 3.62568 32.7941L3.69468 31.8021C3.83068 29.8801 4.08068 27.8842 3.79068 25.9632C3.48868 23.9662 2.4857 22.1912 2.0017 20.2483C0.694723 21.0513 -0.148265 18.6013 0.0217325 17.7043C0.276729 16.3513 1.57171 15.4303 2.94269 15.6453C3.76068 14.6543 4.90266 14.0294 6.17965 13.8624C7.66963 13.6674 9.1566 14.0024 10.6476 13.9794C13.1995 13.9404 15.6085 12.5874 17.1195 10.5694C15.0435 10.1794 13.3475 8.68943 12.9346 6.60545C12.5866 4.85148 13.1056 2.90351 14.3765 1.61952C15.9695 0.00854659 18.4525 -0.24045 20.5824 0.181544C22.7784 0.616538 25.1354 1.74052 25.9944 3.93749C26.6234 4.50548 26.9434 5.36047 27.1504 6.05046L27.2064 6.23746C27.3803 6.82245 27.5513 7.42644 27.8853 7.94444C28.2283 8.47643 28.7343 8.75842 29.2943 9.02542C29.1593 8.96042 29.2133 8.98642 29.2943 9.02542C30.0813 9.39742 30.8733 9.87041 30.9843 10.8124ZM22.1094 20.6843C23.7584 18.5093 24.5294 15.6383 24.1894 12.9684C24.1624 12.9644 24.1354 12.9614 24.1084 12.9574C24.0664 14.6133 23.8334 16.3653 23.1494 17.8913C22.7374 18.8093 22.1614 19.4093 21.4814 20.1313C20.9164 20.7323 20.6524 21.5582 20.5054 22.3502C21.1054 21.8582 21.6414 21.3002 22.1094 20.6843ZM20.5574 32.5791C20.5644 32.5861 20.5724 32.5911 20.5804 32.5981C20.6254 32.5811 20.6764 32.5661 20.7264 32.5501C20.9994 32.4651 21.2894 32.4011 21.5764 32.3861C21.4014 27.2812 21.6114 24.5552 21.9544 21.6682C21.8674 21.7652 21.7724 21.8592 21.6804 21.9532C21.2854 22.3612 20.8634 22.7372 20.4044 23.0742C20.0695 26.2312 20.6934 29.4141 20.5574 32.5791ZM21.3594 34.4961H22.6744C22.5554 33.8041 22.2754 32.9641 21.9214 32.8991L21.8204 32.8911C21.5144 32.8691 21.2004 32.9361 20.9094 33.0241C21.1544 33.4741 21.2774 33.9941 21.3594 34.4961ZM18.5675 34.4961H20.8424C20.7614 34.0341 20.6484 33.5231 20.3794 33.1301C20.0075 32.5861 19.0385 33.0081 18.5675 33.2151V34.4961ZM9.8476 23.9582C12.0016 24.8352 14.4405 24.9252 16.6765 24.3102C16.3815 23.7492 16.0255 23.1812 15.8955 22.5542C15.7695 21.9382 15.9345 21.3302 16.1945 20.7703C14.3245 21.3122 12.3476 21.8052 10.3856 21.6222C10.3806 22.4082 10.2256 23.2622 9.7896 23.9332L9.8476 23.9582ZM6.71364 34.4961H8.31362C8.23962 34.0641 8.06462 32.9011 7.46063 32.8901L7.39263 32.8881C7.02163 32.8881 6.65164 32.9791 6.30464 33.1061C6.51864 33.5361 6.63664 34.0241 6.71364 34.4961ZM7.11963 32.3931C6.77864 28.9371 7.51763 26.8162 8.88761 24.8182C8.45961 25.0842 7.99162 25.2002 7.50863 25.3222C6.23565 27.5162 5.79165 30.1331 6.13065 32.6311C6.44464 32.5141 6.78364 32.4171 7.11963 32.3931ZM3.92068 34.4961H6.19565C6.11565 34.0361 6.00465 33.5171 5.73065 33.1291L5.72365 33.1201C5.32766 32.6031 4.40267 32.9991 3.92068 33.2151V34.4961ZM0.538725 17.7133C0.427727 18.1923 0.510726 18.6943 0.749722 19.1233C0.89872 19.3893 1.42871 20.1593 1.79671 19.7713C1.82571 19.7413 1.85171 19.7113 1.87671 19.6803C1.66971 18.4353 1.90271 17.1763 2.5957 16.1113C1.61671 16.0903 0.757722 16.7643 0.538725 17.7133ZM16.3155 12.1974C15.3505 13.0644 14.2005 13.7334 12.9566 14.1183C11.5996 14.5383 10.2406 14.5063 8.83961 14.3943C7.45663 14.2823 5.98465 14.1633 4.71467 14.8333C3.48468 15.4803 2.5797 16.7163 2.3567 18.0823C2.1097 19.5923 2.76469 21.0643 3.29369 22.4422C3.66468 23.4082 4.00568 24.3962 4.20767 25.4112C4.62567 27.5162 4.35167 29.7191 4.20267 31.8381L4.15067 32.5821C4.57667 32.4361 5.13066 32.2951 5.58165 32.4091C5.37666 30.5821 5.61365 28.7721 6.17665 27.0302C6.32164 26.5842 6.51164 26.1422 6.71964 25.7202C6.86664 25.4232 7.01364 24.9312 7.36963 24.8372C8.06862 24.6532 8.71361 24.4672 9.1966 23.8862L9.1996 23.8822C9.7776 23.1822 9.90359 22.2232 9.87159 21.3482L9.86159 21.0483L10.1606 21.0893C12.3336 21.3812 14.5595 20.7333 16.6205 20.1183L17.2265 19.9373L16.9155 20.4843C16.5665 21.0973 16.2415 21.7902 16.4095 22.5082C16.5615 23.1642 16.9695 23.7582 17.2725 24.3522L17.4085 24.6202L17.4045 24.6212C17.5025 24.8202 17.6015 25.0282 17.7045 25.2622C17.6995 25.2502 17.6975 25.2472 17.7055 25.2652C18.6435 27.4172 17.7985 25.4782 17.7095 25.2732C18.7405 27.6402 19.1615 29.0081 18.9985 32.5191C19.3335 32.4201 19.6995 32.3541 20.0495 32.3841C20.1525 29.4081 19.6495 26.4332 19.8675 23.4602L19.8405 23.4792L19.9065 22.9112L19.9195 22.8002L19.9225 22.7972C20.0495 21.7972 20.3124 20.7433 20.9684 19.9453C21.3024 19.5403 21.7354 19.2403 22.0514 18.8143C22.2954 18.4843 22.4934 18.1213 22.6614 17.7483C23.3374 16.2443 23.5694 14.5273 23.6014 12.8924C21.9504 12.6954 20.4914 12.1474 20.0265 10.3834C19.2865 10.6424 18.4675 10.7254 17.6875 10.6554C17.2915 11.2184 16.8295 11.7364 16.3155 12.1974ZM25.3524 3.74049C24.9344 2.92551 24.2584 2.27951 23.4804 1.80152C21.7384 0.733536 19.4225 0.232543 17.4035 0.625538C15.6785 0.961533 14.2615 2.04352 13.6535 3.69949C13.1125 5.17347 13.2345 6.92645 14.1645 8.22343C13.8355 7.76544 13.1955 6.87645 14.1665 8.22643C14.4205 8.57943 14.3345 8.46043 14.1685 8.22843C15.2185 9.68541 17.1415 10.3584 18.8995 10.1304C19.8675 10.0054 20.8594 9.59141 21.4984 8.83642C21.9884 8.25743 22.3824 7.34744 21.8874 6.65145L21.6024 6.25046L22.0974 6.25346C22.6954 6.25346 23.2944 6.18646 23.8784 6.05646C22.9984 4.09849 20.5854 2.69951 18.4395 3.2845C17.3965 3.5685 16.3235 4.44948 16.5885 5.64547C16.8335 6.74945 18.3075 7.02345 19.2225 6.62045C18.1685 6.50346 17.9315 5.05448 18.9465 4.67648C20.0315 4.27749 20.6564 5.55147 20.1315 6.39746C19.1555 7.97144 16.1775 7.21545 16.1295 5.36347C16.0765 3.3165 18.5265 2.49951 20.2145 2.79751C21.9524 3.1035 23.5744 4.33649 24.2884 5.94446C24.6874 5.83247 25.6314 5.67447 25.7484 5.19947C25.8554 4.76148 25.5474 4.12249 25.3524 3.74049ZM18.8945 6.01046C19.2505 6.31046 18.9945 6.09546 18.8995 6.01446C19.0765 6.16346 19.3945 6.40746 19.6475 6.30146C19.9105 6.19146 19.9405 5.68647 19.8795 5.46047C19.6185 4.49748 18.1485 5.37847 18.8945 6.01046C18.8625 5.98346 18.8515 5.97446 18.8945 6.01046ZM29.2173 9.54841C28.5163 9.21142 27.8733 8.87442 27.4453 8.20143C27.0914 7.64544 26.9044 7.00645 26.7184 6.38146L26.6624 6.19446C26.5654 5.86746 26.4404 5.50047 26.2674 5.15447C26.2234 5.88546 25.4164 6.12246 24.8384 6.31546C24.0884 6.56746 23.3024 6.71545 22.5114 6.75045C23.0524 8.19343 21.7224 9.61341 20.5124 10.1844C20.6714 10.8294 21.0194 11.4584 21.5924 11.8294C22.2044 12.2234 22.9534 12.3074 23.6604 12.3904L23.8904 12.4184C23.8924 12.4184 23.8934 12.4194 23.8954 12.4194L24.1144 12.4464V12.4484C24.1994 12.4594 24.2844 12.4694 24.3684 12.4824L24.4284 12.4934C25.7024 12.7054 26.9754 13.1904 28.2843 13.0464C27.8363 12.8684 27.4434 12.5604 27.1664 12.1674C27.0644 12.0224 26.8464 11.7354 26.8754 11.5464C26.8964 11.4044 27.1014 11.3264 27.2204 11.4014C27.3774 11.5024 27.4844 11.8394 27.6073 11.9914C27.7603 12.1794 27.9393 12.3464 28.1433 12.4794C28.4843 12.7004 28.8913 12.8194 29.2983 12.7744C29.4633 12.6974 29.6173 12.6084 29.7543 12.5024C29.7323 12.5194 29.7383 12.5144 29.7543 12.5024C29.8363 12.4394 30.2773 12.0984 29.7543 12.5024C30.2513 12.1184 30.5723 11.4334 30.4693 10.8074C30.3603 10.1494 29.7703 9.81341 29.2173 9.54841ZM26.2284 8.90142C25.2144 8.90142 25.2144 7.33944 26.2284 7.33944C27.2434 7.33944 27.2434 8.90142 26.2284 8.90142ZM14.1665 8.22643C14.1655 8.22543 14.1655 8.22443 14.1645 8.22343C14.1655 8.22543 14.1675 8.22643 14.1685 8.22843C14.1675 8.22743 14.1665 8.22743 14.1665 8.22643ZM7.11963 32.3931C6.77864 28.9371 7.11863 32.3931 7.11963 32.3931V32.3931ZM29.2943 9.02542C29.4183 9.08342 29.6063 9.17342 29.2943 9.02542V9.02542Z" fill="black"/>
</svg>
