<svg width="33" height="11" viewBox="0 0 33 11" fill="none" xmlns="http://www.w3.org/2000/svg">
<mask id="mask0_1_113" style="mask-type:luminance" maskUnits="userSpaceOnUse" x="0" y="0" width="33" height="11">
<path d="M33 0H0V11H33V0Z" fill="white"/>
</mask>
<g mask="url(#mask0_1_113)">
<path d="M16.339 0.194614L14.1348 10.8337H11.4677L13.6727 0.194614H16.339ZM27.5579 7.06455L28.9618 3.0692L29.7696 7.06532L27.5579 7.06455ZM30.5342 10.8337H33L30.8457 0.194614H28.5713C28.3281 0.192116 28.0898 0.265153 27.8872 0.404243C27.6847 0.543333 27.5274 0.742053 27.4357 0.974606L23.434 10.8345H26.2344L26.7903 9.2453H30.2108L30.5342 10.8345M23.5733 7.3607C23.5853 4.55303 19.8131 4.39688 19.8385 3.14305C19.8466 2.75844 20.1991 2.35536 20.9689 2.25152C21.871 2.16303 22.7796 2.32753 23.5987 2.72767L24.0659 0.469996C23.2681 0.162053 22.4236 0.00291431 21.5718 0C18.9353 0 17.0805 1.44537 17.0649 3.51689C17.0477 5.04841 18.3898 5.90148 19.398 6.41302C20.4413 6.93455 20.7863 7.26916 20.7819 7.73531C20.7744 8.44915 19.9525 8.7653 19.1872 8.77684C18.2336 8.79825 17.2907 8.56677 16.4486 8.10454L15.965 10.4368C16.9098 10.8141 17.9148 11.0051 18.9278 10.9999C21.7305 10.9999 23.5629 9.57145 23.5711 7.35916M12.5289 0.194614L8.20678 10.8345H5.38996L3.26393 2.34306C3.24465 2.14434 3.17629 1.95406 3.06539 1.79042C2.95449 1.62678 2.80475 1.49526 2.63052 1.40845C1.79356 0.994939 0.909895 0.690799 0 0.503072L0.062596 0.195383H4.6008C4.89715 0.195102 5.18385 0.304055 5.40927 0.502621C5.6347 0.701186 5.78403 0.976313 5.83037 1.27845L6.95337 7.43224L9.72771 0.194614H12.5289Z" fill="white"/>
</g>
</svg>
