<svg width="30" height="30" viewBox="0 0 30 30" fill="none" xmlns="http://www.w3.org/2000/svg">
<path d="M15 0C6.71635 0 0 6.71635 0 15C0 23.2837 6.71635 30 15 30C23.2836 30 30 23.2837 30 15C30 6.71635 23.2836 0 15 0ZM24.7415 24.7415C22.1402 27.3428 18.6796 28.7774 15 28.7774C11.3204 28.7774 7.8598 27.3451 5.2585 24.7415C2.65719 22.1402 1.22264 18.6796 1.22264 15C1.22264 11.3204 2.65486 7.8598 5.2585 5.2585C7.8598 2.6572 11.3204 1.22264 15 1.22264C18.6796 1.22264 22.1402 2.65487 24.7415 5.2585C27.3428 7.8598 28.7774 11.3204 28.7774 15C28.7774 18.6796 27.3451 22.1402 24.7415 24.7415Z" fill="#983809"/>
<path fill-rule="evenodd" clip-rule="evenodd" d="M18.764 21.0486C18.6416 20.8856 11.1147 11.1174 10.44 10.2213H12.501C13.0621 10.9659 19.0535 18.757 20.7805 21.0486H18.7651H18.764ZM7.25 22.5H9.39559C10.4745 21.4325 12.9374 18.9999 14.2157 17.7368C14.8024 18.533 16.6307 20.7773 17.8911 22.4979C18.0882 22.4979 23.3247 22.4979 23.75 22.4979C22.8826 21.3473 18.6037 16.0478 17.4602 14.5312C19.1972 12.8159 21.4073 10.6326 23.3124 8.75C23.1421 8.75 21.1713 8.75 21.1679 8.75C20.8874 9.02765 17.5092 12.3647 16.6407 13.2229C16.2232 12.6644 13.3204 8.83939 13.257 8.75H7.52947C8.04054 9.42835 12.7058 15.6176 13.3505 16.4737C12.8728 16.9554 7.99712 21.7449 7.25 22.5Z" fill="#983809"/>
</svg>
