<svg width="1920" height="999" viewBox="0 0 1920 999" fill="none" xmlns="http://www.w3.org/2000/svg">
<mask id="mask0_1_468" style="mask-type:alpha" maskUnits="userSpaceOnUse" x="0" y="-174" width="1920" height="1315">
<rect y="-173.81" width="1920" height="1314" fill="#D9D9D9"/>
</mask>
<g mask="url(#mask0_1_468)">
<g clip-path="url(#clip0_1_468)">
<path d="M66.7749 770.116C67.2591 777.958 67.4255 785.713 67.4709 793.486C73.8707 788.689 80.2554 783.49 86.4889 777.888C81.602 784.173 76.6849 790.177 71.5256 795.761L102.103 800.838C90.9975 800.768 79.9226 800.54 68.8628 800.12C72.146 804.444 75.1568 808.82 78.1978 813.389C81.2994 817.976 84.2345 822.65 87.0335 827.446C80.6034 819.394 73.5984 811.691 66.7144 804.602C65.5041 810.886 64.3542 817.153 62.8412 823.245C62.9623 816.645 62.6597 809.958 62.4479 803.394C57.6064 806.527 52.8254 809.451 48.0596 812.182C43.1424 814.825 38.301 817.258 33.52 819.516C42.6886 813.722 51.963 806.93 60.7987 799.017L31.1446 793.993C40.177 794.413 49.2246 794.693 58.3023 794.869C53.597 789.109 48.4378 783.437 43.4904 778.168C50.0113 783.157 56.7591 788.584 63.0682 794.186C64.566 786.361 65.8218 778.343 66.8052 770.151L66.7749 770.116Z" fill="#FBD0BC"/>
<path d="M96.2777 507.025C100.741 504.242 105.144 501.756 109.773 499.375C106.914 504.032 103.948 508.548 100.907 512.959C99.6365 514.587 99.7576 517.283 100.923 519.559C105.673 528.067 109.214 536.854 111.937 545.59C107.61 537.73 102.572 530.132 96.7014 523.305C95.2792 521.397 92.9643 520.994 91.3909 522.22C86.1863 525.808 81.1027 529.59 76.1704 533.546C80.0588 528.224 83.8714 522.675 87.3664 517.056C88.5616 515.375 88.3649 512.749 86.8671 510.789C81.6171 503.787 75.2022 497.467 67.8945 492.46C75.9284 495.594 83.6294 500.338 90.468 506.272C92.3138 508.005 94.7345 508.338 96.2626 507.043L96.2777 507.025Z" fill="#FBD0BC"/>
<path d="M52.9011 647.104C60.4356 645.476 65.4587 637.546 64.0213 629.354C62.5084 621.056 55.231 616.137 47.7721 618.343C44.0351 619.411 40.9184 621.476 38.9364 624.715C36.9544 627.936 36.092 631.892 36.8183 635.848C38.1951 643.708 45.3514 648.715 52.9011 647.104Z" stroke="#FBD0BC" stroke-width="1.65" stroke-linecap="round" stroke-linejoin="round"/>
<path d="M129.866 624.785C127.127 619.813 128.277 613.214 132.407 609.923C136.568 606.632 142.242 607.98 145.071 613.021C147.84 618.098 146.69 624.89 142.484 628.076C138.278 631.262 132.619 629.739 129.866 624.785Z" fill="#FBD0BC"/>
<path d="M62.5235 712.4C60.9803 709.267 62.2512 705.433 65.3528 703.735C68.4543 702.054 72.2216 703.21 73.78 706.431C75.3232 709.634 74.0977 713.625 70.9507 715.201C67.7886 716.794 64.1121 715.534 62.5386 712.4H62.5235Z" fill="#FBD0BC"/>
<path d="M194.953 702.422C193.849 699.603 194.651 696.225 196.769 694.824C198.887 693.424 201.489 694.562 202.609 697.415C203.728 700.269 202.911 703.717 200.748 705.1C198.599 706.483 196.027 705.24 194.953 702.422Z" fill="#FBD0BC"/>
<path d="M124.994 665.293C123.829 662.894 124.449 659.831 126.507 658.413C128.549 656.995 131.212 657.783 132.438 660.198C133.693 662.614 132.937 665.748 130.879 667.148C128.806 668.549 126.174 667.708 124.994 665.31V665.293Z" fill="#FBD0BC"/>
<path d="M190.369 566.246C188.765 563.253 188.901 559.192 190.717 557.161C192.533 555.13 195.331 555.936 196.981 559.017C198.675 562.168 198.433 566.176 196.557 568.067C194.696 569.975 191.912 569.135 190.369 566.229V566.246Z" fill="#FBD0BC"/>
<path d="M24.4573 931.692C20.0092 936.681 15.4249 941.53 10.8255 946.396C17.4372 948.025 24.064 949.425 30.8572 950.808C24.412 950.843 18.1483 950.948 11.809 950.703L26.636 975.648L7.64832 951.491C6.33204 961.451 4.72829 971.359 2.86735 981.32C3.32124 971.71 3.68435 962.327 3.71461 952.769C-0.642729 956.112 -5.21188 959.071 -9.67512 962.222C-5.7868 957.81 -1.83797 953.574 1.88392 948.987C-7.52671 946.502 -16.9827 943.281 -26 940.2C-16.3776 942.073 -6.40712 943.911 3.56331 945.084L-10.9309 920.961L4.62239 940.707C5.394 933.687 5.89328 926.44 6.39256 919.438C6.96748 927.403 7.52728 935.613 7.82987 943.648C13.4127 939.779 18.9653 935.788 24.4573 931.692Z" fill="#FBD0BC"/>
<path d="M198.282 827.989L207.087 838.265L195.755 832.523C194.333 831.683 192.563 832.155 191.549 833.643C187.752 839.333 183.606 844.742 179.627 850.239C182.365 843.744 185.255 837.39 187.767 830.79C188.508 829.109 188.145 827.079 186.904 825.906L175.33 814.282L189.37 821.46C190.808 822.282 192.563 821.81 193.576 820.339L204.485 804.567L197.389 823.105C196.633 824.803 196.996 826.834 198.251 827.989H198.282Z" fill="#FBD0BC"/>
<path d="M89.7871 854.177C94.5983 859.149 101.876 859.096 105.704 853.74C109.546 848.4 108.563 840.243 103.495 835.534C98.4261 830.825 91.3757 831.088 87.7446 836.129C84.1286 841.206 84.9002 849.136 89.7871 854.177Z" stroke="#FBD0BC" stroke-width="1.4" stroke-linecap="round" stroke-linejoin="round"/>
<path d="M142.695 902.23C144.208 897.573 148.551 894.913 152.636 896.383C156.706 897.853 158.899 902.948 157.447 907.832C155.979 912.698 151.35 915.307 147.31 913.714C143.255 912.12 141.228 906.939 142.695 902.23Z" fill="#FBD0BC"/>
<path d="M56.7591 895.753C57.8031 892.865 60.7231 891.762 63.3405 893.267C65.9428 894.755 67.2137 898.309 66.1395 901.232C65.0653 904.156 62.0847 905.311 59.5127 903.788C56.9255 902.248 55.7303 898.659 56.7591 895.753Z" fill="#FBD0BC"/>
<path d="M131.802 992.646C132.801 990.353 135.131 989.25 137.037 990.178C138.928 991.088 139.654 993.696 138.641 996.007C137.612 998.318 135.267 999.456 133.376 998.493C131.469 997.53 130.819 994.957 131.817 992.664L131.802 992.646Z" fill="#FBD0BC"/>
<path d="M116.688 919.49C117.429 917.302 119.562 916.217 121.438 917.075C123.314 917.932 124.237 920.401 123.466 922.606C122.709 924.829 120.546 925.915 118.654 925.022C116.763 924.129 115.901 921.661 116.688 919.49Z" fill="#FBD0BC"/>
<path d="M207.511 919.14C208.222 916.672 210.431 915.114 212.443 915.657C214.455 916.199 215.514 918.65 214.788 921.136C214.062 923.622 211.838 925.215 209.841 924.637C207.844 924.077 206.815 921.609 207.526 919.123L207.511 919.14Z" fill="#FBD0BC"/>
</g>
<g clip-path="url(#clip1_1_468)">
<path d="M1694.07 3.60693L1708.27 130.013L1751.64 204.768L1849.81 278.886L1921.37 220.751" stroke="#FBD0BC" stroke-width="1.1" stroke-linecap="round" stroke-linejoin="round"/>
<path d="M1751.64 204.767L1617.78 259.861L1641.85 145.124L1708.27 130.013" stroke="#FBD0BC" stroke-width="1.1" stroke-linecap="round" stroke-linejoin="round"/>
<path d="M1717.94 135.739C1715.12 143.401 1707.48 146.937 1700.88 143.66C1694.28 140.383 1691.23 131.519 1694.05 123.858C1696.88 116.196 1704.51 112.66 1711.12 115.937C1717.72 119.214 1720.76 128.078 1717.94 135.739Z" fill="#FBD0BC"/>
<path d="M1762.36 209.247C1760.25 214.975 1754.54 217.616 1749.61 215.164C1744.67 212.712 1742.4 206.088 1744.51 200.359C1746.62 194.63 1752.33 191.99 1757.26 194.442C1762.2 196.894 1764.48 203.518 1762.36 209.247Z" fill="#FBD0BC"/>
<path d="M1647.9 146.751C1646.58 150.358 1642.98 152.032 1639.88 150.476C1636.77 148.943 1635.33 144.771 1636.67 141.164C1637.99 137.557 1641.58 135.883 1644.69 137.439C1647.8 138.971 1649.24 143.144 1647.9 146.751Z" fill="#FBD0BC"/>
<path d="M1858.65 283.294C1856.68 288.645 1851.33 291.121 1846.72 288.834C1842.11 286.547 1839.98 280.347 1841.95 274.996C1843.92 269.644 1849.26 267.169 1853.87 269.456C1858.48 271.742 1860.62 277.943 1858.65 283.294Z" fill="#FBD0BC"/>
<path d="M1626.43 264.151C1624.46 269.503 1619.12 271.978 1614.5 269.691C1609.89 267.405 1607.76 261.205 1609.73 255.853C1611.7 250.502 1617.04 248.026 1621.66 250.313C1626.27 252.6 1628.4 258.8 1626.43 264.151Z" fill="#FBD0BC"/>
<path d="M1698.4 9.87754C1697.08 13.4844 1693.48 15.1582 1690.37 13.6023C1687.27 12.07 1685.82 7.89729 1687.16 4.2904C1688.48 0.683511 1692.08 -0.990274 1695.19 0.565638C1698.3 2.09798 1699.74 6.27065 1698.4 9.87754Z" fill="#FBD0BC"/>
<path d="M1926.49 224.877C1925.17 228.483 1921.58 230.157 1918.47 228.601C1915.36 227.045 1913.92 222.896 1915.26 219.289C1916.58 215.683 1920.17 214.009 1923.28 215.565C1926.39 217.097 1927.83 221.27 1926.49 224.877Z" fill="#FBD0BC"/>
</g>
</g>
<defs>
<clipPath id="clip0_1_468">
<rect width="241" height="506.365" fill="white" transform="translate(-26 492.46)"/>
</clipPath>
<clipPath id="clip1_1_468">
<rect width="318" height="289.683" fill="white" transform="translate(1609)"/>
</clipPath>
</defs>
</svg>
