<svg width="27" height="36" viewBox="0 0 27 36" fill="none" xmlns="http://www.w3.org/2000/svg">
<path fill-rule="evenodd" clip-rule="evenodd" d="M26.9963 9.00076C27.1213 2.23994 21.6394 1.23197 21.5854 1.22197L20.8374 1.07097L21.3484 1.64496C22.9364 3.42791 22.9104 5.15486 22.7214 6.09883C22.1674 4.68187 21.2884 3.88089 21.2454 3.8419L20.9584 3.5849L20.8374 3.95389C19.0245 9.52274 21.0234 13.1076 21.3434 13.6266C21.2574 13.8346 21.1804 14.0456 21.1084 14.2526L21.0764 14.3446C20.9294 14.7696 20.7614 15.1836 20.5844 15.5856C20.4664 15.5466 20.3554 15.5266 20.2314 15.5256C19.4425 15.5446 18.9855 16.2956 18.7205 16.9535C18.4045 17.7385 18.0255 18.3875 17.3025 18.8535C17.0785 16.4976 16.5445 14.4166 15.7086 12.6647C16.6785 6.03184 20.4244 0.75198 20.4624 0.699981L20.9644 0L20.1674 0.307992C17.0695 1.50896 15.2746 8.08878 14.6486 10.8557C14.0946 10.0887 13.6736 9.73774 13.6526 9.72074L13.4946 9.59174L13.3366 9.71974C13.3176 9.73574 12.9356 10.0527 12.4217 10.7417C11.7067 7.60879 9.94472 1.47796 6.9278 0.307992L6.13082 0L6.63281 0.699981C6.66981 0.75098 10.3527 5.94284 11.3607 12.4957C10.4787 14.2796 9.91772 16.4176 9.68573 18.8535C8.89975 18.3465 8.56276 17.6415 8.20577 16.8045C7.90778 16.1046 7.25679 15.2986 6.40382 15.5846C6.22682 15.1826 6.05983 14.7696 5.91183 14.3446L5.87883 14.2486C5.80783 14.0436 5.73083 13.8336 5.64584 13.6266C5.96483 13.1076 7.96377 9.52374 6.15082 3.95389L6.03083 3.5849L5.74383 3.8419C5.69984 3.88089 4.82586 4.67787 4.27187 6.08783C4.08988 5.13686 4.07288 3.40591 5.63984 1.64496L6.15082 1.07097L5.40284 1.22197C3.90888 1.51296 2.46192 2.60793 1.55795 3.8049C0.564975 5.11986 0.0949875 6.74682 0.00898983 8.38677C-0.102007 10.4847 0.815968 12.1137 2.70092 13.0316C2.24093 14.7416 4.06888 16.4556 5.46584 16.9945C5.45784 18.9315 8.09077 19.9245 9.58973 20.3024C9.58273 20.4834 9.57973 20.6694 9.57573 20.8564C8.57076 20.2135 7.55379 19.5845 6.50481 19.0185C5.90183 18.6925 4.95286 18.0435 4.22488 18.1555C3.4379 18.2755 2.65092 18.7765 2.01294 19.2315C1.47195 19.6165 0.307982 20.4734 0.685971 21.2884L0.818968 21.5744L1.06696 21.3834C1.68094 20.9134 2.34993 20.4824 3.05591 20.1705C3.69189 19.8905 4.15988 19.8845 4.79686 20.1185C6.47081 20.7334 8.13677 21.6264 9.58973 22.6674C9.58973 22.6684 9.58973 22.6694 9.58973 22.6694C8.68575 22.3554 7.77678 22.0514 6.8578 21.7844C6.13582 21.5744 5.37184 21.3314 4.61487 21.3014C3.81989 21.2704 3.1399 21.9754 2.69492 22.5694C2.18193 23.2564 1.58895 24.3873 2.08893 25.2313L2.31793 25.6193L2.52892 25.2213C2.92791 24.4643 3.65789 23.0804 4.56987 22.8944C4.91986 22.8234 5.34884 22.9714 5.68284 23.0564C6.46181 23.2584 7.22679 23.5174 7.98577 23.7844C7.46179 23.6704 6.74081 23.4804 6.21982 23.7154C5.70684 23.9474 5.40884 24.5773 5.21085 25.0743C4.80286 26.1003 4.37987 27.8812 5.26885 28.7832L5.59284 29.1132L5.69384 28.6582C6.01583 27.2053 6.51081 25.5193 6.75381 25.3433C7.1048 25.3433 8.25077 25.6283 9.90272 26.1243L9.93772 26.3893C9.98072 26.6933 10.0287 26.9963 10.0787 27.2983L10.0877 27.3563C10.1107 27.4903 10.1317 27.6243 10.1547 27.7572L10.2227 28.1522C10.2967 28.5552 10.3797 28.9682 10.4677 29.3872L10.5497 29.7642L10.5547 29.7842L10.5567 29.7922L10.5587 29.8012L10.5607 29.8092L10.5617 29.8182H10.5627L10.5637 29.8212V29.8232L10.5907 29.9492C10.6407 30.1712 10.6927 30.3972 10.7457 30.6252C10.7467 30.6262 10.7467 30.6262 10.7467 30.6262L10.7867 30.7952L10.8727 31.1552L10.8757 31.1672L10.8797 31.1832L10.8807 31.1822L10.9107 31.3092L10.9587 31.4981C11.0197 31.7371 11.0847 31.9811 11.1497 32.2251C10.6277 33.0411 10.0177 34.4381 10.4527 35.415C10.9617 36.56 12.1367 35.241 12.4737 34.6841C12.5906 35.186 12.8646 36 13.4946 36C14.1236 36 14.3976 35.186 14.5146 34.6841C14.8526 35.242 16.0276 36.559 16.5365 35.415C16.9705 34.4381 16.3605 33.0421 15.8396 32.2251C15.9036 31.9831 15.9686 31.7411 16.0296 31.4981C16.0306 31.4971 16.0306 31.4971 16.0306 31.4961L16.0776 31.3092C16.0806 31.2992 16.0826 31.2892 16.0846 31.2792L16.1086 31.1832L16.1126 31.1652H16.1136L16.1186 31.1452L16.2016 30.7952L16.2805 30.4622C16.3215 30.2902 16.3605 30.1182 16.3975 29.9492L16.4265 29.8162L16.4275 29.8132L16.4285 29.8102V29.8092L16.4295 29.8042L16.4315 29.7962V29.7952L16.4335 29.7852L16.4345 29.7842L16.4385 29.7642L16.4505 29.7132L16.5085 29.4522H16.5065L16.5205 29.3882C16.6085 28.9692 16.6915 28.5552 16.7665 28.1522L16.8335 27.7572C16.8575 27.6243 16.8775 27.4903 16.9005 27.3563L16.9105 27.2983C16.9605 26.9963 17.0085 26.6933 17.0515 26.3893L17.0865 26.1243C18.7375 25.6283 19.8834 25.3423 20.2394 25.3303C20.4774 25.5193 20.9724 27.2053 21.2944 28.6582L21.3954 29.1132L21.7204 28.7832C22.6084 27.8812 22.1864 26.1013 21.7774 25.0743C21.5794 24.5773 21.2824 23.9474 20.7684 23.7154C20.2494 23.4804 19.5285 23.6704 19.0055 23.7844C19.7255 23.5314 20.4494 23.2864 21.1864 23.0894C21.5554 22.9904 21.9894 22.8454 22.3764 22.8884C22.8444 22.9394 23.2464 23.4464 23.5204 23.7874C23.8763 24.2313 24.1943 24.7163 24.4603 25.2213L24.6703 25.6203L24.9003 25.2313C25.3713 24.4343 24.8583 23.3754 24.3913 22.7044C23.9433 22.0614 23.2204 21.2674 22.3734 21.3014C21.6694 21.3294 20.9594 21.5484 20.2844 21.7404C19.3135 22.0174 18.3535 22.3374 17.3985 22.6694C17.3985 22.6694 17.3985 22.6684 17.3985 22.6674C18.8515 21.6264 20.5174 20.7334 22.1914 20.1185C22.8294 19.8845 23.2974 19.8915 23.9333 20.1715C24.6393 20.4834 25.3083 20.9144 25.9213 21.3834L26.1693 21.5744L26.3023 21.2884C26.6643 20.5104 25.6043 19.6935 25.0863 19.3115C24.4233 18.8205 23.5913 18.2815 22.7634 18.1555C22.0764 18.0505 21.1924 18.6415 20.6194 18.9455C19.5215 19.5295 18.4615 20.1865 17.4125 20.8564C17.4095 20.6694 17.4065 20.4834 17.3995 20.3014C18.8975 19.9245 21.5314 18.9315 21.5234 16.9945C22.9204 16.4566 24.7483 14.7406 24.2883 13.0316C26.0563 12.1707 26.9973 10.7847 26.9963 9.00076ZM19.4315 1.35196C18.3515 3.10992 16.1616 7.11481 15.3176 11.9047C15.2266 11.7427 15.1336 11.5857 15.0386 11.4337C15.8826 7.4728 17.4305 3.05092 19.4315 1.35196ZM13.4936 10.2677C14.8966 11.6587 15.7196 13.6606 16.2206 15.5516C16.8205 17.8155 16.9815 20.1845 16.8985 22.5214L16.8945 22.6264C16.8825 22.9674 16.8585 23.3064 16.8345 23.6464C14.9316 21.8714 12.0587 21.8684 10.1537 23.6464C10.1297 23.3044 10.1057 22.9624 10.0947 22.6204L10.0907 22.5214C9.95472 18.7845 10.4127 14.6816 12.5087 11.5007L12.5107 11.4977C12.9286 10.8627 13.2946 10.4647 13.4936 10.2677C13.7056 10.4777 13.2946 10.4647 13.4936 10.2677ZM12.0287 11.3067C11.9347 11.4537 11.8417 11.6047 11.7517 11.7617C10.8867 7.01981 8.71875 3.06692 7.65178 1.33596C10.1167 3.37791 11.5787 9.23875 12.0287 11.3067C11.9347 11.4537 11.5787 9.23875 12.0287 11.3067ZM0.497977 9.00076C0.499977 4.24689 3.3329 2.52693 4.73786 1.96695C2.90891 4.59288 4.02188 7.02881 4.03488 7.05581L4.33587 7.69179L4.50787 7.00681C4.80886 5.80884 5.43384 4.94887 5.79783 4.52488C7.1128 8.96976 5.87383 12.0757 5.37384 13.0656C4.89086 12.2707 3.60189 11.6497 2.91591 12.5777C1.31095 11.7997 0.497977 10.5977 0.497977 9.00076C0.499977 4.24689 0.497977 10.5977 0.497977 9.00076ZM3.3009 14.2216C3.04491 13.5646 3.10591 12.4897 4.05088 12.6597C4.86886 12.8077 5.16185 13.7286 5.40184 14.4196L5.43484 14.5156C5.59284 14.9696 5.76983 15.4166 5.96083 15.8456C5.77883 16.0116 5.62784 16.2506 5.54684 16.4836C4.52087 16.0576 3.69189 15.2286 3.3009 14.2216C3.69189 15.2286 3.12591 13.7726 3.3009 14.2216ZM5.96583 17.0655C5.93283 16.6485 6.19982 16.1376 6.62881 16.0506C7.0908 15.9566 7.45679 16.4196 7.63978 16.7845C7.89678 17.2985 8.04477 17.8485 8.38276 18.3205C8.71175 18.7785 9.14374 19.1585 9.63373 19.4295C9.62473 19.5455 9.61773 19.6625 9.61073 19.7815C8.36976 19.4575 6.09182 18.6465 5.96583 17.0655C6.01283 17.6525 5.96083 17.0045 5.96583 17.0655ZM4.13188 19.4075C3.14291 19.3125 2.06193 20.0735 1.28096 20.6034C1.83694 19.7795 3.57789 18.7725 4.33187 18.6605C4.89186 18.6605 6.8438 19.7035 9.56473 21.4564C9.56473 21.6464 9.56673 21.8374 9.57073 22.0324C7.85878 20.8844 5.00785 19.4925 4.13188 19.4075C5.00785 19.4925 4.09088 19.4045 4.13188 19.4075ZM4.67686 22.3734C3.67589 22.3734 2.89191 23.6344 2.42492 24.3873C2.50592 23.5804 3.07291 22.7854 3.65689 22.2654C4.10988 21.8604 4.49187 21.7704 5.06385 21.8694C6.61381 22.1374 8.13477 22.7024 9.61473 23.2214C9.62673 23.4304 9.64073 23.6394 9.65673 23.8484C7.78178 23.1444 5.53284 22.3734 4.67686 22.3734ZM6.75381 24.8303C6.32482 24.8303 6.14582 25.3423 6.00983 25.6803C5.72283 26.3883 5.53184 27.1393 5.35384 27.8822C5.09285 26.8433 5.43284 24.9683 6.31182 24.2573C6.62381 24.0053 7.21879 24.1593 7.57578 24.2263C8.31076 24.3623 9.03175 24.5783 9.74373 24.8063C9.76773 25.0603 9.79572 25.3133 9.82872 25.5663C8.18477 25.0773 7.1518 24.8303 6.75381 24.8303ZM11.0737 35.34C10.3667 35.34 11.2597 33.0501 11.3937 32.8031L11.4027 32.8071C11.7797 32.9551 12.2157 32.9821 12.6146 33.0091C12.4877 33.5451 12.2777 34.0561 11.9807 34.5191C11.8037 34.7941 11.4537 35.34 11.0737 35.34ZM13.4946 35.487C13.2836 35.487 12.9436 34.9241 12.8646 33.9061C12.9786 33.6251 13.0716 33.3291 13.1366 33.0321C13.3746 33.0381 13.6136 33.0381 13.8526 33.0321C13.9166 33.3291 14.0106 33.6241 14.1246 33.9051C14.0456 34.9241 13.7046 35.487 13.4946 35.487ZM15.9706 35.329C15.6936 35.449 15.3056 34.9301 15.1756 34.7591C14.7866 34.2441 14.5226 33.6371 14.3746 33.0091C14.7736 32.9821 15.2086 32.9541 15.5856 32.8071L15.5956 32.8031C15.8386 33.2531 16.0206 33.7491 16.1066 34.2561C16.1466 34.4901 16.2705 35.201 15.9706 35.329ZM15.9046 29.8362C15.8276 30.1832 15.7436 30.5392 15.6566 30.8972L15.6526 30.9132L15.6476 30.9322L15.5876 31.1832L15.5836 31.1962C15.5026 31.5231 15.4126 31.8591 15.3226 32.1971L15.2776 32.3681C14.5296 32.5601 13.7036 32.5451 12.9396 32.5121H12.9376C12.2477 32.4851 11.8697 32.4091 11.7117 32.3681L11.6667 32.1961C11.5757 31.8591 11.4867 31.5241 11.4047 31.1972L11.4017 31.1832L11.3377 30.9172C11.2497 30.5582 11.1647 30.1982 11.0847 29.8382V29.8372L11.0477 29.6652L11.0447 29.6522C10.8807 28.8952 10.7367 28.1542 10.6167 27.4463C12.3387 26.4793 14.6506 26.4793 16.3725 27.4463C16.2745 28.0202 16.1586 28.6152 16.0336 29.2172L16.0306 29.2152L15.9376 29.6842L15.9366 29.6892L15.9346 29.7002L15.9326 29.7082L15.9686 29.7162H15.9606L15.9316 29.7112L15.9526 29.7172L15.9306 29.7182L15.9296 29.7202L15.9046 29.8362ZM16.4705 26.8583C16.4675 26.8773 16.4645 26.8953 16.4615 26.9133C14.6606 25.9713 12.3297 25.9793 10.5267 26.9133C10.4977 26.7143 10.4667 26.5153 10.4377 26.3163L10.3367 25.5503C10.3007 25.2713 10.2697 24.9923 10.2427 24.7123L10.2147 24.4213L10.2137 24.4203L10.2047 24.3243C12.0197 22.3414 14.9736 22.3474 16.7845 24.3233L16.7745 24.4203V24.4213L16.7505 24.6663L16.7485 24.6883C16.7185 24.9923 16.6855 25.2953 16.6465 25.5973L16.6435 25.6153L16.5505 26.3163C16.5255 26.4963 16.4985 26.6763 16.4705 26.8583C16.4985 26.6763 16.4675 26.8773 16.4705 26.8583ZM20.5634 24.1843C21.0114 24.3863 21.2594 25.0993 21.4044 25.5243C21.6524 26.2513 21.8254 27.1213 21.6354 27.8822C21.4684 27.1863 21.2874 26.4883 21.0334 25.8193C20.8954 25.4553 20.7054 24.8303 20.2354 24.8303C19.2215 24.8303 18.1175 25.2813 17.1605 25.5663C17.1915 25.3233 17.2185 25.0803 17.2425 24.8353L17.2485 24.8423L17.2515 24.8043C17.9225 24.5893 18.6005 24.3873 19.2915 24.2493C19.6475 24.1783 20.2114 24.0233 20.5634 24.1843C20.9094 24.3403 20.5224 24.1653 20.5634 24.1843ZM22.6124 21.8274C23.5694 22.0754 24.4673 23.4384 24.5643 24.3863C23.9243 23.3574 23.1044 22.1894 21.7764 22.4334C20.2574 22.7124 18.7745 23.3064 17.3325 23.8484C17.3485 23.6364 17.3615 23.4274 17.3735 23.2214C18.4685 22.8374 19.5705 22.4664 20.6884 22.1594C21.2264 22.0114 22.0434 21.6834 22.6124 21.8274C23.2074 21.9814 22.5864 21.8214 22.6124 21.8274ZM22.6864 18.6625C22.6874 18.6625 22.6884 18.6625 22.6884 18.6625C23.4134 18.7725 25.1523 19.7795 25.7073 20.6034C25.0513 20.1585 24.3423 19.7245 23.5794 19.5005C22.9554 19.3185 22.4374 19.4755 21.8514 19.7025C20.3064 20.3004 18.7955 21.1074 17.4175 22.0324C17.4215 21.8374 17.4235 21.6464 17.4235 21.4564C20.1424 19.7065 22.0934 18.6625 22.6864 18.6625ZM20.1604 18.4535C19.4645 19.0395 18.5525 19.4745 17.3775 19.7815C17.3715 19.6625 17.3635 19.5455 17.3555 19.4295C17.8885 19.1335 18.3545 18.7095 18.6915 18.1955C19.0875 17.5905 19.1815 16.7205 19.7525 16.2466C20.2914 15.7986 20.9264 16.2196 21.0144 16.8585C21.1014 17.4975 20.6104 18.0745 20.1604 18.4535C20.5284 18.1445 19.4645 19.0395 20.1604 18.4535ZM23.6883 14.2216C23.2964 15.2286 22.4674 16.0576 21.4414 16.4836C21.3594 16.2506 21.2104 16.0116 21.0274 15.8456C21.2194 15.4166 21.3954 14.9696 21.5534 14.5156L21.5854 14.4236C21.8234 13.7386 22.1004 12.8537 22.8914 12.6697C23.8653 12.4427 23.9503 13.5476 23.6883 14.2216C23.8633 13.7726 23.2964 15.2286 23.6883 14.2216ZM24.0723 12.5777C23.3884 11.6687 22.0964 12.2767 21.6154 13.0656C21.1154 12.0757 19.8755 8.96976 21.1904 4.52388C21.5554 4.94887 22.1804 5.80884 22.4814 7.00681L22.6534 7.69179L22.9544 7.05581C22.9664 7.02881 24.0793 4.59288 22.2504 1.96695C23.8813 2.61793 25.1913 3.91789 25.8683 5.55885C26.3793 6.79882 26.6533 8.34377 26.4383 9.67974C26.2193 11.0337 25.2573 12.0037 24.0723 12.5777C25.6783 11.7997 24.0723 12.5767 24.0723 12.5777Z" fill="black"/>
</svg>
