<svg width="34" height="35" viewBox="0 0 34 35" fill="none" xmlns="http://www.w3.org/2000/svg">
<path fill-rule="evenodd" clip-rule="evenodd" d="M32.4448 11.0294L32.2958 11.7324C32.1768 12.2944 31.3878 12.1124 31.1298 11.7914C30.6958 11.2484 30.8318 10.5004 30.9378 9.87435L30.9778 9.63435C31.2908 7.68131 31.1098 5.65726 30.4547 3.78723C29.9007 2.20219 28.8057 0.370154 26.8277 0.509157C26.5697 0.387154 26.2947 0.294152 26.0067 0.235151C25.0536 -0.0338548 23.9526 -0.134857 23.0246 0.280152C22.0016 0.738161 21.5176 1.76318 21.3656 2.8072L21.3336 3.02521L21.5466 3.09621C21.5466 3.09621 21.5846 3.10821 21.6506 3.12721C21.1466 5.01825 22.1526 7.3153 24.2516 7.69231C24.1936 7.96831 24.1106 8.32132 23.7836 8.38832C23.3486 8.47732 22.8986 8.51032 22.4586 8.56733C21.7296 8.66233 21.1616 8.77833 20.7695 9.44334C20.4035 10.0624 20.2695 10.8034 20.1595 11.5004C20.0755 12.0314 20.1575 13.2744 19.5865 13.5644C19.0145 13.3354 18.5285 12.7404 18.0995 12.2164L17.9645 12.0484C17.5995 11.5844 17.1705 10.8814 16.5235 10.7854C15.8444 10.6854 15.1674 11.2874 15.1954 11.9554C15.1294 12.0034 15.0554 12.0644 14.9894 12.1454L14.9314 12.2164C14.5024 12.7404 14.0164 13.3354 13.4814 13.5584C12.9174 13.4654 12.9524 12.0314 12.8924 11.6364C12.7864 10.9304 12.6604 10.1904 12.3224 9.55035C11.9734 8.89233 11.4754 8.68933 10.7583 8.59233C10.2883 8.52832 9.81532 8.48332 9.34831 8.40632C8.9603 8.34232 8.8543 8.04031 8.78229 7.69531C10.8853 7.3363 11.8814 5.00525 11.3813 3.12721C11.4473 3.10821 11.4844 3.09621 11.4844 3.09621L11.6974 3.02521L11.6664 2.8072C11.5144 1.76318 11.0293 0.738161 10.0073 0.280152C9.0793 -0.134857 7.97728 -0.0358548 7.02526 0.235151C6.73725 0.294152 6.46125 0.387154 6.20324 0.509157C4.3062 0.373154 3.20418 2.07719 2.64117 3.60622C1.93315 5.52626 1.73015 7.6173 2.05315 9.63435L2.09315 9.87435C2.20016 10.5004 2.33516 11.2484 1.90115 11.7914C1.64415 12.1124 0.855129 12.2934 0.736126 11.7324L0.586123 11.0294L0.235116 11.6604C-0.597902 13.1604 0.93513 14.7035 2.44616 14.7025C2.82917 14.7025 3.21918 14.6305 3.59219 14.4944C3.77919 15.7095 4.1472 16.6305 5.35622 17.1505L3.32018 22.6236L3.47518 22.7416C3.50118 22.7616 4.0932 23.2006 5.17522 23.5566L5.26922 25.8717C5.28622 26.2957 4.96721 26.7007 4.92621 27.1397C4.86221 27.8177 4.96021 28.5127 5.07922 29.1808C5.32822 30.5718 5.73423 31.9408 6.08924 33.3078C6.02624 33.3228 5.96224 33.3308 5.89923 33.3488L5.73523 33.3938L5.70623 33.5578C5.64023 33.9389 5.66923 34.3339 5.79123 34.7019L5.84923 34.8779L9.1573 34.9999H9.1803C9.28631 34.9999 9.38131 34.9619 9.47031 34.9079L11.9444 34.9999H11.9664C12.6884 34.9999 12.6224 34.1839 12.1564 33.8889C11.6034 33.5398 10.9663 33.3238 10.3153 33.2438L10.3113 26.3867L10.7883 23.6556C11.6204 23.4516 12.4694 23.1566 13.3184 22.7726L13.5454 22.6696L10.8963 15.6625C11.0943 15.2335 11.2633 14.7955 11.4133 14.3544C11.7834 15.4195 12.6184 16.1895 13.8214 15.7645C14.8394 15.4065 15.7944 14.5785 16.5525 13.8474C17.3155 14.5785 18.1865 15.4035 19.2095 15.7645C20.4135 16.1895 21.2476 15.4195 21.6186 14.3544C21.7686 14.7955 21.9366 15.2335 22.1356 15.6625L19.4855 22.6696L19.7125 22.7726C20.5615 23.1566 21.4126 23.4516 22.2436 23.6566L22.7156 26.3417V33.2438C22.0646 33.3238 21.4276 33.5398 20.8755 33.8889C20.4085 34.1839 20.3435 34.9999 21.0646 34.9999L23.5606 34.9079C23.6496 34.9619 23.7456 34.9999 23.8516 34.9999L27.1817 34.8779L27.2397 34.7019C27.3617 34.3339 27.3917 33.9389 27.3247 33.5578L27.2957 33.3938L27.1327 33.3488C27.0697 33.3308 27.0057 33.3228 26.9417 33.3078C27.2967 31.9408 27.7027 30.5718 27.9517 29.1808C28.0657 28.5457 28.1557 27.8907 28.1137 27.2437C28.0817 26.7677 27.7437 26.3237 27.7617 25.8717L27.8557 23.5566C28.9377 23.2006 29.5297 22.7616 29.5557 22.7416L29.7117 22.6236L27.6757 17.1505C28.8797 16.6325 29.2557 15.7095 29.4427 14.4954C30.4147 14.8485 31.6278 14.7745 32.3768 14.0044C32.9638 13.4014 33.2168 12.4194 32.7958 11.6604L32.4448 11.0294ZM27.8037 4.00223L27.7997 4.00023C27.0047 3.71422 26.1837 3.25921 25.7667 2.5052C26.1927 2.10119 26.4787 1.55918 26.6357 1.00117L26.6487 1.00817C27.4007 1.38317 28.2847 2.23619 28.3497 4.17323C28.2017 4.13423 28.0127 4.07823 27.8037 4.00223ZM24.4456 0.533157C25.0146 0.533157 25.5896 0.644159 26.1257 0.826163C25.6236 2.6782 23.7566 3.09021 22.0386 2.6802L22.0316 2.6782C21.9976 2.6712 21.9666 2.6632 21.9376 2.6552C22.2116 1.24617 23.0546 0.533157 24.4456 0.533157ZM22.0436 4.13923C22.0436 3.83723 22.0826 3.53922 22.1606 3.24921C22.5406 3.32122 22.9306 3.36422 23.3176 3.36422C24.0066 3.36422 24.7466 3.21721 25.3336 2.84321C25.7917 3.60322 26.6077 4.10423 27.4237 4.42624C27.3077 5.85027 26.1797 7.3313 24.5876 7.2033H24.5856C23.1596 7.10829 22.0436 5.76327 22.0436 4.13923ZM8.39729 7.2073C8.04228 7.2353 7.68627 7.1593 7.36026 7.02329L7.35926 7.02229C6.31224 6.58528 5.69523 5.50626 5.60823 4.42624C6.42325 4.10423 7.23926 3.60322 7.69727 2.84321C8.62029 3.42922 9.82532 3.45322 10.8703 3.24921C11.3243 4.93925 10.3443 7.07729 8.39729 7.2073C9.87132 7.10929 8.31028 7.2143 8.39729 7.2073ZM6.38224 1.00817L6.39524 1.00117C6.55225 1.55918 6.83825 2.10119 7.26426 2.5052C6.75925 3.42022 5.66523 3.91223 4.68221 4.17323C4.72421 2.92121 5.17622 1.60918 6.38224 1.00817ZM8.58529 0.533157C9.97632 0.533157 10.8193 1.24617 11.0933 2.6552C9.35231 3.09021 7.42327 2.7322 6.90526 0.826163C7.44227 0.644159 8.01728 0.533157 8.58529 0.533157ZM1.37414 13.8984C0.826128 13.5774 0.516122 12.9504 0.566123 12.3874C1.13713 12.8234 1.92715 12.6294 2.34216 12.0934C2.86017 11.4214 2.75717 10.5664 2.62517 9.78735L2.58616 9.55235C2.31816 7.88531 2.42616 6.16327 2.89917 4.54024C3.27018 3.26621 3.87719 1.66018 5.26622 1.16117C4.3822 2.02919 4.1232 3.33022 4.1392 4.51324L4.1442 4.82625L4.4582 4.77025C4.66721 4.73124 4.87421 4.67424 5.07722 4.61224C5.21422 5.77127 5.89323 6.90129 6.97726 7.4313C6.91326 8.40932 6.29724 8.63133 5.34922 8.80733C4.71421 8.92433 3.87619 8.97533 3.60319 9.65835C3.37418 10.2344 3.39518 10.9684 3.38418 11.5764L3.37818 11.8184C3.37518 11.9064 3.37218 11.9954 3.37218 12.0844L3.37918 12.3124L3.38618 12.3134C3.39718 12.8624 3.43818 13.4134 3.51018 13.9584C2.78217 14.2564 1.95415 14.2384 1.37414 13.8984C1.95415 14.2384 0.826128 13.5774 1.37414 13.8984ZM5.61023 26.6317C5.75123 26.4167 5.81923 26.1467 5.80723 25.8507L5.72123 23.7196C6.30824 23.8686 6.91826 23.9586 7.52427 23.9906L7.11726 26.3417V33.2048C6.95626 33.2008 6.78325 33.2038 6.62225 33.2178C6.24424 31.7618 5.79923 30.3008 5.56323 28.8147C5.46823 28.2197 5.23922 27.1967 5.61023 26.6317C5.75123 26.4167 5.49623 26.8057 5.61023 26.6317ZM9.2213 23.9366C9.55531 23.8996 9.88932 23.8516 10.2193 23.7866L9.77632 26.3417V33.2028C9.61631 33.2038 9.44531 33.2148 9.28631 33.2348C8.8573 31.5858 8.31728 29.9168 8.14328 28.2177C8.10128 27.8027 8.07228 27.3667 8.15428 26.9547C8.23328 26.5637 8.48429 26.2777 8.46729 25.8507L8.39229 23.9986C8.66829 23.9896 8.9473 23.9666 9.2213 23.9366ZM8.10628 30.8218C8.26528 31.4438 8.59129 32.7018 8.75429 33.3308C8.73129 33.3358 8.70829 33.3418 8.68529 33.3488L8.52129 33.3948L8.50829 33.4708C8.23528 33.3708 7.94428 33.2978 7.65627 33.2538L7.65327 28.6437C7.75527 29.3788 7.92228 30.1038 8.10628 30.8218C8.26528 31.4438 8.09028 30.7628 8.10628 30.8218ZM7.89328 25.0047L7.92828 25.8717C7.94228 26.1997 7.73027 26.4327 7.65227 26.7387V26.3867L7.89328 25.0047ZM6.21624 33.8149C7.15626 33.6108 8.48529 33.7569 9.1983 34.4609C9.1893 34.4709 9.1853 34.4689 9.1803 34.4709V34.4819L9.1783 34.4829V34.4709L6.25524 34.3629C6.21524 34.1839 6.20224 33.9989 6.21624 33.8149C6.29724 33.7968 6.20224 33.9989 6.21624 33.8149ZM11.9664 34.4709V34.7359L11.9644 34.4709L9.74931 34.3889C9.74931 34.3839 9.74932 34.3779 9.74831 34.3729C9.71631 34.0689 9.43631 33.9219 9.1933 33.7859C10.1723 33.6238 11.2023 33.8589 11.9974 34.4459C11.9894 34.4709 11.9734 34.4709 11.9664 34.4709ZM10.4893 23.1866C9.71131 23.3676 8.9123 23.4706 8.11228 23.4746H8.01228L7.82627 23.4716C6.49525 23.4396 5.10122 23.1386 3.96519 22.4296L5.85623 17.3485C5.91623 17.3705 5.97724 17.3925 6.03724 17.4135L6.35624 17.5305C7.12726 17.8215 8.02928 18.1145 8.8623 18.1145C9.75031 18.1145 10.0943 17.0495 9.55131 16.4285L10.5343 16.4195L10.5773 16.3385L12.8654 22.3926C12.0654 22.7396 11.2673 23.0066 10.4893 23.1866C11.2673 23.0066 10.2883 23.2336 10.4893 23.1866ZM5.23422 11.5804C5.13622 10.4214 8.26628 10.5614 8.02628 11.5284L8.01228 11.5734L8.52429 11.7384L8.54129 11.6834C8.8923 10.6584 11.3153 10.2884 11.4564 11.5684C11.5234 12.1714 11.3003 12.8474 11.1453 13.4234C10.9493 14.1524 10.6863 14.8625 10.3623 15.5465L10.2893 15.7045C10.2603 15.7675 10.2313 15.8305 10.2013 15.8935H10.1633L8.08128 15.9125C7.40527 15.7375 6.67825 15.5115 6.14824 15.0435L6.14124 15.0195C5.84423 13.9104 5.48923 12.8024 5.24522 11.6814C5.24022 11.6434 5.23722 11.6094 5.23422 11.5804C5.23722 11.6094 5.23122 11.5514 5.23422 11.5804ZM14.5434 14.7815C14.0594 15.1095 13.3514 15.5685 12.7404 15.2965C12.0794 15.0025 11.9214 14.1894 11.7204 13.5844L11.6864 13.4834C11.9144 12.6234 12.3914 11.2284 11.4694 10.6084C10.5873 10.0154 9.1243 10.1354 8.39829 10.9114C7.70727 9.87835 4.57521 9.98135 4.69821 11.5704C4.70121 11.6474 4.70421 11.7204 4.71921 11.7904C4.79321 12.4334 4.90621 13.0764 5.05022 13.7074C5.16622 14.2164 5.27922 15.0285 5.72223 15.3815C6.32824 15.9555 7.18326 16.2285 7.98028 16.4335L8.01528 16.4425H8.01928C8.35229 16.5275 9.0323 16.5315 9.2073 16.8725C9.36031 17.1695 9.2533 17.5855 8.8623 17.5855C8.09628 17.5855 7.25726 17.3035 6.55025 17.0365L6.22324 16.9175C6.08124 16.8665 5.93724 16.8145 5.79623 16.7585L5.78823 16.7565C5.28322 16.5595 4.76521 16.3015 4.4982 15.8125C4.2242 15.3095 4.1612 14.6985 4.0802 14.1434L4.0712 14.0804C3.97619 13.4324 3.92619 12.7604 3.92219 12.0834L3.92119 11.9864V11.9834C3.92019 11.8834 3.91919 11.7834 3.92219 11.6834L3.92319 11.5854C3.93319 11.0674 3.94019 10.5104 4.0592 10.0034C4.1962 9.42434 4.93921 9.42134 5.43022 9.33134C6.48425 9.13634 7.38227 8.78433 7.50227 7.63231C7.73727 7.69931 7.99528 7.73731 8.23928 7.74131C8.31829 8.14932 8.46129 8.59933 8.8603 8.80833C9.31531 9.04734 9.97432 9.02433 10.4733 9.08834C10.8703 9.14034 11.3173 9.13934 11.6064 9.44934C11.9204 9.78635 12.0604 10.2714 12.1674 10.7044C12.2804 11.1654 12.3504 11.6364 12.4154 12.1054C12.4834 12.5944 12.4824 13.2294 12.7884 13.6464C13.6194 14.7815 14.8104 13.2104 15.3524 12.5474L15.3704 12.5244C15.5494 12.8374 15.8514 13.1924 16.1435 13.5034C15.5124 14.1064 14.8264 14.5905 14.5434 14.7815C14.8264 14.5905 13.3454 15.5925 14.5434 14.7815ZM22.3596 10.8524C23.1346 10.6754 24.1996 10.8314 24.4896 11.6834L24.5076 11.7384L25.0186 11.5734L25.0056 11.5324C24.7566 10.5874 27.6557 10.4404 27.8017 11.4894C27.8007 11.5284 27.7947 11.5974 27.7827 11.6944C27.5267 12.8104 27.1867 13.9134 26.8897 15.0195L26.8837 15.0435C26.3527 15.5115 25.6246 15.7375 24.9496 15.9125L22.8306 15.8935C22.8016 15.8325 22.7726 15.7715 22.7446 15.7105L22.6686 15.5465C22.2616 14.6845 21.9566 13.7824 21.7436 12.8564C21.5596 12.0534 21.3096 11.0904 22.3596 10.8524C22.8366 10.7434 22.0456 10.9234 22.3596 10.8524ZM23.7106 23.9276C24.0166 23.9636 24.3296 23.9886 24.6386 23.9986L24.5646 25.8497C24.5466 26.2777 24.7986 26.5637 24.8766 26.9557C24.9646 27.3927 24.9286 27.8567 24.8796 28.2957C24.6936 29.9668 24.1676 31.6108 23.7456 33.2348C23.5866 33.2148 23.4146 33.2038 23.2546 33.2028L23.2506 26.2977L22.8126 23.7866C23.1096 23.8456 23.4096 23.8916 23.7106 23.9276ZM25.0406 33.3218C24.8646 33.3628 24.6926 33.4088 24.5236 33.4708L24.5096 33.3948L24.3466 33.3488C24.3226 33.3418 24.2996 33.3358 24.2766 33.3308C24.6766 31.7898 25.1546 30.2418 25.3756 28.6637V33.2538C25.2626 33.2708 25.1506 33.2958 25.0406 33.3218ZM25.3276 26.5857C25.2366 26.3347 25.0916 26.1507 25.1026 25.8717L25.1386 24.9947L25.3756 26.3417V26.7257C25.3596 26.6787 25.3436 26.6317 25.3276 26.5857ZM23.2816 34.3889L21.0666 34.4709L21.0646 34.7359V34.4709L21.0416 34.4179C21.8436 33.8579 22.8676 33.6238 23.8386 33.7859C23.5966 33.9279 23.2976 34.0729 23.2816 34.3889ZM26.7757 34.3629L23.8776 34.4699L23.8286 34.4179C24.0126 34.2889 24.2106 34.1829 24.4146 34.0889C25.1566 33.7489 26.0127 33.6408 26.8147 33.8149C26.8297 33.9989 26.8167 34.1839 26.7757 34.3629ZM27.1037 30.5318C26.9657 31.0728 26.5847 32.5418 26.4087 33.2178C26.2467 33.2038 26.0767 33.2008 25.9137 33.2048L25.9107 26.2977L25.5076 23.9906C26.1127 23.9576 26.7237 23.8696 27.3097 23.7196L27.2237 25.8497C27.2027 26.3697 27.5577 26.8237 27.5817 27.3567C27.6287 28.4197 27.3647 29.5088 27.1037 30.5318C27.8507 27.6017 26.9657 31.0728 27.1037 30.5318ZM27.5137 23.1126C26.7907 23.3316 26.0137 23.4526 25.2046 23.4716L25.0186 23.4746H24.9186C24.1186 23.4706 23.3206 23.3676 22.5416 23.1866H22.5396C21.7616 23.0066 20.9646 22.7396 20.1655 22.3926L22.4546 16.3385L22.4966 16.4195L23.4786 16.4285C22.9876 16.9955 23.2156 18.0085 24.0316 18.1065C24.8706 18.2065 25.9047 17.8215 26.6747 17.5305L26.9937 17.4135C27.0537 17.3925 27.1147 17.3705 27.1757 17.3485L29.0657 22.4296C28.8177 22.5846 28.2887 22.8766 27.5137 23.1126C28.2887 22.8766 26.7907 23.3316 27.5137 23.1126ZM28.3537 16.0735C27.9637 16.5225 27.3547 16.7205 26.8077 16.9175L26.4817 17.0365C25.7747 17.3035 24.9346 17.5855 24.1686 17.5855C23.8286 17.5855 23.7006 17.2715 23.7806 16.9845C23.9076 16.5285 24.6296 16.5405 25.0126 16.4425H25.0166L25.0516 16.4335C25.8537 16.2265 26.7077 15.9495 27.3197 15.3745L27.3777 15.3225C27.8477 14.8445 28.1887 12.7354 28.2997 11.8374C28.3257 11.7334 28.3397 11.6224 28.3357 11.5014C28.3887 10.7884 27.4407 10.3744 26.8567 10.2884C26.1357 10.1834 25.0756 10.2534 24.6326 10.9114C23.9076 10.1344 22.4436 10.0154 21.5616 10.6084C20.6395 11.2284 21.1176 12.6234 21.3446 13.4834L21.3156 13.5724C21.1196 14.1614 20.9755 14.9035 20.3855 15.2485C19.8185 15.5795 19.1375 15.1995 18.6555 14.8925C18.0215 14.4874 17.4515 13.9714 16.9135 13.4534C16.5395 13.0944 15.9214 12.6164 15.7644 12.0974C15.7524 12.0634 15.7434 12.0314 15.7384 12.0004L15.7334 11.9704C15.6814 11.5424 16.2275 11.1604 16.6175 11.3674C16.9975 11.5694 17.2805 12.0444 17.5385 12.3714L17.6785 12.5474C18.1845 13.1644 19.3165 14.6995 20.1585 13.7504C20.4775 13.3924 20.5075 12.8834 20.5705 12.4314C20.6445 11.9004 20.7125 11.3684 20.8315 10.8454C20.9265 10.4244 21.0466 9.98236 21.2916 9.61835C21.5606 9.21934 21.9236 9.17334 22.3776 9.11234C22.9136 9.04034 23.5286 9.04633 24.0406 8.86533C24.5286 8.69333 24.7036 8.19832 24.7926 7.74131C25.0366 7.73731 25.2936 7.69931 25.5286 7.63231C25.6496 8.78433 26.5467 9.13634 27.6007 9.33134C28.0087 9.40634 28.7657 9.41734 28.9337 9.87435C29.1237 10.3894 29.0977 11.0454 29.1077 11.5854L29.1097 11.6834C29.1117 11.7804 29.1117 11.8814 29.1097 11.9794V12.0044L29.1087 12.0834C29.1047 12.7694 29.0517 13.4554 28.9527 14.1344C28.8597 14.7715 28.7987 15.5625 28.3537 16.0735C28.6317 15.7545 28.0617 16.4085 28.3537 16.0735ZM31.6578 13.8984C31.0778 14.2384 30.2477 14.2554 29.5207 13.9584C29.5927 13.4154 29.6337 12.8614 29.6447 12.3144V12.3134L29.6577 12.3124L29.6587 12.0834C29.6587 11.9954 29.6567 11.9084 29.6527 11.8214L29.6467 11.5764C29.6367 10.9684 29.6577 10.2344 29.4277 9.65935C29.1547 8.97533 28.3167 8.92533 27.6827 8.80733C26.7347 8.63133 26.1177 8.40932 26.0547 7.4313C27.1377 6.90029 27.8177 5.77127 27.9537 4.61224C28.1567 4.67424 28.3637 4.73124 28.5737 4.77025L28.8877 4.82625L28.8917 4.51324C28.9087 3.31622 28.6417 2.04519 27.7657 1.16117C29.1547 1.65918 29.7607 3.26621 30.1317 4.54024C30.6048 6.16327 30.7128 7.88531 30.4457 9.55235L30.4057 9.78735C30.2737 10.5664 30.1707 11.4214 30.6898 12.0934C31.1038 12.6304 31.8938 12.8224 32.4648 12.3874C32.5158 12.9504 32.2058 13.5774 31.6578 13.8984C32.2058 13.5774 31.0778 14.2384 31.6578 13.8984Z" fill="black"/>
</svg>
