<svg width="34" height="16" viewBox="0 0 34 16" fill="none" xmlns="http://www.w3.org/2000/svg">
<mask id="mask0_1_128" style="mask-type:luminance" maskUnits="userSpaceOnUse" x="0" y="0" width="34" height="16">
<path d="M34 0H0V16H34V0Z" fill="white"/>
</mask>
<g mask="url(#mask0_1_128)">
<path d="M9.39183 8.37501C8.94563 7.79964 8.73662 7.07623 8.80745 6.35248C8.87828 5.62873 9.22363 4.95922 9.77297 4.48063C9.90128 4.36024 10.0318 4.24284 10.1616 4.12394C10.1582 4.11556 10.1539 4.10754 10.1489 4.10001C10.0941 4.03571 10.0393 3.97215 9.98381 3.90859C9.56338 3.39944 8.98097 3.0488 8.33316 2.9148C7.82214 2.8201 7.29564 2.85142 6.79956 3.00603C6.46117 3.10623 6.12429 3.21839 5.78741 3.31785C5.5504 3.39619 5.29643 3.4086 5.05287 3.35374C4.8788 3.30962 4.70323 3.27223 4.52766 3.22213C4.11901 3.08828 3.6988 2.99241 3.27242 2.93574C2.86722 2.88336 2.45533 2.92945 2.07187 3.07007C1.68842 3.2107 1.34479 3.44169 1.0703 3.74333C0.51899 4.34529 0.169657 5.10355 0.0709112 5.9126C-0.0659099 6.8315 -0.00426152 7.76892 0.251732 8.66215C0.537059 9.66928 0.993881 10.6201 1.60226 11.473C1.83543 11.8232 2.13152 12.1274 2.47561 12.3703C2.63723 12.4946 2.82386 12.5826 3.02275 12.6285C3.22164 12.6743 3.42811 12.6768 3.62806 12.6358C3.89556 12.5657 4.15864 12.4798 4.41587 12.3786C4.74847 12.2378 5.105 12.1616 5.46628 12.1542C5.76165 12.1688 6.05355 12.2241 6.33362 12.3187C6.60823 12.4032 6.88059 12.4937 7.15895 12.5737C7.41326 12.6498 7.68291 12.6596 7.9421 12.6021C8.20128 12.5446 8.44133 12.4218 8.63928 12.2455C8.76963 12.1426 8.89203 12.0301 9.00542 11.909C9.59122 11.2537 10.057 10.501 10.3815 9.6851C10.4392 9.54526 10.4873 9.40094 10.5413 9.25513C10.482 9.2327 10.4325 9.21475 10.3845 9.19531C9.98247 9.02082 9.63831 8.73641 9.39183 8.37501ZM5.98324 2.92976C6.29215 2.79692 6.56801 2.59806 6.7913 2.34724C7.30126 1.82935 7.60726 1.1459 7.65339 0.421741C7.65548 0.280933 7.64947 0.140122 7.63539 0C6.90594 0.104036 6.24257 0.478049 5.77735 1.04757C5.31212 1.6171 5.07918 2.34035 5.1249 3.07333C5.1294 3.07333 5.1339 3.08081 5.1384 3.08006C5.42626 3.07339 5.71141 3.02296 5.98399 2.9305M19.3963 2.65757C18.5389 2.00511 17.4706 1.68996 16.3951 1.77221C15.5078 1.76741 14.6216 1.83619 13.7458 1.97785V12.5064H15.1293V8.23742C15.4945 8.31242 15.8672 8.34429 16.2398 8.33238C16.8348 8.36635 17.4306 8.2802 17.9915 8.07911C18.5523 7.87802 19.0666 7.56612 19.5036 7.16213C19.7853 6.85598 20.0034 6.49716 20.1451 6.10644C20.2867 5.71572 20.3492 5.30087 20.3289 4.88592C20.3453 4.46887 20.27 4.05329 20.1084 3.66825C19.9468 3.28321 19.7027 2.93802 19.3933 2.65682M16.2683 7.22569C15.8845 7.23617 15.5009 7.199 15.1263 7.11502V2.97238C15.5544 2.88674 15.9909 2.84962 16.4273 2.86171C17.9504 2.86171 18.9491 3.54143 18.9491 4.94873C18.9491 6.41884 17.9339 7.22494 16.2683 7.22494M32.5272 4.85377L31.0041 9.34037C30.8135 9.89372 30.6552 10.4785 30.5126 10.9369H30.4811C30.3543 10.4785 30.1637 9.87727 29.9889 9.37178L28.3083 4.85377H26.7814L29.6205 11.9045C29.671 12.0199 29.7032 12.1426 29.7158 12.2679C29.6987 12.3842 29.6611 12.4966 29.6048 12.5999C29.3401 13.2005 28.9386 13.7312 28.4321 14.15C28.0721 14.4521 27.6575 14.6829 27.2106 14.8297L27.5595 16C28.1992 15.8529 28.7895 15.5423 29.2724 15.0989C30.2238 14.2764 30.9065 12.9304 31.9059 10.3087L34 4.85451L32.5272 4.85377ZM26.4535 7.81044C26.4535 6.27677 25.8826 4.68028 23.5349 4.68028C22.6472 4.66831 21.7738 4.90373 21.0131 5.36L21.3305 6.27677C21.9315 5.90677 22.6236 5.70981 23.3301 5.70772C23.5683 5.68138 23.8094 5.70934 24.0352 5.78947C24.2611 5.8696 24.4657 5.99981 24.6336 6.17028C24.8015 6.34075 24.9284 6.54701 25.0047 6.77349C25.0809 6.99998 25.1045 7.24077 25.0737 7.47768V7.63546C22.1078 7.61976 20.4579 8.63149 20.4579 10.4807C20.4545 10.7824 20.514 11.0816 20.6326 11.3592C20.7512 11.6368 20.9264 11.8869 21.147 12.0936C21.3676 12.3002 21.6289 12.459 21.9143 12.5598C22.1996 12.6606 22.5029 12.7012 22.8048 12.6792C23.2587 12.6888 23.7084 12.5906 24.1166 12.3927C24.5249 12.1948 24.88 11.9029 25.1525 11.5411H25.1998L25.3108 12.5057H26.5796C26.485 11.8992 26.4426 11.2858 26.4528 10.6722L26.4535 7.81044ZM25.103 9.92887C25.0997 10.0796 25.0729 10.229 25.0235 10.3715C24.8907 10.7537 24.6393 11.0837 24.3057 11.3139C23.9721 11.5441 23.5736 11.6624 23.168 11.6517C22.9905 11.6641 22.8125 11.638 22.646 11.5754C22.4796 11.5128 22.3287 11.4151 22.2037 11.289C22.0786 11.1629 21.9824 11.0114 21.9216 10.8447C21.8607 10.6781 21.8367 10.5004 21.8512 10.3237C21.8512 8.83787 23.5769 8.56868 25.103 8.60382V9.92887Z" fill="white"/>
</g>
</svg>
