<svg width="30" height="30" viewBox="0 0 30 30" fill="none" xmlns="http://www.w3.org/2000/svg">
<path d="M15 0C6.71634 0 0 6.71635 0 15C0 23.2837 6.71634 30 15 30C23.2836 30 30 23.2837 30 15C30 6.71635 23.2836 0 15 0ZM24.7415 24.7415C22.1402 27.3428 18.6795 28.7774 15 28.7774C11.3204 28.7774 7.8598 27.3451 5.2585 24.7415C2.65719 22.1402 1.22264 18.6796 1.22264 15C1.22264 11.3204 2.65486 7.8598 5.2585 5.2585C7.8598 2.6572 11.3204 1.22264 15 1.22264C18.6795 1.22264 22.1402 2.65487 24.7415 5.2585C27.3428 7.8598 28.7774 11.3204 28.7774 15C28.7774 18.6796 27.3451 22.1402 24.7415 24.7415Z" fill="#983809"/>
<path d="M22.5598 12.1999L22.5162 11.8788C22.3686 10.8066 21.3772 10 20.2008 10H10.2992C9.1228 10 8.13139 10.8047 7.98382 11.8788L7.94018 12.1999C7.68661 14.0596 7.68661 15.9404 7.94018 17.8001L7.98382 18.1212C8.13139 19.1934 9.1228 20 10.2992 20H20.2008C21.3772 20 22.3686 19.1953 22.5162 18.1212L22.5598 17.8001C22.8134 15.9404 22.8134 14.0596 22.5598 12.1999ZM13.3524 17.1713V12.8268L17.9727 14.9981L13.3524 17.1693V17.1713Z" fill="#983809"/>
</svg>
