<svg width="29" height="35" viewBox="0 0 29 35" fill="none" xmlns="http://www.w3.org/2000/svg">
<path fill-rule="evenodd" clip-rule="evenodd" d="M24.6586 1.16097C23.2626 0.378989 22.0127 0 20.8387 0C19.0778 0 17.7878 0.851976 16.5408 1.67695C16.2328 1.87995 15.9269 2.08194 15.6159 2.26994C14.1719 3.14191 12.6239 3.22091 11.697 3.17591V2.63993H9.15604V4.04889C7.90608 4.19888 6.65611 4.93686 5.77214 6.07283C4.63017 7.53879 4.17018 9.37874 3.89819 10.8177C3.13021 14.8616 3.27421 19.0465 3.4132 23.0924C3.4972 25.5603 3.5852 28.1032 3.4652 30.6001C2.96522 30.1722 2.13624 30.0252 1.46926 30.2872C0.831275 30.5381 0.322289 31.1341 0.107295 31.8831C-0.107699 32.6321 0.00429806 33.4191 0.408287 33.9871C0.822275 34.572 1.53526 34.921 2.31423 34.921C2.94122 34.921 3.5132 34.701 3.92819 34.309C4.29818 34.736 4.85516 35 5.42315 35C5.54814 35 5.67314 34.987 5.79314 34.961C6.42112 34.828 6.9641 34.342 7.2111 33.7341C7.80408 34.246 8.57806 34.5 9.31804 34.388C10.26 34.243 11.06 33.4731 11.22 32.5561C11.393 31.5701 10.775 30.5291 9.87302 30.2832C9.34804 30.1402 8.75705 30.3052 8.35006 30.6451C8.74905 25.0713 8.59906 19.4455 7.90308 13.9026L7.87908 13.7076C7.72308 12.4777 7.56209 11.2067 7.83808 10.0207C8.04207 9.14575 8.53206 8.38077 9.15604 7.92378V8.42877H11.697V8.00378C11.951 8.01078 12.227 8.03078 12.5279 8.06278L12.7919 12.5097C12.8429 13.3716 13.0089 14.4076 13.8459 14.7726C14.0149 14.8466 14.1999 14.8846 14.3979 14.8846C14.7279 14.8846 15.0909 14.7826 15.5089 14.5726C16.4708 14.0886 17.3148 13.3446 17.9348 12.4427C17.9428 12.4767 17.9508 12.5107 17.9588 12.5437L17.9978 12.7116C17.9398 12.7586 17.8818 12.8056 17.8218 12.8506L17.7178 12.9296V13.0626C17.7178 13.0846 17.7218 13.6226 18.0318 14.6666C18.0658 14.7826 18.1028 14.8806 18.1448 14.9696L18.0268 15.0596L18.2238 15.2766C18.3678 15.4356 18.5278 15.5606 18.6988 15.6716C17.9178 17.4115 17.3298 19.1975 16.9148 21.1244L16.8458 21.4434L17.7298 21.4444C17.7448 21.6214 17.7598 21.7964 17.7768 21.9794C17.8628 22.8524 17.9598 23.8423 17.8288 25.4513C17.6958 27.0652 17.5938 28.1262 17.4908 29.1852C17.4388 29.7202 17.3868 30.2552 17.3308 30.8611C17.3008 31.1941 17.2688 31.5391 17.1108 31.8061C16.9298 32.1121 16.5968 32.3001 16.2438 32.5001C16.1608 32.5471 16.0798 32.5931 15.9989 32.6421C15.7239 32.8061 15.3549 33.0831 15.1559 33.4671C15.0689 33.6371 15.0749 33.8381 15.1719 34.0061C15.2709 34.177 15.4529 34.283 15.6449 34.283L17.9798 34.0321C18.2238 34.0071 18.5568 33.9701 18.8088 33.7441C19.1648 33.4231 19.1658 32.9211 19.1678 32.5171L19.1688 32.3991C19.1778 31.6121 19.4178 30.8631 19.6717 30.0692C19.7787 29.7362 19.8847 29.4022 19.9747 29.0652C20.3327 27.7092 20.4087 26.2873 20.4817 24.9123C20.5337 23.9253 20.5937 22.9124 20.7537 21.9334C20.9147 22.9124 20.9737 23.9253 21.0267 24.9123C21.0997 26.2873 21.1747 27.7092 21.5337 29.0662C21.6227 29.4022 21.7297 29.7362 21.8357 30.0692C22.0897 30.8631 22.3297 31.6121 22.3387 32.3991L22.3397 32.5161C22.3417 32.9201 22.3437 33.4231 22.6987 33.7441C22.9517 33.9701 23.2846 34.0071 23.5276 34.0321L25.8046 34.28L25.8636 34.283C26.0556 34.283 26.2366 34.177 26.3366 34.0061C26.4336 33.8381 26.4396 33.6371 26.3516 33.4671C26.1536 33.0831 25.7836 32.8061 25.5086 32.6421C25.4286 32.5931 25.3466 32.5471 25.2636 32.5001C24.9106 32.3001 24.5776 32.1121 24.3966 31.8061C24.2396 31.5391 24.2076 31.1941 24.1766 30.8611C24.1206 30.2592 24.0696 29.7272 24.0176 29.1942C23.9156 28.1322 23.8116 27.0702 23.6796 25.4513C23.5476 23.8423 23.6446 22.8544 23.7306 21.9824C23.7486 21.8004 23.7626 21.6264 23.7776 21.4514L24.4666 21.4524L23.0607 16.5075C22.9937 16.2725 22.9147 16.0476 22.8067 15.8356L24.1266 12.4927C24.6456 14.8336 25.2226 17.2205 26.2256 19.4345C26.2636 19.5175 26.2996 19.6015 26.3366 19.6875C26.5256 20.1314 26.7396 20.6354 27.1875 20.9174C27.3625 21.0274 27.5655 21.0874 27.7585 21.0874C28.0975 21.0874 28.3805 20.9094 28.5585 20.5844C28.8105 20.1244 28.6775 19.5885 28.5555 19.2255C28.3895 18.7305 28.2155 18.3815 28.0315 18.0115C27.7765 17.4965 27.5115 16.9645 27.2215 15.9436C26.8145 14.5116 26.4736 13.2186 26.4126 11.8817C26.4026 11.6487 26.3996 11.4147 26.3966 11.1807C26.3896 10.6017 26.3826 10.0037 26.2576 9.41774C26.1886 9.09075 26.0496 8.86375 25.8896 8.69776C27.0895 8.30677 28.7705 7.98878 28.7895 7.98578L28.9985 7.94678V2.23394H28.7445C27.2065 2.23394 24.6626 1.16097 24.6586 1.16097ZM9.15604 4.95486C7.81308 5.64784 6.70211 6.59482 5.93313 7.73178C4.95116 9.18574 4.54317 10.9337 4.81416 12.5307C4.86016 12.8056 4.92716 13.0826 4.99216 13.3496C5.15015 13.9986 5.29815 14.6126 5.18515 15.2226C5.12215 15.5616 4.97416 15.9006 4.83116 16.2275C4.60217 16.7515 4.36518 17.2925 4.43817 17.8885C4.48317 18.2575 4.64217 18.5865 4.79616 18.9035C4.95516 19.2315 5.10516 19.5415 5.12416 19.8744C5.14715 20.2734 4.97916 20.6534 4.80216 21.0574C4.63017 21.4484 4.45117 21.8544 4.44317 22.3024C4.43517 22.7224 4.57817 23.1094 4.71617 23.4843C4.84816 23.8423 4.97316 24.1793 4.96616 24.5283C4.95916 24.9023 4.80216 25.2613 4.63617 25.6403C4.43017 26.1103 4.21618 26.5973 4.29918 27.1322C4.34818 27.4472 4.49517 27.7282 4.63817 27.9992C4.80716 28.3232 4.96816 28.6302 4.93216 28.9502C4.90716 29.1792 4.78116 29.3892 4.64917 29.6132C4.51917 29.8312 4.38418 30.0582 4.32918 30.3242C4.26518 30.6371 4.32118 30.9391 4.37618 31.2331C4.40718 31.4021 4.43717 31.5611 4.44417 31.7191C4.46417 32.1701 4.24618 32.6351 3.85919 32.9621C3.4732 33.2901 2.98821 33.4211 2.56223 33.3131C2.15224 33.2081 1.81925 32.9021 1.73525 32.5511C1.69025 32.3621 1.73125 32.1381 1.84425 31.9651C1.93724 31.8211 2.06624 31.7291 2.20924 31.7071C2.38723 31.6791 2.55823 31.8011 2.64922 31.9351C2.71622 32.0361 2.73222 32.1421 2.72622 32.2381C2.71022 32.5271 3.00421 32.5611 3.06221 32.3691C3.12421 32.1631 3.07921 31.9311 2.94122 31.7261C2.75522 31.4481 2.44523 31.2981 2.15524 31.3441C1.91224 31.3821 1.69725 31.5301 1.54726 31.7611C1.37926 32.0201 1.31926 32.3491 1.38926 32.6381C1.50526 33.1261 1.93224 33.5311 2.47723 33.6691C2.60323 33.7011 2.73322 33.7171 2.86422 33.7171C3.28721 33.7171 3.72419 33.5531 4.08518 33.2461C4.55817 32.8461 4.82616 32.2681 4.80016 31.7011C4.79216 31.5171 4.75817 31.3371 4.72617 31.1631C4.67617 30.8941 4.62817 30.6401 4.67817 30.4012C4.72017 30.1962 4.83416 30.0062 4.95316 29.8052C5.10016 29.5572 5.25215 29.3012 5.28715 28.9922C5.33515 28.5572 5.14015 28.1842 4.95116 27.8242C4.81816 27.5692 4.69117 27.3282 4.65217 27.0742C4.58517 26.6483 4.76817 26.2323 4.96016 25.7913C5.13515 25.3953 5.31415 24.9843 5.32315 24.5363C5.33115 24.1163 5.18815 23.7283 5.04916 23.3533C4.91716 22.9954 4.79216 22.6574 4.79916 22.3094C4.80616 21.9374 4.96216 21.5834 5.12715 21.2084C5.31415 20.7824 5.50814 20.3424 5.48015 19.8524C5.45715 19.4445 5.28315 19.0865 5.11516 18.7395C4.96816 18.4365 4.82916 18.1495 4.79216 17.8425C4.73117 17.3495 4.93816 16.8775 5.15615 16.3785C5.30815 16.0326 5.46415 15.6736 5.53614 15.2926C5.66314 14.6016 5.49814 13.9196 5.33815 13.2606C5.27515 12.9996 5.20915 12.7286 5.16415 12.4677C4.91016 10.9657 5.29615 9.31674 6.22512 7.94278C6.9311 6.90081 7.93708 6.02283 9.15604 5.36485V5.75484C8.21507 6.43782 7.28709 7.1958 6.56111 8.15277C5.55514 9.47674 5.10916 11.0217 5.33715 12.3887C5.39615 12.7436 5.50014 13.0936 5.60014 13.4316C5.78214 14.0446 5.95313 14.6226 5.87413 15.2126C5.83514 15.5086 5.73214 15.7946 5.62514 16.0976C5.47015 16.5325 5.30915 16.9825 5.34815 17.4685C5.37915 17.8705 5.54214 18.2325 5.70114 18.5825C5.85713 18.9285 6.00513 19.2555 6.02313 19.6035C6.04413 20.0134 5.88413 20.4064 5.71514 20.8234C5.54014 21.2514 5.36115 21.6934 5.37615 22.1754C5.39015 22.5964 5.54914 22.9774 5.70514 23.3463C5.85213 23.6983 5.99213 24.0323 6.00313 24.3823C6.01713 24.8183 5.82714 25.2733 5.64414 25.7123C5.38115 26.3403 5.10916 26.9912 5.40215 27.6392C5.48914 27.8332 5.61714 27.9942 5.74114 28.1502C5.87813 28.3212 6.00813 28.4832 6.06513 28.6702C6.18113 29.0402 6.00513 29.4252 5.81914 29.8332C5.68014 30.1382 5.53614 30.4542 5.49614 30.7951C5.44415 31.2411 5.58414 31.6801 5.70814 32.0681C5.84114 32.4851 5.93913 32.8321 5.89113 33.1791C5.84813 33.4931 5.62014 33.8321 5.31415 33.8561C5.17815 33.8651 5.02816 33.7731 4.94716 33.6271C4.91816 33.5771 4.86116 33.4471 4.91416 33.3621C4.95616 33.3181 5.02816 33.3021 5.10316 33.3181C5.14615 33.3271 5.18815 33.3411 5.21115 33.3701C5.38315 33.5951 5.66714 33.3891 5.53814 33.2001C5.45715 33.0811 5.33115 32.9921 5.17815 32.9591C4.98316 32.9161 4.78916 32.9691 4.64117 33.1281C4.51017 33.3251 4.50917 33.5801 4.63817 33.8101C4.77816 34.063 5.03716 34.224 5.29415 34.224C5.31015 34.224 5.32515 34.223 5.34115 34.223C5.84514 34.183 6.18213 33.6821 6.24412 33.2311C6.30712 32.7711 6.16313 32.3171 6.04613 31.9531C5.92913 31.5851 5.80714 31.2041 5.85013 30.8381C5.88313 30.5561 6.01413 30.2682 6.14213 29.9892C6.34912 29.5352 6.56312 29.0662 6.40512 28.5582C6.32612 28.3042 6.16913 28.1072 6.01713 27.9162C5.90213 27.7722 5.79314 27.6362 5.72414 27.4852C5.50014 26.9852 5.72914 26.4373 5.97113 25.8573C6.17113 25.3813 6.37612 24.8883 6.36012 24.3703C6.34612 23.9503 6.18613 23.5683 6.03113 23.2004C5.88313 22.8484 5.74414 22.5144 5.73214 22.1634C5.72014 21.7614 5.87713 21.3754 6.04313 20.9664C6.22112 20.5294 6.40512 20.0774 6.37912 19.5835C6.35712 19.1645 6.18813 18.7895 6.02413 18.4275C5.87213 18.0915 5.72914 17.7755 5.70214 17.4395C5.67114 17.0335 5.81114 16.6405 5.95913 16.2245C6.06913 15.9166 6.18213 15.5976 6.22812 15.2626C6.31712 14.5926 6.12613 13.9476 5.94113 13.3246C5.84413 12.9966 5.74314 12.6586 5.68814 12.3267C5.47715 11.0607 5.89813 9.62173 6.84111 8.37877C7.48809 7.52779 8.31007 6.83481 9.15604 6.20683V6.57482C8.20507 7.2178 7.46709 7.91878 6.9411 8.71676C6.20012 9.83973 5.89013 11.1557 6.09213 12.3277C6.15413 12.6886 6.26312 13.0426 6.36812 13.3866C6.56511 14.0266 6.75011 14.6306 6.64511 15.2416C6.60611 15.4716 6.52512 15.6986 6.44012 15.9386C6.28812 16.3665 6.13113 16.8095 6.22212 17.2835C6.27412 17.5565 6.40312 17.7935 6.52712 18.0225C6.64211 18.2325 6.75011 18.4305 6.79311 18.6425C6.86911 19.0135 6.74411 19.3925 6.61211 19.7934C6.50112 20.1304 6.38512 20.4794 6.38412 20.8474C6.38112 21.2714 6.52812 21.6594 6.67011 22.0344C6.74611 22.2354 6.81711 22.4254 6.86911 22.6204C7.0051 23.1474 6.9861 23.7073 6.9481 24.3313L6.91011 24.9223C6.87711 25.4313 6.84511 25.9403 6.82411 26.4503C6.77211 27.7382 6.79911 29.0412 6.90311 30.3242C6.9511 30.9211 7.0191 31.5531 7.2671 32.1371C7.54909 32.8011 8.03207 33.2811 8.59406 33.4531C8.73505 33.4961 8.87705 33.5161 9.01805 33.5161C9.41704 33.5161 9.79302 33.3491 10.011 33.0531C10.188 32.8151 10.244 32.4751 10.158 32.1681C10.083 31.8981 9.90702 31.6911 9.67603 31.6021C9.35304 31.4771 9.02905 31.6531 8.85105 31.8841C8.69606 32.0871 8.63206 32.3311 8.72205 32.5291C8.85305 32.8151 9.10404 32.6251 9.05105 32.3801C9.02605 32.2621 9.10204 32.1481 9.13104 32.1121C9.22804 31.9861 9.40404 31.8891 9.55103 31.9461C9.72103 32.0121 9.79003 32.1771 9.81502 32.2701C9.87002 32.4651 9.83502 32.6851 9.72803 32.8301C9.48503 33.1591 9.02205 33.2011 8.69606 33.1001C8.23507 32.9591 7.83408 32.5541 7.59409 31.9901C7.36809 31.4571 7.30409 30.8601 7.2581 30.2942C7.1551 29.0262 7.1291 27.7382 7.1811 26.4663C7.2011 25.9593 7.2341 25.4523 7.2661 24.9463L7.30409 24.3543C7.34309 23.6963 7.36409 23.1054 7.2121 22.5254C7.1571 22.3104 7.0781 22.1024 7.0021 21.9014C6.86711 21.5424 6.73911 21.2034 6.74011 20.8494C6.74211 20.5404 6.84311 20.2344 6.9491 19.9114C7.0911 19.4815 7.2371 19.0365 7.1411 18.5675C7.0871 18.2995 6.9611 18.0675 6.83811 17.8425C6.72311 17.6295 6.61311 17.4285 6.57111 17.2125C6.50112 16.8395 6.63411 16.4625 6.77511 16.0646C6.86211 15.8206 6.9511 15.5676 6.9961 15.3056C7.1171 14.6056 6.90911 13.9296 6.70811 13.2756C6.60611 12.9436 6.50112 12.6006 6.44312 12.2637C6.25712 11.1847 6.54612 9.96772 7.2351 8.92375C7.70008 8.21977 8.33807 7.59279 9.15604 7.0138V7.3008C8.29307 7.79278 7.60609 8.77176 7.34409 9.89772C7.0461 11.1787 7.2131 12.4987 7.37509 13.7746L7.39909 13.9706C8.13807 19.8564 8.25807 25.8383 7.75408 31.7501L8.26007 31.7981C8.31007 31.2421 8.87805 30.7541 9.47503 30.7541C9.56703 30.7541 9.65703 30.7661 9.74203 30.7891C10.388 30.9651 10.845 31.7471 10.72 32.4641C10.597 33.1661 9.97702 33.7581 9.24404 33.8691C8.53106 33.9791 7.77608 33.6591 7.2751 33.0681L6.91311 32.6401L6.83211 33.2021C6.74711 33.8021 6.26712 34.326 5.69114 34.448C5.11916 34.57 4.46817 34.274 4.16618 33.7661L3.97719 33.4471L3.75119 33.7391C3.4342 34.151 2.89722 34.397 2.31423 34.397C1.69725 34.397 1.13727 34.128 0.818275 33.6781C0.508284 33.2411 0.424286 32.6251 0.594282 32.0321C0.764277 31.4391 1.15927 30.9691 1.65025 30.7771C1.81725 30.7111 2.00524 30.6771 2.19424 30.6771C2.67022 30.6771 3.24121 30.9071 3.4442 31.4231L3.85919 32.4781L3.93319 31.3421C4.11018 28.5932 4.01419 25.7873 3.92119 23.0744C3.78219 19.0575 3.6392 14.9036 4.39618 10.9177C4.65817 9.53773 5.09516 7.77778 6.16813 6.40082C6.9561 5.38885 8.05607 4.71787 9.15604 4.56887V4.95486ZM11.189 7.73378V7.90478H9.66403V7.62479V4.00389V3.16391H11.189V7.73378ZM18.1588 11.0437L17.8258 11.6457C17.2448 12.6986 16.3428 13.5706 15.2859 14.1016C14.7619 14.3656 14.3569 14.4276 14.0439 14.2906C13.4639 14.0376 13.3409 13.1886 13.2989 12.4777L13.0409 8.12077L13.0099 7.61279C12.9899 7.2848 12.9679 6.91281 13.0959 6.61482C13.1219 6.55582 13.1569 6.50082 13.1969 6.45182C13.2089 6.43782 13.2229 6.42782 13.2349 6.41482C13.2659 6.38182 13.2989 6.35082 13.3339 6.32682C13.3489 6.31582 13.3649 6.30882 13.3799 6.29982C13.4149 6.27982 13.4499 6.26383 13.4859 6.25383C13.5029 6.24883 13.5199 6.24483 13.5379 6.24283C13.5829 6.23683 13.6289 6.23283 13.6709 6.24583C13.7089 6.25783 13.7439 6.27582 13.7759 6.29982C13.9969 6.46682 14.0539 6.90681 14.0599 7.2758L14.0629 7.45479L14.1249 11.1987C14.1309 11.4847 14.1409 12.0797 14.5799 12.3537C14.8689 12.5327 15.2929 12.4867 15.5999 12.2527C15.8539 12.0587 16.0129 11.7857 16.1528 11.5457L17.2138 9.72073L17.2148 9.72173L17.4598 9.29774C17.7328 8.82975 18.0108 8.39777 18.4188 8.25077C18.6138 8.18077 18.8388 8.17577 19.0778 8.17177C19.4028 8.16577 19.7387 8.15877 20.0547 7.98778C20.1597 7.93178 20.2497 7.85678 20.3347 7.77278C20.3507 7.75678 20.3677 7.74178 20.3827 7.72478C20.4617 7.63879 20.5307 7.53979 20.5897 7.42879C20.5937 7.42079 20.5997 7.41679 20.6037 7.40879C20.6727 7.41279 20.7407 7.41679 20.8087 7.41879C21.0417 7.42579 21.2727 7.42679 21.5057 7.41979C21.5287 7.51679 21.5597 7.59479 21.5947 7.66579C21.6027 7.68279 21.6117 7.69979 21.6207 7.71478C21.6577 7.77978 21.6997 7.83678 21.7497 7.87778C21.8467 7.95978 21.9497 8.02778 22.0567 8.08577C22.0607 8.08777 22.0627 8.09077 22.0667 8.09277C22.0467 8.12577 22.0257 8.15877 22.0067 8.19277C21.7917 8.54676 21.5657 8.89575 21.3237 9.23474C21.2967 9.27174 21.2677 9.30874 21.2407 9.34674C20.9937 9.68573 20.7367 10.0167 20.4647 10.3367C20.4487 10.3557 20.4337 10.3747 20.4187 10.3937C20.1437 10.7157 19.8537 11.0227 19.5568 11.3227C19.5108 11.3687 19.4658 11.4157 19.4188 11.4617C19.1288 11.7467 18.8278 12.0197 18.5188 12.2817C18.4908 12.3037 18.4628 12.3267 18.4358 12.3497C18.3868 12.1417 18.3368 11.9327 18.2948 11.7227L18.1588 11.0437ZM14.5869 8.43676C15.2039 8.61676 15.8099 8.88875 16.3918 9.26174C16.5168 9.34074 16.6408 9.40574 16.7648 9.47374L15.7169 11.2757C15.5959 11.4847 15.4699 11.6997 15.2969 11.8317C15.1539 11.9407 14.9569 11.9767 14.8429 11.9057C14.6669 11.7957 14.6389 11.4817 14.6329 11.1897L14.5869 8.43676ZM22.0687 2.21694L22.1097 2.43793C22.1317 2.55493 22.1497 2.66793 22.1657 2.77992C22.1107 2.81692 22.0557 2.85192 21.9987 2.88492C21.9427 2.91792 21.8877 2.95292 21.8297 2.98292C21.7457 3.02492 21.6587 3.06091 21.5727 3.09491C21.5157 3.11891 21.4597 3.14491 21.4017 3.16491C21.3057 3.19791 21.2077 3.22091 21.1107 3.24391C21.0597 3.25591 21.0097 3.27191 20.9587 3.28191C20.8107 3.30891 20.6607 3.32591 20.5107 3.32891L20.4407 3.32991C20.3087 3.32991 20.1767 3.31791 20.0427 3.29991C19.7327 3.25691 19.4238 3.16791 19.1298 3.03092C18.7378 2.84692 18.3878 2.58993 18.1058 2.27894C18.7888 1.76295 19.6178 1.46996 20.4667 1.44896L20.5627 1.44796C20.7617 1.44796 20.9607 1.46696 21.1577 1.49696C21.2207 1.50596 21.2817 1.52196 21.3447 1.53496C21.4787 1.56196 21.6117 1.59296 21.7437 1.63395C21.8137 1.65495 21.8827 1.67995 21.9517 1.70495C22.0747 1.74995 22.1947 1.80095 22.3137 1.85795C22.3787 1.88995 22.4447 1.91995 22.5097 1.95495C22.5397 1.97194 22.5677 1.99294 22.5967 2.00994C22.4927 2.05694 22.3867 2.10194 22.2747 2.14194L22.0687 2.21694ZM21.6327 4.87686C21.0127 5.40285 19.9797 5.48285 19.3408 5.05286C19.2028 4.75187 19.1328 4.43688 19.1328 4.11789C19.1328 3.95189 19.1508 3.78589 19.1888 3.6209C19.2078 3.6279 19.2278 3.6329 19.2468 3.6399C19.2878 3.6549 19.3278 3.6669 19.3688 3.6799C19.4458 3.7039 19.5238 3.7269 19.6018 3.7469C19.6447 3.7569 19.6867 3.76689 19.7287 3.77589C19.8107 3.79289 19.8927 3.80689 19.9747 3.81789C20.0117 3.82389 20.0487 3.82989 20.0867 3.83389C20.2047 3.84589 20.3227 3.85389 20.4407 3.85389L20.5227 3.85289C20.6887 3.84889 20.8547 3.82889 21.0197 3.79989C21.0717 3.79189 21.1237 3.77689 21.1747 3.76589C21.2887 3.7409 21.4017 3.7109 21.5137 3.6749C21.5717 3.6559 21.6287 3.6349 21.6857 3.6139C21.7937 3.5719 21.8987 3.5249 22.0037 3.4739C22.0557 3.4489 22.1077 3.4249 22.1587 3.39691C22.1807 3.38391 22.2037 3.37591 22.2257 3.36291C22.2507 3.96189 22.1237 4.45888 21.6327 4.87686ZM18.9378 5.39585L18.9438 5.40585L18.9948 5.44385C19.3708 5.71984 19.8347 5.86484 20.3367 5.86484C20.9287 5.86484 21.5187 5.65184 21.9557 5.28085C22.7307 4.62187 22.7867 3.78889 22.7087 3.03592L22.7127 3.03392L22.6927 2.87792L22.6517 2.55593C22.8027 2.49193 22.9497 2.42293 23.0957 2.35393L23.3286 2.24494C23.3456 2.23794 23.3616 2.22994 23.3786 2.22194C23.4196 2.71592 23.4756 3.6329 23.3866 4.22188C23.3256 4.62687 23.2416 5.17986 23.4826 5.65384C23.5966 5.87784 23.8016 6.05683 24.0336 6.14983C23.7106 6.39382 23.3196 6.58582 22.8867 6.70781C22.5437 6.80581 22.1557 6.86381 21.7017 6.88781C21.4097 6.90281 21.1167 6.90481 20.8257 6.89481C20.7077 6.89081 20.5877 6.88381 20.4677 6.87381C19.9017 6.82581 19.5238 6.69881 19.2428 6.46382C19.0298 6.28482 18.8878 5.98383 18.8808 5.69684C18.8788 5.60884 18.8938 5.49985 18.9378 5.39585ZM22.5067 7.3278L22.4257 7.47879C22.3967 7.53279 22.3647 7.58679 22.3337 7.63979C22.3267 7.63679 22.3187 7.63479 22.3117 7.63079C22.2277 7.58779 22.1477 7.53679 22.0697 7.47179C22.0697 7.47179 22.0647 7.46579 22.0587 7.45679C22.0557 7.45279 22.0507 7.44179 22.0477 7.43479C22.0417 7.42479 22.0367 7.41379 22.0307 7.39779C22.0297 7.39579 22.0287 7.39079 22.0277 7.38979C22.1957 7.37379 22.3547 7.35379 22.5067 7.3278ZM18.5598 14.6406C18.5448 14.6016 18.5308 14.5596 18.5178 14.5136C18.3148 13.8316 18.2538 13.3866 18.2348 13.1866C18.2648 13.1616 18.2958 13.1366 18.3258 13.1116L18.4388 13.0216C20.0737 11.7247 21.4907 10.0867 22.5577 8.27877L22.7317 7.97578C22.7437 7.95478 22.7567 7.93378 22.7687 7.91278L23.1767 8.03178C23.1207 8.18977 23.0617 8.34677 23.0007 8.50176C22.1997 10.5667 20.9847 12.4327 19.3858 13.9316C19.1198 14.1806 18.8438 14.4156 18.5598 14.6406ZM23.3056 9.12475C23.3736 8.96375 23.4326 8.79675 23.4956 8.63176C23.5616 8.46076 23.6326 8.29477 23.6936 8.11977C23.7046 8.12477 23.7176 8.12877 23.7286 8.13377C23.8076 8.16677 23.8906 8.19777 23.9776 8.22677C23.9816 8.22877 23.9856 8.23077 23.9896 8.23177C23.9436 8.38277 23.8946 8.53176 23.8456 8.68076C23.7936 8.83775 23.7436 8.99675 23.6866 9.15175C23.6166 9.34474 23.5386 9.53373 23.4606 9.72373C23.4006 9.87272 23.3436 10.0237 23.2786 10.1707C23.1937 10.3637 23.0997 10.5527 23.0077 10.7427C22.9407 10.8817 22.8767 11.0217 22.8057 11.1587C22.7037 11.3567 22.5907 11.5487 22.4807 11.7417C22.4107 11.8657 22.3447 11.9917 22.2707 12.1137C22.1367 12.3357 21.9927 12.5507 21.8477 12.7666C21.7897 12.8546 21.7357 12.9446 21.6757 13.0306C21.4687 13.3286 21.2517 13.6196 21.0247 13.9036C20.9527 13.9946 20.8737 14.0796 20.7997 14.1686C20.6407 14.3596 20.4827 14.5516 20.3147 14.7356C20.2127 14.8486 20.1037 14.9546 19.9977 15.0636C19.8637 15.2026 19.7317 15.3426 19.5938 15.4776C19.5528 15.4706 19.5118 15.4646 19.4718 15.4546C19.4428 15.4476 19.4138 15.4426 19.3858 15.4336C19.3038 15.4096 19.2238 15.3776 19.1458 15.3396C19.1408 15.3366 19.1358 15.3356 19.1308 15.3326L19.1188 15.3256C19.0068 15.2676 18.9018 15.1996 18.8038 15.1186C18.9338 15.0166 19.0558 14.9056 19.1818 14.7986C19.3028 14.6976 19.4248 14.6006 19.5418 14.4946C19.6957 14.3566 19.8407 14.2106 19.9887 14.0656C20.0987 13.9576 20.2117 13.8526 20.3187 13.7406C20.4587 13.5926 20.5917 13.4356 20.7257 13.2816C20.8307 13.1616 20.9397 13.0456 21.0407 12.9216C21.1537 12.7836 21.2587 12.6356 21.3677 12.4917C21.8467 11.8587 22.2787 11.1817 22.6617 10.4637C22.7157 10.3647 22.7737 10.2677 22.8247 10.1667C22.9237 9.97072 23.0127 9.76773 23.1037 9.56673C23.1707 9.41974 23.2426 9.27474 23.3056 9.12475ZM19.9747 24.8833C19.9027 26.2313 19.8287 27.6252 19.4838 28.9282C19.3978 29.2552 19.2928 29.5802 19.1898 29.9052C18.9348 30.7011 18.6718 31.5251 18.6608 32.3931L18.6598 32.5161C18.6588 32.8451 18.6568 33.1851 18.4748 33.3491C18.3538 33.4581 18.1548 33.4871 17.9268 33.5121L15.6489 33.7591L15.6449 34.0211V33.7591L15.6049 33.7141C15.7469 33.4391 16.0369 33.2251 16.2538 33.0951C16.3308 33.0491 16.4098 33.0041 16.4888 32.9591C16.8838 32.7351 17.2928 32.5041 17.5448 32.0791C17.7628 31.7091 17.8028 31.2851 17.8368 30.9111C17.8928 30.3062 17.9438 29.7712 17.9968 29.2372C18.0988 28.1762 18.2018 27.1132 18.3348 25.4953C18.4708 23.8373 18.3708 22.8224 18.2828 21.9274C18.2668 21.7624 18.2508 21.6034 18.2368 21.4454L20.3177 21.4474C20.0967 22.5794 20.0347 23.7483 19.9747 24.8833ZM23.6706 30.9111C23.7056 31.2851 23.7446 31.7091 23.9636 32.0791C24.2146 32.5041 24.6236 32.7351 25.0186 32.9591C25.0976 33.0041 25.1766 33.0491 25.2536 33.0951C25.4716 33.2251 25.7616 33.4381 25.9006 33.7361C25.8946 33.7461 25.8806 33.7591 25.8636 33.7591L23.5806 33.5121C23.3526 33.4871 23.1547 33.4581 23.0337 33.3491C22.8507 33.1841 22.8497 32.8441 22.8487 32.5141L22.8467 32.3931C22.8367 31.5251 22.5737 30.7011 22.3187 29.9052C22.2147 29.5802 22.1107 29.2552 22.0237 28.9282C21.6797 27.6252 21.6057 26.2313 21.5337 24.8833C21.4737 23.7493 21.4117 22.5804 21.1897 21.4484L23.2706 21.4514C23.2566 21.6074 23.2407 21.7654 23.2246 21.9294C23.1377 22.8244 23.0377 23.8383 23.1737 25.4953C23.3056 27.1182 23.4096 28.1822 23.5126 29.2472C23.5636 29.7782 23.6156 30.3092 23.6706 30.9111ZM23.7886 20.9274L20.5547 20.9234L17.4808 20.9194C17.8658 19.2255 18.3848 17.6415 19.0488 16.1215L19.5818 16.1195C19.6398 16.1185 20.9897 16.1066 21.6637 15.5886C21.6807 15.5756 21.6977 15.5626 21.7127 15.5496C21.7687 15.5666 21.8237 15.5856 21.8727 15.6076C21.9047 15.6216 21.9417 15.6326 21.9707 15.6496C22.0617 15.7006 22.1427 15.7596 22.2077 15.8316C22.2467 15.8756 22.2797 15.9256 22.3117 15.9766L22.3527 16.0746L22.3587 16.0766C22.4467 16.2495 22.5137 16.4455 22.5737 16.6555L23.7886 20.9274ZM22.4507 15.3496C22.4447 15.3456 22.4377 15.3416 22.4317 15.3376C22.3557 15.2746 22.2717 15.2186 22.1807 15.1696C22.1747 15.1676 22.1707 15.1626 22.1647 15.1596C22.1867 15.1396 22.2057 15.1166 22.2267 15.0956C22.3077 15.0166 22.3877 14.9356 22.4647 14.8506C22.4987 14.8136 22.5327 14.7726 22.5657 14.7346C22.6317 14.6566 22.6977 14.5756 22.7627 14.4926C22.7787 14.4706 22.7967 14.4516 22.8137 14.4296L22.4507 15.3496ZM22.5247 13.9536C22.4477 14.0636 22.3697 14.1666 22.2907 14.2636C21.7817 14.8966 21.2037 15.3716 20.4037 15.5126C20.3597 15.5206 20.3147 15.5286 20.2707 15.5356C20.3417 15.4626 20.4067 15.3846 20.4767 15.3116C22.0377 13.6536 23.2746 11.6757 24.0896 9.52373C24.1686 9.31674 24.2396 9.10875 24.3096 8.89875C24.3786 8.69376 24.4516 8.48976 24.5136 8.28077L24.6296 8.31277L24.6256 8.38477C24.4856 10.4047 23.8576 12.0697 22.5247 13.9536ZM25.9056 11.9067C25.9686 13.3006 26.3186 14.6266 26.7346 16.0916C27.0375 17.1585 27.3255 17.7385 27.5795 18.2505C27.7545 18.6035 27.9205 18.9375 28.0745 19.3975C28.2175 19.8224 28.2305 20.1174 28.1165 20.3274C27.9715 20.5904 27.6915 20.6214 27.4525 20.4704C27.1405 20.2744 26.9765 19.8874 26.8015 19.4775C26.7636 19.3875 26.7256 19.2985 26.6866 19.2125C25.5896 16.7935 25.0076 14.1356 24.4416 11.5537C24.4516 11.5277 24.4596 11.5007 24.4696 11.4747C24.6426 11.0247 24.7826 10.5617 24.8886 10.0897C24.9156 9.97472 25.1796 8.82675 25.1006 8.78975C25.1416 8.80875 25.1896 8.82575 25.2306 8.84775C25.5446 9.01875 25.6936 9.21074 25.7616 9.52973C25.8746 10.0637 25.8816 10.6097 25.8886 11.1867C25.8916 11.4277 25.8946 11.6677 25.9056 11.9067ZM28.4905 7.51079C27.9285 7.62179 26.3756 7.94878 25.3616 8.32977C25.2926 8.29577 25.2216 8.26377 25.1486 8.23177C25.1506 8.19777 25.1536 8.16377 25.1546 8.12877L25.1646 7.91678L24.4076 7.70978L24.1526 7.67779L24.1396 7.72578C24.1076 7.71578 24.0736 7.70578 24.0436 7.69478C24.0146 7.68379 23.9856 7.67379 23.9566 7.66179C23.8536 7.62079 23.7556 7.57779 23.6666 7.52979L23.3876 7.42279L23.3496 7.53779L22.5837 7.3148C22.7357 7.2868 22.8817 7.2528 23.0207 7.2138C23.5906 7.0528 24.3876 6.70481 24.9476 5.96283L24.5616 5.62384C24.4196 5.78184 24.0496 5.64084 23.9326 5.41085C23.7816 5.11386 23.8236 4.73387 23.8886 4.30288C24.0256 3.39691 23.8586 1.88395 23.8516 1.81995L23.8146 1.49396L23.5146 1.60296C23.3946 1.64695 23.2806 1.69495 23.1687 1.74495C23.1547 1.73595 23.1387 1.72895 23.1247 1.71895C22.9547 1.60496 22.7777 1.49996 22.5957 1.40996C22.5707 1.39796 22.5447 1.38596 22.5197 1.37396C22.3327 1.28496 22.1407 1.20697 21.9447 1.14397C21.9227 1.13697 21.9007 1.13197 21.8797 1.12497C21.6767 1.06397 21.4707 1.01397 21.2617 0.979973C21.2477 0.977973 21.2337 0.977973 21.2197 0.974973C21.0017 0.942974 20.7827 0.923974 20.5627 0.923974L20.4547 0.924974C19.4058 0.950974 18.3838 1.34696 17.5778 2.04094L17.3878 2.20294L17.5408 2.40393C17.6238 2.51293 17.7148 2.61693 17.8108 2.71592C17.8418 2.74792 17.8768 2.77792 17.9088 2.80892C17.9768 2.87492 18.0448 2.93792 18.1178 2.99792C18.1588 3.03192 18.2018 3.06291 18.2448 3.09591C18.3138 3.14791 18.3848 3.19891 18.4578 3.24691C18.5048 3.27691 18.5518 3.30591 18.5998 3.33391C18.6338 3.35391 18.6658 3.37691 18.6998 3.39591C18.6268 3.5729 18.5518 3.78089 18.5478 4.13088C18.5448 4.48388 18.5848 4.77387 18.6158 4.93786C18.4518 5.14386 18.3658 5.41185 18.3728 5.70884C18.3828 6.14983 18.5938 6.59482 18.9228 6.86981C19.2618 7.1548 19.6717 7.2828 20.0317 7.34579C19.9697 7.41879 19.8997 7.48079 19.8187 7.52379C19.6098 7.63779 19.3468 7.64279 19.0688 7.64779C18.8008 7.65279 18.5238 7.65779 18.2518 7.75578C17.6828 7.96078 17.3468 8.47476 17.0238 9.02875L17.0228 9.03075C16.9028 8.96475 16.7808 8.89375 16.6598 8.81675C15.9909 8.38877 15.2909 8.07577 14.5779 7.88478L14.5679 7.2608C14.5529 6.40082 14.2989 5.88984 13.8139 5.74284C13.3709 5.60884 12.8439 5.91183 12.6319 6.40282C12.5889 6.50182 12.5589 6.60382 12.5369 6.70581C12.5299 6.74181 12.5269 6.77781 12.5209 6.81381C12.5109 6.88181 12.4999 6.94781 12.4949 7.0148C12.4919 7.0578 12.4919 7.0988 12.4909 7.1408C12.4889 7.2018 12.4879 7.2628 12.4889 7.3218C12.4899 7.36679 12.4919 7.40779 12.4939 7.45179C12.4949 7.47679 12.4949 7.50379 12.4959 7.52879C12.215 7.50079 11.95 7.48279 11.697 7.47579V3.7019C12.6799 3.7439 14.3339 3.6509 15.8729 2.72292C16.1898 2.53093 16.5008 2.32494 16.8148 2.11794C18.0008 1.33396 19.2268 0.523985 20.8387 0.523985C21.9257 0.523985 23.0957 0.882975 24.4406 1.63295C24.5436 1.67695 26.8545 2.65193 28.4905 2.74992V7.51079Z" fill="black"/>
</svg>
